<svg width="48" height="48" viewBox="0 0 48 48" fill="none" xmlns="http://www.w3.org/2000/svg">
<path d="M5 7.5H9ZM39 7.5H43ZM4 8.5H10ZM38 8.5H44ZM4 9.5H6ZM8 9.5H12ZM36 9.5H40ZM42 9.5H44ZM3 10.5H6ZM9 10.5H13ZM35 10.5H39ZM42 10.5H45ZM2 11.5H5ZM11 11.5H14ZM34 11.5H37ZM43 11.5H46ZM2 12.5H5ZM12 12.5H16ZM32 12.5H36ZM43 12.5H46ZM2 13.5H5ZM13 13.5H19ZM29 13.5H35ZM43 13.5H46ZM2 14.5H6ZM14 14.5H34ZM42 14.5H46ZM3 15.5H7ZM18 15.5H30ZM41 15.5H45ZM3 16.5H7ZM41 16.5H45ZM4 17.5H9ZM39 17.5H44ZM4 18.5H10ZM38 18.5H44ZM5 19.5H12ZM36 19.5H43ZM6 20.5H13ZM35 20.5H42ZM8 21.5H17ZM31 21.5H40ZM9 22.5H19ZM29 22.5H39ZM11 23.5H37ZM14 24.5H34ZM17 25.5H31ZM18 26.5H30ZM20 29.5H28ZM19 30.5H29ZM18 31.5H22ZM26 31.5H30ZM17 32.5H21ZM27 32.5H31ZM16 33.5H20ZM28 33.5H32ZM16 34.5H19ZM29 34.5H32ZM15 35.5H18ZM30 35.5H33ZM15 36.5H18ZM30 36.5H33ZM15 37.5H19ZM29 37.5H33ZM15 38.5H21ZM27 38.5H33ZM16 39.5H32ZM17 40.5H31ZM18 41.5H30Z" fill="black"/>
<path d="M5 7.5H9M39 7.5H43M4 8.5H10M38 8.5H44M4 9.5H6M8 9.5H12M36 9.5H40M42 9.5H44M3 10.5H6M9 10.5H13M35 10.5H39M42 10.5H45M2 11.5H5M11 11.5H14M34 11.5H37M43 11.5H46M2 12.5H5M12 12.5H16M32 12.5H36M43 12.5H46M2 13.5H5M13 13.5H19M29 13.5H35M43 13.5H46M2 14.5H6M14 14.5H34M42 14.5H46M3 15.5H7M18 15.5H30M41 15.5H45M3 16.5H7M41 16.5H45M4 17.5H9M39 17.5H44M4 18.5H10M38 18.5H44M5 19.5H12M36 19.5H43M6 20.5H13M35 20.5H42M8 21.5H17M31 21.5H40M9 22.5H19M29 22.5H39M11 23.5H37M14 24.5H34M17 25.5H31M18 26.5H30M20 29.5H28M19 30.5H29M18 31.5H22M26 31.5H30M17 32.5H21M27 32.5H31M16 33.5H20M28 33.5H32M16 34.5H19M29 34.5H32M15 35.5H18M30 35.5H33M15 36.5H18M30 36.5H33M15 37.5H19M29 37.5H33M15 38.5H21M27 38.5H33M16 39.5H32M17 40.5H31M18 41.5H30" stroke="black"/>
<path d="M6 9.5H8ZM40 9.5H42ZM6 10.5H9ZM39 10.5H42ZM5 11.5H11ZM37 11.5H43ZM5 12.5H12ZM36 12.5H43ZM5 13.5H13ZM35 13.5H43ZM6 14.5H14ZM34 14.5H42ZM7 15.5H18ZM30 15.5H41ZM7 16.5H41ZM9 17.5H39ZM10 18.5H38ZM12 19.5H36ZM13 20.5H35ZM17 21.5H31ZM19 22.5H29ZM22 31.5H26ZM21 32.5H27ZM20 33.5H28ZM19 34.5H29ZM18 35.5H30ZM18 36.5H30ZM19 37.5H29ZM21 38.5H27Z" fill="black"/>
<path d="M6 9.5H8M40 9.5H42M6 10.5H9M39 10.5H42M5 11.5H11M37 11.5H43M5 12.5H12M36 12.5H43M5 13.5H13M35 13.5H43M6 14.5H14M34 14.5H42M7 15.5H18M30 15.5H41M7 16.5H41M9 17.5H39M10 18.5H38M12 19.5H36M13 20.5H35M17 21.5H31M19 22.5H29M22 31.5H26M21 32.5H27M20 33.5H28M19 34.5H29M18 35.5H30M18 36.5H30M19 37.5H29M21 38.5H27" stroke="#FF0000"/>
</svg>
