<svg xmlns="http://www.w3.org/2000/svg" viewBox="0 -0.5 32 32" shape-rendering="crispEdges">
<metadata>Made with Pixels to Svg https://codepen.io/shshaw/pen/XbxvNj</metadata>
<path stroke="#000000" d="M10 2h2M10 3h2M24 3h4M10 4h2M24 4h1M27 4h2M10 5h2M19 5h7M28 5h2M10 6h2M17 6h3M25 6h2M29 6h1M10 7h2M15 7h2M27 7h3M10 8h2M27 8h1M10 9h2M28 9h1M10 10h5M28 10h1M6 11h9M28 11h1M5 12h1M10 12h2M27 12h1M4 13h1M10 13h2M27 13h1M4 14h1M10 14h2M15 14h1M27 14h1M4 15h1M10 15h5M16 15h1M27 15h1M4 16h1M10 16h5M17 16h2M26 16h2M5 17h1M19 17h1M26 17h1M5 18h1M20 18h1M26 18h1M5 19h2M21 19h1M25 19h2M6 20h1M22 20h1M25 20h1M6 21h2M24 21h1M8 22h1M18 22h2M24 22h1M9 23h1M17 23h1M20 23h1M24 23h2M9 24h2M16 24h1M21 24h1M25 24h1M11 25h2M16 25h1M21 25h1M24 25h2M12 26h1M17 26h1M20 26h1M23 26h3M13 27h3M18 27h2M23 27h1M25 27h1M15 28h2M22 28h1M24 28h1M17 29h7" />
<path stroke="#ff0000" d="M12 2h3M12 3h3M12 4h3M12 5h3M12 6h3M12 7h3M12 8h3M12 9h3M12 12h3M12 13h3M12 14h3" />
<path stroke="#eec100" d="M25 4h2M26 5h1M24 9h1M23 10h3M22 11h4M6 12h4M21 12h5M5 13h2M20 13h5M16 14h2M19 14h6M15 15h1M17 15h4M23 15h2M16 16h1M19 16h3M17 17h2M20 17h3M19 18h1M21 18h3M20 19h1M22 19h2M21 20h1M23 20h1M22 21h2M23 22h1M23 23h1M17 24h1M24 24h1M17 25h2M18 26h2" />
<path stroke="#cf6f2f" d="M27 5h1M27 6h2M19 7h6M18 8h6M16 9h6M15 10h5M15 11h4M15 12h3M15 13h2" />
<path stroke="#d0902f" d="M20 6h5M17 7h2M25 7h2M15 8h3M24 8h3M15 9h1M22 9h2M25 9h3M20 10h3M26 10h2M19 11h3M26 11h2M18 12h3M26 12h1M17 13h3M25 13h2M5 14h1M18 14h1M25 14h2M5 15h1M21 15h2M25 15h2M5 16h1M22 16h4M6 17h1M23 17h3M6 18h1M24 18h2M7 19h1M24 19h1M7 20h2M24 20h1M8 21h2M9 22h2M10 23h2M11 24h2M13 25h1M13 26h3M16 27h1M24 27h1M17 28h5M23 28h1" />
<path stroke="#5a2a0a" d="M7 13h3M6 14h4M6 15h1M9 15h1M15 16h1M12 17h5M14 18h5M15 19h5M17 20h4M18 21h4M20 22h3M21 23h2M22 24h2M23 25h1" />
<path stroke="#84451b" d="M7 15h2M8 16h2M8 17h4M9 18h5M10 19h5M11 20h6M12 21h6M13 22h5M14 23h3M15 24h1M22 25h1M21 26h2" />
<path stroke="#c26529" d="M6 16h2M7 17h1M7 18h2M8 19h2M9 20h2M10 21h2M11 22h2M12 23h2M13 24h2M14 25h2M16 26h1M17 27h1M20 27h3" />
<path stroke="#c88926" d="M18 23h1M18 24h2M19 25h2" />
<path stroke="#9a5425" d="M19 23h1M20 24h1" />
</svg>