<svg xmlns="http://www.w3.org/2000/svg" viewBox="0 -0.5 32 32" shape-rendering="crispEdges">
<metadata>Made with Pixels to Svg https://codepen.io/shshaw/pen/XbxvNj</metadata>
<path stroke="#000000" d="M16 1h1M12 2h1M15 2h1M17 2h1M20 2h1M11 3h1M13 3h2M18 3h2M21 3h1M8 4h2M11 4h1M14 4h1M18 4h1M21 4h1M23 4h2M8 5h1M10 5h1M14 5h1M18 5h1M22 5h1M24 5h1M7 6h1M11 6h1M14 6h1M18 6h1M21 6h1M25 6h1M5 7h1M7 7h1M11 7h1M14 7h1M18 7h1M21 7h1M25 7h1M27 7h1M4 8h1M6 8h1M8 8h1M12 8h1M14 8h1M18 8h1M20 8h1M24 8h1M26 8h1M28 8h1M4 9h1M6 9h1M8 9h1M12 9h2M15 9h1M17 9h1M19 9h2M24 9h1M26 9h1M28 9h1M4 10h1M7 10h1M9 10h1M12 10h1M14 10h5M20 10h1M23 10h1M25 10h1M28 10h1M5 11h1M8 11h1M10 11h2M16 11h1M21 11h2M24 11h1M27 11h1M5 12h1M8 12h1M11 12h1M16 12h1M21 12h1M24 12h1M27 12h1M5 13h2M8 13h1M11 13h1M16 13h1M21 13h1M24 13h1M26 13h2M7 14h2M12 14h1M16 14h1M20 14h1M24 14h2M8 15h2M12 15h1M16 15h1M20 15h1M23 15h2M9 16h1M12 16h1M14 16h5M20 16h1M23 16h1M10 17h1M12 17h3M16 17h1M18 17h3M22 17h1M10 18h4M16 18h1M19 18h4M11 19h1M13 19h1M16 19h1M19 19h1M21 19h1M11 20h1M13 20h1M16 20h1M19 20h1M21 20h1M12 21h1M14 21h1M16 21h1M18 21h1M20 21h1M12 22h1M14 22h1M16 22h1M18 22h1M20 22h1M12 23h9M12 24h1M20 24h1M12 25h9M12 26h1M20 26h1M12 27h1M20 27h1M12 28h1M20 28h1M13 29h1M19 29h1M14 30h5" />
<path stroke="#ffffff" d="M16 2h1M15 3h3M15 4h3M9 5h1M15 5h3M23 5h1M8 6h3M15 6h3M22 6h3M8 7h3M15 7h3M22 7h3M5 8h1M9 8h3M15 8h3M21 8h3M27 8h1M5 9h1M9 9h3M16 9h1M21 9h3M27 9h1M5 10h2M10 10h2M21 10h2M26 10h2M6 11h2M25 11h2M6 12h2M25 12h2M7 13h1M25 13h1M14 15h2M17 15h2M13 16h1M19 16h1M11 17h1M21 17h1M14 19h2M17 19h2M12 20h1M20 20h1M13 26h7M13 27h7M13 28h7M14 29h5" />
<path stroke="#c0c0c0" d="M12 3h1M20 3h1M12 4h2M19 4h2M11 5h3M19 5h3M12 6h2M19 6h2M12 7h2M19 7h2M7 8h1M13 8h1M19 8h1M25 8h1M7 9h1M14 9h1M18 9h1M25 9h1M8 10h1M24 10h1M9 11h1M23 11h1M9 12h1M23 12h1M9 13h1M23 13h1M13 24h7" />
</svg>