<svg width="35" height="35" viewBox="0 0 35 35" fill="none" xmlns="http://www.w3.org/2000/svg">
<path d="M11.0005 31.5C4.98322 36.4861 -1.51429 28.6952 3.5002 24.7064L6.50003 21L12.7059 2C14.9465 2.33754 17.5456 3.03301 19.3236 3.76471C21.7133 4.74821 23.8618 6.3058 25.5 7.73529C27.3346 9.33603 29.3321 12.1574 30.353 13.9118C31.7498 16.3122 32.8252 18.7915 33 20.5294L14.5 28.5L11.0005 31.5Z" fill="white"/>
<path d="M3.5002 24.7064C-1.51429 28.6952 4.98322 36.4861 11.0005 31.5M3.5002 24.7064L11.0005 31.5M3.5002 24.7064L6.50003 21M11.0005 31.5L14.5 28.5M14.5 28.5L33 20.5294C32.8252 18.7915 31.7498 16.3122 30.353 13.9118M14.5 28.5L12.5 26.5M6.50003 21L12.7059 2C14.9465 2.33754 17.5456 3.03301 19.3236 3.76471M6.50003 21L8.50003 23M10.4235 24.7064L25.5 7.73529M10.4235 24.7064L12.5 26.5M10.4235 24.7064L8.50003 23M25.5 7.73529C27.3346 9.33603 29.3321 12.1574 30.353 13.9118M25.5 7.73529C23.8618 6.3058 21.7133 4.74821 19.3236 3.76471M12.5 26.5L30.353 13.9118M8.50003 23L19.3236 3.76471" stroke="black" stroke-width="3"/>
</svg>
