<svg xmlns="http://www.w3.org/2000/svg" viewBox="0 -0.5 32 32" shape-rendering="crispEdges">
<metadata>Made with Pixels to Svg https://codepen.io/shshaw/pen/XbxvNj</metadata>
<path stroke="#000000" d="M24 2h1M5 3h1M23 3h3M5 4h3M22 4h2M26 4h1M4 5h1M7 5h1M21 5h2M24 5h1M26 5h1M4 6h1M6 6h1M8 6h1M13 6h9M23 6h2M26 6h1M4 7h1M6 7h2M9 7h4M23 7h2M26 7h1M4 8h1M6 8h2M26 8h1M4 9h1M26 9h1M4 10h1M27 10h1M4 11h1M9 11h2M19 11h2M27 11h1M5 12h1M9 12h3M19 12h3M26 12h5M1 13h7M10 13h2M20 13h2M27 13h1M5 14h1M27 14h1M5 15h1M17 15h3M26 15h5M1 16h8M18 16h1M27 16h1M5 17h1M14 17h1M17 17h3M22 17h1M27 17h1M5 18h1M14 18h4M19 18h4M27 18h1M2 19h8M16 19h1M20 19h1M26 19h5M4 20h1M16 20h1M20 20h1M28 20h1M4 21h1M16 21h5M28 21h1M4 22h1M28 22h1M4 23h1M26 23h3M4 24h4M25 24h4M4 25h1M8 25h17M27 25h1M4 26h2M26 26h2M6 27h20" />
<path stroke="#c57a23" d="M24 4h1M5 5h1M23 5h1M5 6h1M22 6h1M5 7h1M21 7h2M5 8h1M21 8h2M5 9h1M5 10h1M5 11h1M8 13h1M6 14h3M6 15h4M9 16h1M6 17h6M6 18h8M10 19h4M5 20h10M5 21h11M5 22h7M5 23h6M8 24h1" />
<path stroke="#fba741" d="M25 4h1M6 5h1M25 5h1M7 6h1M25 6h1M8 7h1M13 7h1M20 7h1M25 7h1M8 8h6M19 8h2M25 8h1M8 9h7M19 9h7M6 10h9M18 10h9M6 11h3M12 11h3M18 11h1M22 11h5M6 12h3M12 12h7M22 12h4M9 13h1M12 13h8M22 13h5M9 14h18M10 15h7M20 15h6M10 16h4M17 16h1M19 16h1M23 16h4M12 17h2M23 17h4M23 18h4M14 19h2M21 19h5M15 20h1M21 20h7M21 21h7M24 22h4" />
<path stroke="#fff3d0" d="M14 7h6M14 8h5M23 8h2M6 9h2M15 9h4M15 10h3M15 11h3M14 16h3M20 16h3M15 17h2M20 17h2M19 22h5M21 23h5M18 26h2" />
<path stroke="#ffffff" d="M11 11h1M21 11h1" />
<path stroke="#ee2646" d="M18 18h1M17 19h3M17 20h3M25 25h2M12 26h1M24 26h2" />
<path stroke="#d9b385" d="M12 22h7M11 23h10M9 24h16" />
<path stroke="#ba1332" d="M5 25h3M6 26h6M13 26h5M20 26h4" />
</svg>