<svg width="240" height="241" viewBox="0 0 240 241" fill="none" xmlns="http://www.w3.org/2000/svg">
<g filter="url(#filter0_d_2783_43889)">
<rect width="174" height="178" transform="translate(36 33)" fill="#14AAEB" fill-opacity="0.9"/>
</g>
<rect x="24" y="58" width="12" height="153" fill="#14AAEB" fill-opacity="0.9"/>
<path d="M31.875 15.9375H35.625ZM50.625 15.9375H54.375ZM31.875 17.8125H37.5ZM48.75 17.8125H54.375ZM31.875 19.6875H33.75ZM37.5 19.6875H39.375ZM46.875 19.6875H48.75ZM52.5 19.6875H54.375ZM31.875 21.5625H33.75ZM37.5 21.5625H46.875ZM52.5 21.5625H56.25ZM24.375 23.4375H33.75ZM54.375 23.4375H206.25ZM15 25.3125H16.875ZM22.5 25.3125H26.25ZM60 25.3125H63.75ZM204.375 25.3125H211.875ZM15 27.1875H24.375ZM30 27.1875H33.75ZM41.25 27.1875H46.875ZM52.5 27.1875H61.875ZM210 27.1875H215.625ZM20.625 29.0625H22.5ZM61.875 29.0625H67.5ZM213.75 29.0625H217.5ZM15 30.9375H22.5ZM28.125 30.9375H31.875ZM33.75 30.9375H35.625ZM39.375 30.9375H43.125ZM56.25 30.9375H63.75ZM215.625 30.9375H219.375ZM13.125 32.8125H16.875ZM20.625 32.8125H24.375ZM30 32.8125H41.25ZM48.75 32.8125H56.25ZM217.5 32.8125H219.375ZM16.875 34.6875H26.25ZM54.375 34.6875H58.125ZM217.5 34.6875H221.25ZM15 36.5625H18.75ZM24.375 36.5625H54.375ZM58.125 36.5625H95.625ZM99.375 36.5625H200.625ZM219.375 36.5625H221.25ZM52.5 38.4375H54.375ZM56.25 38.4375H60ZM93.75 38.4375H95.625ZM97.5 38.4375H101.25ZM198.75 38.4375H204.375ZM219.375 38.4375H221.25ZM52.5 40.3125H54.375ZM56.25 40.3125H58.125ZM93.75 40.3125H95.625ZM97.5 40.3125H99.375ZM202.5 40.3125H206.25ZM219.375 40.3125H221.25ZM52.5 42.1875H54.375ZM56.25 42.1875H58.125ZM93.75 42.1875H95.625ZM97.5 42.1875H99.375ZM204.375 42.1875H206.25ZM219.375 42.1875H221.25ZM52.5 44.0625H58.125ZM93.75 44.0625H99.375ZM204.375 44.0625H208.125ZM219.375 44.0625H221.25ZM206.25 45.9375H208.125ZM219.375 45.9375H221.25ZM33.75 47.8125H39.375ZM206.25 47.8125H208.125ZM219.375 47.8125H221.25ZM33.75 49.6875H35.625ZM37.5 49.6875H39.375ZM206.25 49.6875H208.125ZM219.375 49.6875H221.25ZM33.75 51.5625H35.625ZM37.5 51.5625H39.375ZM206.25 51.5625H208.125ZM219.375 51.5625H221.25ZM33.75 53.4375H35.625ZM37.5 53.4375H39.375ZM206.25 53.4375H208.125ZM219.375 53.4375H221.25ZM33.75 55.3125H35.625ZM37.5 55.3125H39.375ZM206.25 55.3125H208.125ZM219.375 55.3125H221.25ZM33.75 57.1875H35.625ZM37.5 57.1875H39.375ZM206.25 57.1875H208.125ZM219.375 57.1875H221.25ZM22.5 59.0625H35.625ZM37.5 59.0625H39.375ZM206.25 59.0625H208.125ZM219.375 59.0625H221.25ZM22.5 60.9375H24.375ZM37.5 60.9375H39.375ZM206.25 60.9375H208.125ZM219.375 60.9375H221.25ZM22.5 62.8125H24.375ZM26.25 62.8125H39.375ZM206.25 62.8125H208.125ZM219.375 62.8125H221.25ZM22.5 64.6875H24.375ZM26.25 64.6875H28.125ZM206.25 64.6875H208.125ZM219.375 64.6875H221.25ZM22.5 66.5625H24.375ZM26.25 66.5625H28.125ZM206.25 66.5625H208.125ZM219.375 66.5625H221.25ZM22.5 68.4375H24.375ZM26.25 68.4375H28.125ZM206.25 68.4375H208.125ZM219.375 68.4375H221.25ZM22.5 70.3125H24.375ZM26.25 70.3125H28.125ZM206.25 70.3125H208.125ZM219.375 70.3125H221.25ZM22.5 72.1875H24.375ZM26.25 72.1875H28.125ZM206.25 72.1875H208.125ZM219.375 72.1875H221.25ZM22.5 74.0625H24.375ZM26.25 74.0625H28.125ZM206.25 74.0625H208.125ZM219.375 74.0625H221.25ZM22.5 75.9375H24.375ZM26.25 75.9375H28.125ZM206.25 75.9375H208.125ZM219.375 75.9375H221.25ZM22.5 77.8125H24.375ZM26.25 77.8125H28.125ZM206.25 77.8125H208.125ZM219.375 77.8125H221.25ZM22.5 79.6875H24.375ZM26.25 79.6875H28.125ZM206.25 79.6875H208.125ZM219.375 79.6875H221.25ZM22.5 81.5625H24.375ZM26.25 81.5625H28.125ZM206.25 81.5625H208.125ZM219.375 81.5625H221.25ZM22.5 83.4375H24.375ZM26.25 83.4375H28.125ZM206.25 83.4375H208.125ZM219.375 83.4375H221.25ZM22.5 85.3125H24.375ZM26.25 85.3125H28.125ZM206.25 85.3125H208.125ZM219.375 85.3125H221.25ZM22.5 87.1875H24.375ZM26.25 87.1875H28.125ZM206.25 87.1875H208.125ZM219.375 87.1875H221.25ZM22.5 89.0625H24.375ZM26.25 89.0625H28.125ZM206.25 89.0625H208.125ZM219.375 89.0625H221.25ZM22.5 90.9375H24.375ZM26.25 90.9375H28.125ZM206.25 90.9375H208.125ZM219.375 90.9375H221.25ZM22.5 92.8125H24.375ZM26.25 92.8125H28.125ZM206.25 92.8125H208.125ZM219.375 92.8125H221.25ZM22.5 94.6875H24.375ZM26.25 94.6875H28.125ZM206.25 94.6875H208.125ZM219.375 94.6875H221.25ZM22.5 96.5625H24.375ZM26.25 96.5625H28.125ZM206.25 96.5625H208.125ZM219.375 96.5625H221.25ZM22.5 98.4375H24.375ZM26.25 98.4375H28.125ZM206.25 98.4375H208.125ZM219.375 98.4375H221.25ZM22.5 100.312H24.375ZM26.25 100.312H28.125ZM206.25 100.312H208.125ZM219.375 100.312H221.25ZM22.5 102.188H24.375ZM26.25 102.188H28.125ZM206.25 102.188H208.125ZM219.375 102.188H221.25ZM22.5 104.062H24.375ZM26.25 104.062H28.125ZM206.25 104.062H208.125ZM219.375 104.062H221.25ZM22.5 105.938H24.375ZM26.25 105.938H28.125ZM206.25 105.938H208.125ZM219.375 105.938H221.25ZM22.5 107.812H24.375ZM26.25 107.812H28.125ZM206.25 107.812H208.125ZM219.375 107.812H221.25ZM22.5 109.688H24.375ZM26.25 109.688H28.125ZM206.25 109.688H208.125ZM219.375 109.688H221.25ZM22.5 111.562H24.375ZM26.25 111.562H28.125ZM206.25 111.562H208.125ZM219.375 111.562H221.25ZM22.5 113.438H24.375ZM26.25 113.438H28.125ZM206.25 113.438H208.125ZM219.375 113.438H221.25ZM22.5 115.312H24.375ZM26.25 115.312H28.125ZM206.25 115.312H208.125ZM219.375 115.312H221.25ZM22.5 117.188H24.375ZM26.25 117.188H28.125ZM206.25 117.188H208.125ZM219.375 117.188H221.25ZM22.5 119.062H24.375ZM26.25 119.062H28.125ZM206.25 119.062H208.125ZM219.375 119.062H221.25ZM22.5 120.938H24.375ZM26.25 120.938H28.125ZM206.25 120.938H208.125ZM219.375 120.938H221.25ZM22.5 122.812H24.375ZM26.25 122.812H28.125ZM206.25 122.812H208.125ZM219.375 122.812H221.25ZM22.5 124.688H24.375ZM26.25 124.688H28.125ZM206.25 124.688H208.125ZM219.375 124.688H221.25ZM22.5 126.562H24.375ZM26.25 126.562H28.125ZM206.25 126.562H208.125ZM219.375 126.562H221.25ZM22.5 128.438H24.375ZM26.25 128.438H28.125ZM206.25 128.438H208.125ZM219.375 128.438H221.25ZM22.5 130.312H24.375ZM26.25 130.312H28.125ZM206.25 130.312H208.125ZM219.375 130.312H221.25ZM22.5 132.188H24.375ZM26.25 132.188H28.125ZM206.25 132.188H208.125ZM219.375 132.188H221.25ZM22.5 134.062H24.375ZM26.25 134.062H28.125ZM206.25 134.062H208.125ZM219.375 134.062H221.25ZM22.5 135.938H24.375ZM26.25 135.938H28.125ZM206.25 135.938H208.125ZM219.375 135.938H221.25ZM22.5 137.812H24.375ZM26.25 137.812H28.125ZM206.25 137.812H208.125ZM219.375 137.812H221.25ZM22.5 139.688H24.375ZM26.25 139.688H28.125ZM206.25 139.688H208.125ZM219.375 139.688H221.25ZM22.5 141.562H24.375ZM26.25 141.562H28.125ZM206.25 141.562H208.125ZM219.375 141.562H221.25ZM22.5 143.438H24.375ZM26.25 143.438H28.125ZM206.25 143.438H208.125ZM219.375 143.438H221.25ZM22.5 145.312H24.375ZM26.25 145.312H28.125ZM206.25 145.312H208.125ZM219.375 145.312H221.25ZM22.5 147.188H24.375ZM26.25 147.188H28.125ZM206.25 147.188H208.125ZM219.375 147.188H221.25ZM22.5 149.062H24.375ZM26.25 149.062H28.125ZM206.25 149.062H208.125ZM219.375 149.062H221.25ZM22.5 150.938H24.375ZM26.25 150.938H28.125ZM206.25 150.938H208.125ZM219.375 150.938H221.25ZM22.5 152.812H24.375ZM26.25 152.812H28.125ZM206.25 152.812H208.125ZM219.375 152.812H221.25ZM22.5 154.688H24.375ZM26.25 154.688H28.125ZM206.25 154.688H208.125ZM219.375 154.688H221.25ZM22.5 156.562H24.375ZM26.25 156.562H28.125ZM206.25 156.562H208.125ZM219.375 156.562H221.25ZM22.5 158.438H24.375ZM26.25 158.438H28.125ZM206.25 158.438H208.125ZM219.375 158.438H221.25ZM22.5 160.312H24.375ZM26.25 160.312H28.125ZM206.25 160.312H208.125ZM219.375 160.312H221.25ZM22.5 162.188H24.375ZM26.25 162.188H28.125ZM206.25 162.188H208.125ZM219.375 162.188H221.25ZM22.5 164.062H24.375ZM26.25 164.062H28.125ZM206.25 164.062H208.125ZM219.375 164.062H221.25ZM22.5 165.938H24.375ZM26.25 165.938H28.125ZM206.25 165.938H208.125ZM219.375 165.938H221.25ZM22.5 167.812H24.375ZM26.25 167.812H28.125ZM206.25 167.812H208.125ZM219.375 167.812H221.25ZM22.5 169.688H24.375ZM26.25 169.688H28.125ZM206.25 169.688H208.125ZM219.375 169.688H221.25ZM22.5 171.562H24.375ZM26.25 171.562H28.125ZM206.25 171.562H208.125ZM219.375 171.562H221.25ZM22.5 173.438H24.375ZM26.25 173.438H28.125ZM206.25 173.438H208.125ZM219.375 173.438H221.25ZM22.5 175.312H24.375ZM26.25 175.312H28.125ZM206.25 175.312H208.125ZM219.375 175.312H221.25ZM22.5 177.188H24.375ZM26.25 177.188H28.125ZM206.25 177.188H208.125ZM219.375 177.188H221.25ZM22.5 179.062H24.375ZM26.25 179.062H28.125ZM206.25 179.062H208.125ZM219.375 179.062H221.25ZM22.5 180.938H24.375ZM26.25 180.938H28.125ZM206.25 180.938H208.125ZM219.375 180.938H221.25ZM22.5 182.812H24.375ZM26.25 182.812H28.125ZM206.25 182.812H208.125ZM219.375 182.812H221.25ZM22.5 184.688H24.375ZM26.25 184.688H28.125ZM206.25 184.688H208.125ZM219.375 184.688H221.25ZM22.5 186.562H24.375ZM26.25 186.562H28.125ZM206.25 186.562H208.125ZM219.375 186.562H221.25ZM22.5 188.438H24.375ZM26.25 188.438H28.125ZM206.25 188.438H208.125ZM219.375 188.438H221.25ZM22.5 190.312H24.375ZM26.25 190.312H28.125ZM206.25 190.312H208.125ZM219.375 190.312H221.25ZM22.5 192.188H24.375ZM26.25 192.188H28.125ZM206.25 192.188H208.125ZM219.375 192.188H221.25ZM22.5 194.062H24.375ZM26.25 194.062H28.125ZM206.25 194.062H208.125ZM219.375 194.062H221.25ZM22.5 195.938H24.375ZM26.25 195.938H28.125ZM206.25 195.938H208.125ZM219.375 195.938H221.25ZM22.5 197.812H24.375ZM26.25 197.812H28.125ZM204.375 197.812H208.125ZM219.375 197.812H221.25ZM22.5 199.688H24.375ZM26.25 199.688H28.125ZM71.25 199.688H76.875ZM116.25 199.688H121.875ZM202.5 199.688H206.25ZM219.375 199.688H221.25ZM22.5 201.562H24.375ZM26.25 201.562H28.125ZM71.25 201.562H73.125ZM75 201.562H76.875ZM116.25 201.562H118.125ZM120 201.562H121.875ZM202.5 201.562H204.375ZM219.375 201.562H221.25ZM22.5 203.438H24.375ZM26.25 203.438H28.125ZM69.375 203.438H73.125ZM75 203.438H76.875ZM114.375 203.438H118.125ZM120 203.438H121.875ZM198.75 203.438H204.375ZM219.375 203.438H221.25ZM22.5 205.312H24.375ZM26.25 205.312H28.125ZM69.375 205.312H71.25ZM75 205.312H76.875ZM114.375 205.312H116.25ZM120 205.312H121.875ZM195 205.312H200.625ZM217.5 205.312H221.25ZM22.5 207.188H24.375ZM26.25 207.188H28.125ZM30 207.188H71.25ZM75 207.188H116.25ZM120 207.188H196.875ZM217.5 207.188H219.375ZM22.5 209.062H24.375ZM26.25 209.062H28.125ZM30 209.062H31.875ZM215.625 209.062H219.375ZM22.5 210.938H24.375ZM26.25 210.938H31.875ZM215.625 210.938H217.5ZM22.5 212.812H24.375ZM213.75 212.812H215.625ZM22.5 214.688H24.375ZM211.875 214.688H215.625ZM22.5 216.562H28.125ZM210 216.562H213.75ZM26.25 218.438H28.125ZM206.25 218.438H210ZM26.25 220.312H28.125ZM202.5 220.312H206.25ZM26.25 222.188H204.375Z" fill="black"/>
<path d="M31.875 15.9375H35.625M50.625 15.9375H54.375M31.875 17.8125H37.5M48.75 17.8125H54.375M31.875 19.6875H33.75M37.5 19.6875H39.375M46.875 19.6875H48.75M52.5 19.6875H54.375M31.875 21.5625H33.75M37.5 21.5625H46.875M52.5 21.5625H56.25M24.375 23.4375H33.75M54.375 23.4375H206.25M15 25.3125H16.875M22.5 25.3125H26.25M60 25.3125H63.75M204.375 25.3125H211.875M15 27.1875H24.375M30 27.1875H33.75M41.25 27.1875H46.875M52.5 27.1875H61.875M210 27.1875H215.625M20.625 29.0625H22.5M61.875 29.0625H67.5M213.75 29.0625H217.5M15 30.9375H22.5M28.125 30.9375H31.875M33.75 30.9375H35.625M39.375 30.9375H43.125M56.25 30.9375H63.75M215.625 30.9375H219.375M13.125 32.8125H16.875M20.625 32.8125H24.375M30 32.8125H41.25M48.75 32.8125H56.25M217.5 32.8125H219.375M16.875 34.6875H26.25M54.375 34.6875H58.125M217.5 34.6875H221.25M15 36.5625H18.75M24.375 36.5625H54.375M58.125 36.5625H95.625M99.375 36.5625H200.625M219.375 36.5625H221.25M52.5 38.4375H54.375M56.25 38.4375H60M93.75 38.4375H95.625M97.5 38.4375H101.25M198.75 38.4375H204.375M219.375 38.4375H221.25M52.5 40.3125H54.375M56.25 40.3125H58.125M93.75 40.3125H95.625M97.5 40.3125H99.375M202.5 40.3125H206.25M219.375 40.3125H221.25M52.5 42.1875H54.375M56.25 42.1875H58.125M93.75 42.1875H95.625M97.5 42.1875H99.375M204.375 42.1875H206.25M219.375 42.1875H221.25M52.5 44.0625H58.125M93.75 44.0625H99.375M204.375 44.0625H208.125M219.375 44.0625H221.25M206.25 45.9375H208.125M219.375 45.9375H221.25M33.75 47.8125H39.375M206.25 47.8125H208.125M219.375 47.8125H221.25M33.75 49.6875H35.625M37.5 49.6875H39.375M206.25 49.6875H208.125M219.375 49.6875H221.25M33.75 51.5625H35.625M37.5 51.5625H39.375M206.25 51.5625H208.125M219.375 51.5625H221.25M33.75 53.4375H35.625M37.5 53.4375H39.375M206.25 53.4375H208.125M219.375 53.4375H221.25M33.75 55.3125H35.625M37.5 55.3125H39.375M206.25 55.3125H208.125M219.375 55.3125H221.25M33.75 57.1875H35.625M37.5 57.1875H39.375M206.25 57.1875H208.125M219.375 57.1875H221.25M22.5 59.0625H35.625M37.5 59.0625H39.375M206.25 59.0625H208.125M219.375 59.0625H221.25M22.5 60.9375H24.375M37.5 60.9375H39.375M206.25 60.9375H208.125M219.375 60.9375H221.25M22.5 62.8125H24.375M26.25 62.8125H39.375M206.25 62.8125H208.125M219.375 62.8125H221.25M22.5 64.6875H24.375M26.25 64.6875H28.125M206.25 64.6875H208.125M219.375 64.6875H221.25M22.5 66.5625H24.375M26.25 66.5625H28.125M206.25 66.5625H208.125M219.375 66.5625H221.25M22.5 68.4375H24.375M26.25 68.4375H28.125M206.25 68.4375H208.125M219.375 68.4375H221.25M22.5 70.3125H24.375M26.25 70.3125H28.125M206.25 70.3125H208.125M219.375 70.3125H221.25M22.5 72.1875H24.375M26.25 72.1875H28.125M206.25 72.1875H208.125M219.375 72.1875H221.25M22.5 74.0625H24.375M26.25 74.0625H28.125M206.25 74.0625H208.125M219.375 74.0625H221.25M22.5 75.9375H24.375M26.25 75.9375H28.125M206.25 75.9375H208.125M219.375 75.9375H221.25M22.5 77.8125H24.375M26.25 77.8125H28.125M206.25 77.8125H208.125M219.375 77.8125H221.25M22.5 79.6875H24.375M26.25 79.6875H28.125M206.25 79.6875H208.125M219.375 79.6875H221.25M22.5 81.5625H24.375M26.25 81.5625H28.125M206.25 81.5625H208.125M219.375 81.5625H221.25M22.5 83.4375H24.375M26.25 83.4375H28.125M206.25 83.4375H208.125M219.375 83.4375H221.25M22.5 85.3125H24.375M26.25 85.3125H28.125M206.25 85.3125H208.125M219.375 85.3125H221.25M22.5 87.1875H24.375M26.25 87.1875H28.125M206.25 87.1875H208.125M219.375 87.1875H221.25M22.5 89.0625H24.375M26.25 89.0625H28.125M206.25 89.0625H208.125M219.375 89.0625H221.25M22.5 90.9375H24.375M26.25 90.9375H28.125M206.25 90.9375H208.125M219.375 90.9375H221.25M22.5 92.8125H24.375M26.25 92.8125H28.125M206.25 92.8125H208.125M219.375 92.8125H221.25M22.5 94.6875H24.375M26.25 94.6875H28.125M206.25 94.6875H208.125M219.375 94.6875H221.25M22.5 96.5625H24.375M26.25 96.5625H28.125M206.25 96.5625H208.125M219.375 96.5625H221.25M22.5 98.4375H24.375M26.25 98.4375H28.125M206.25 98.4375H208.125M219.375 98.4375H221.25M22.5 100.312H24.375M26.25 100.312H28.125M206.25 100.312H208.125M219.375 100.312H221.25M22.5 102.188H24.375M26.25 102.188H28.125M206.25 102.188H208.125M219.375 102.188H221.25M22.5 104.062H24.375M26.25 104.062H28.125M206.25 104.062H208.125M219.375 104.062H221.25M22.5 105.938H24.375M26.25 105.938H28.125M206.25 105.938H208.125M219.375 105.938H221.25M22.5 107.812H24.375M26.25 107.812H28.125M206.25 107.812H208.125M219.375 107.812H221.25M22.5 109.688H24.375M26.25 109.688H28.125M206.25 109.688H208.125M219.375 109.688H221.25M22.5 111.562H24.375M26.25 111.562H28.125M206.25 111.562H208.125M219.375 111.562H221.25M22.5 113.438H24.375M26.25 113.438H28.125M206.25 113.438H208.125M219.375 113.438H221.25M22.5 115.312H24.375M26.25 115.312H28.125M206.25 115.312H208.125M219.375 115.312H221.25M22.5 117.188H24.375M26.25 117.188H28.125M206.25 117.188H208.125M219.375 117.188H221.25M22.5 119.062H24.375M26.25 119.062H28.125M206.25 119.062H208.125M219.375 119.062H221.25M22.5 120.938H24.375M26.25 120.938H28.125M206.25 120.938H208.125M219.375 120.938H221.25M22.5 122.812H24.375M26.25 122.812H28.125M206.25 122.812H208.125M219.375 122.812H221.25M22.5 124.688H24.375M26.25 124.688H28.125M206.25 124.688H208.125M219.375 124.688H221.25M22.5 126.562H24.375M26.25 126.562H28.125M206.25 126.562H208.125M219.375 126.562H221.25M22.5 128.438H24.375M26.25 128.438H28.125M206.25 128.438H208.125M219.375 128.438H221.25M22.5 130.312H24.375M26.25 130.312H28.125M206.25 130.312H208.125M219.375 130.312H221.25M22.5 132.188H24.375M26.25 132.188H28.125M206.25 132.188H208.125M219.375 132.188H221.25M22.5 134.062H24.375M26.25 134.062H28.125M206.25 134.062H208.125M219.375 134.062H221.25M22.5 135.938H24.375M26.25 135.938H28.125M206.25 135.938H208.125M219.375 135.938H221.25M22.5 137.812H24.375M26.25 137.812H28.125M206.25 137.812H208.125M219.375 137.812H221.25M22.5 139.688H24.375M26.25 139.688H28.125M206.25 139.688H208.125M219.375 139.688H221.25M22.5 141.562H24.375M26.25 141.562H28.125M206.25 141.562H208.125M219.375 141.562H221.25M22.5 143.438H24.375M26.25 143.438H28.125M206.25 143.438H208.125M219.375 143.438H221.25M22.5 145.312H24.375M26.25 145.312H28.125M206.25 145.312H208.125M219.375 145.312H221.25M22.5 147.188H24.375M26.25 147.188H28.125M206.25 147.188H208.125M219.375 147.188H221.25M22.5 149.062H24.375M26.25 149.062H28.125M206.25 149.062H208.125M219.375 149.062H221.25M22.5 150.938H24.375M26.25 150.938H28.125M206.25 150.938H208.125M219.375 150.938H221.25M22.5 152.812H24.375M26.25 152.812H28.125M206.25 152.812H208.125M219.375 152.812H221.25M22.5 154.688H24.375M26.25 154.688H28.125M206.25 154.688H208.125M219.375 154.688H221.25M22.5 156.562H24.375M26.25 156.562H28.125M206.25 156.562H208.125M219.375 156.562H221.25M22.5 158.438H24.375M26.25 158.438H28.125M206.25 158.438H208.125M219.375 158.438H221.25M22.5 160.312H24.375M26.25 160.312H28.125M206.25 160.312H208.125M219.375 160.312H221.25M22.5 162.188H24.375M26.25 162.188H28.125M206.25 162.188H208.125M219.375 162.188H221.25M22.5 164.062H24.375M26.25 164.062H28.125M206.25 164.062H208.125M219.375 164.062H221.25M22.5 165.938H24.375M26.25 165.938H28.125M206.25 165.938H208.125M219.375 165.938H221.25M22.5 167.812H24.375M26.25 167.812H28.125M206.25 167.812H208.125M219.375 167.812H221.25M22.5 169.688H24.375M26.25 169.688H28.125M206.25 169.688H208.125M219.375 169.688H221.25M22.5 171.562H24.375M26.25 171.562H28.125M206.25 171.562H208.125M219.375 171.562H221.25M22.5 173.438H24.375M26.25 173.438H28.125M206.25 173.438H208.125M219.375 173.438H221.25M22.5 175.312H24.375M26.25 175.312H28.125M206.25 175.312H208.125M219.375 175.312H221.25M22.5 177.188H24.375M26.25 177.188H28.125M206.25 177.188H208.125M219.375 177.188H221.25M22.5 179.062H24.375M26.25 179.062H28.125M206.25 179.062H208.125M219.375 179.062H221.25M22.5 180.938H24.375M26.25 180.938H28.125M206.25 180.938H208.125M219.375 180.938H221.25M22.5 182.812H24.375M26.25 182.812H28.125M206.25 182.812H208.125M219.375 182.812H221.25M22.5 184.688H24.375M26.25 184.688H28.125M206.25 184.688H208.125M219.375 184.688H221.25M22.5 186.562H24.375M26.25 186.562H28.125M206.25 186.562H208.125M219.375 186.562H221.25M22.5 188.438H24.375M26.25 188.438H28.125M206.25 188.438H208.125M219.375 188.438H221.25M22.5 190.312H24.375M26.25 190.312H28.125M206.25 190.312H208.125M219.375 190.312H221.25M22.5 192.188H24.375M26.25 192.188H28.125M206.25 192.188H208.125M219.375 192.188H221.25M22.5 194.062H24.375M26.25 194.062H28.125M206.25 194.062H208.125M219.375 194.062H221.25M22.5 195.938H24.375M26.25 195.938H28.125M206.25 195.938H208.125M219.375 195.938H221.25M22.5 197.812H24.375M26.25 197.812H28.125M204.375 197.812H208.125M219.375 197.812H221.25M22.5 199.688H24.375M26.25 199.688H28.125M71.25 199.688H76.875M116.25 199.688H121.875M202.5 199.688H206.25M219.375 199.688H221.25M22.5 201.562H24.375M26.25 201.562H28.125M71.25 201.562H73.125M75 201.562H76.875M116.25 201.562H118.125M120 201.562H121.875M202.5 201.562H204.375M219.375 201.562H221.25M22.5 203.438H24.375M26.25 203.438H28.125M69.375 203.438H73.125M75 203.438H76.875M114.375 203.438H118.125M120 203.438H121.875M198.75 203.438H204.375M219.375 203.438H221.25M22.5 205.312H24.375M26.25 205.312H28.125M69.375 205.312H71.25M75 205.312H76.875M114.375 205.312H116.25M120 205.312H121.875M195 205.312H200.625M217.5 205.312H221.25M22.5 207.188H24.375M26.25 207.188H28.125M30 207.188H71.25M75 207.188H116.25M120 207.188H196.875M217.5 207.188H219.375M22.5 209.062H24.375M26.25 209.062H28.125M30 209.062H31.875M215.625 209.062H219.375M22.5 210.938H24.375M26.25 210.938H31.875M215.625 210.938H217.5M22.5 212.812H24.375M213.75 212.812H215.625M22.5 214.688H24.375M211.875 214.688H215.625M22.5 216.562H28.125M210 216.562H213.75M26.25 218.438H28.125M206.25 218.438H210M26.25 220.312H28.125M202.5 220.312H206.25M26.25 222.188H204.375" stroke="black" stroke-width="2"/>
<path d="M33.75 19.6875H35.625ZM50.625 19.6875H52.5ZM33.75 21.5625H35.625ZM76.875 25.3125H86.25ZM121.875 25.3125H135ZM148.125 25.3125H159.375ZM172.5 25.3125H185.625ZM211.875 25.3125H213.75ZM76.875 27.1875H80.625ZM121.875 27.1875H131.25ZM148.125 27.1875H155.625ZM172.5 27.1875H180ZM210 29.0625H213.75ZM31.875 30.9375H33.75ZM37.5 30.9375H39.375ZM211.875 30.9375H215.625ZM213.75 32.8125H217.5ZM213.75 34.6875H217.5ZM213.75 36.5625H219.375ZM215.625 38.4375H219.375ZM217.5 40.3125H219.375ZM217.5 42.1875H219.375ZM217.5 44.0625H219.375ZM35.625 49.6875H37.5ZM35.625 51.5625H37.5ZM35.625 53.4375H37.5ZM35.625 59.0625H37.5ZM30 60.9375H37.5ZM217.5 83.4375H219.375ZM215.625 85.3125H219.375ZM213.75 87.1875H219.375ZM213.75 89.0625H219.375ZM213.75 90.9375H219.375ZM215.625 92.8125H219.375ZM215.625 94.6875H219.375ZM217.5 96.5625H219.375ZM217.5 98.4375H219.375ZM217.5 100.312H219.375ZM217.5 115.312H219.375ZM217.5 117.188H219.375ZM215.625 119.062H219.375ZM215.625 120.938H219.375ZM217.5 122.812H219.375ZM217.5 124.688H219.375ZM217.5 154.688H219.375ZM217.5 156.562H219.375ZM215.625 158.438H219.375ZM215.625 160.312H219.375ZM215.625 162.188H219.375ZM217.5 164.062H219.375ZM217.5 165.938H219.375ZM76.875 209.062H116.25ZM76.875 210.938H78.75ZM82.5 210.938H114.375ZM45 216.562H48.75ZM142.5 216.562H146.25ZM172.5 216.562H183.75Z" fill="black"/>
<path d="M33.75 19.6875H35.625M50.625 19.6875H52.5M33.75 21.5625H35.625M76.875 25.3125H86.25M121.875 25.3125H135M148.125 25.3125H159.375M172.5 25.3125H185.625M211.875 25.3125H213.75M76.875 27.1875H80.625M121.875 27.1875H131.25M148.125 27.1875H155.625M172.5 27.1875H180M210 29.0625H213.75M31.875 30.9375H33.75M37.5 30.9375H39.375M211.875 30.9375H215.625M213.75 32.8125H217.5M213.75 34.6875H217.5M213.75 36.5625H219.375M215.625 38.4375H219.375M217.5 40.3125H219.375M217.5 42.1875H219.375M217.5 44.0625H219.375M35.625 49.6875H37.5M35.625 51.5625H37.5M35.625 53.4375H37.5M35.625 59.0625H37.5M30 60.9375H37.5M217.5 83.4375H219.375M215.625 85.3125H219.375M213.75 87.1875H219.375M213.75 89.0625H219.375M213.75 90.9375H219.375M215.625 92.8125H219.375M215.625 94.6875H219.375M217.5 96.5625H219.375M217.5 98.4375H219.375M217.5 100.312H219.375M217.5 115.312H219.375M217.5 117.188H219.375M215.625 119.062H219.375M215.625 120.938H219.375M217.5 122.812H219.375M217.5 124.688H219.375M217.5 154.688H219.375M217.5 156.562H219.375M215.625 158.438H219.375M215.625 160.312H219.375M215.625 162.188H219.375M217.5 164.062H219.375M217.5 165.938H219.375M76.875 209.062H116.25M76.875 210.938H78.75M82.5 210.938H114.375M45 216.562H48.75M142.5 216.562H146.25M172.5 216.562H183.75" stroke="white" stroke-width="2"/>
<path d="M35.625 19.6875H37.5ZM48.75 19.6875H50.625ZM35.625 21.5625H37.5ZM46.875 21.5625H52.5ZM33.75 23.4375H54.375ZM26.25 25.3125H60ZM63.75 25.3125H76.875ZM86.25 25.3125H95.625ZM135 25.3125H148.125ZM159.375 25.3125H172.5ZM200.625 25.3125H204.375ZM24.375 27.1875H30ZM33.75 27.1875H41.25ZM46.875 27.1875H52.5ZM61.875 27.1875H76.875ZM80.625 27.1875H93.75ZM114.375 27.1875H121.875ZM131.25 27.1875H148.125ZM155.625 27.1875H172.5ZM180 27.1875H210ZM22.5 29.0625H61.875ZM67.5 29.0625H95.625ZM101.25 29.0625H103.125ZM105 29.0625H210ZM22.5 30.9375H28.125ZM35.625 30.9375H37.5ZM43.125 30.9375H56.25ZM63.75 30.9375H93.75ZM99.375 30.9375H211.875ZM26.25 32.8125H30ZM41.25 32.8125H48.75ZM56.25 32.8125H60ZM202.5 32.8125H213.75ZM204.375 34.6875H213.75ZM208.125 36.5625H213.75ZM208.125 38.4375H215.625ZM210 40.3125H217.5ZM210 42.1875H217.5ZM211.875 44.0625H217.5ZM211.875 45.9375H219.375ZM211.875 47.8125H219.375ZM211.875 49.6875H219.375ZM211.875 51.5625H219.375ZM211.875 53.4375H219.375ZM211.875 55.3125H219.375ZM211.875 57.1875H219.375ZM211.875 59.0625H219.375ZM211.875 60.9375H219.375ZM211.875 62.8125H219.375ZM211.875 64.6875H219.375ZM211.875 66.5625H219.375ZM24.375 68.4375H26.25ZM211.875 68.4375H219.375ZM24.375 70.3125H26.25ZM211.875 70.3125H219.375ZM24.375 72.1875H26.25ZM211.875 72.1875H219.375ZM24.375 74.0625H26.25ZM211.875 74.0625H219.375ZM24.375 75.9375H26.25ZM211.875 75.9375H219.375ZM211.875 77.8125H219.375ZM211.875 79.6875H219.375ZM211.875 81.5625H217.5ZM211.875 83.4375H217.5ZM211.875 85.3125H215.625ZM24.375 87.1875H26.25ZM211.875 87.1875H213.75ZM24.375 89.0625H26.25ZM211.875 89.0625H213.75ZM24.375 90.9375H26.25ZM211.875 90.9375H213.75ZM24.375 92.8125H26.25ZM211.875 92.8125H215.625ZM24.375 94.6875H26.25ZM211.875 94.6875H215.625ZM24.375 96.5625H26.25ZM211.875 96.5625H217.5ZM211.875 98.4375H217.5ZM211.875 100.312H217.5ZM211.875 102.188H219.375ZM211.875 104.062H219.375ZM211.875 105.938H219.375ZM24.375 107.812H26.25ZM211.875 107.812H219.375ZM24.375 109.688H26.25ZM211.875 109.688H219.375ZM24.375 111.562H26.25ZM211.875 111.562H219.375ZM24.375 113.438H26.25ZM211.875 113.438H219.375ZM24.375 115.312H26.25ZM211.875 115.312H217.5ZM24.375 117.188H26.25ZM211.875 117.188H217.5ZM24.375 119.062H26.25ZM211.875 119.062H215.625ZM24.375 120.938H26.25ZM211.875 120.938H215.625ZM24.375 122.812H26.25ZM211.875 122.812H217.5ZM211.875 124.688H217.5ZM211.875 126.562H219.375ZM211.875 128.438H219.375ZM211.875 130.312H219.375ZM211.875 132.188H219.375ZM24.375 134.062H26.25ZM211.875 134.062H219.375ZM24.375 135.938H26.25ZM211.875 135.938H219.375ZM24.375 137.812H26.25ZM211.875 137.812H219.375ZM24.375 139.688H26.25ZM211.875 139.688H219.375ZM24.375 141.562H26.25ZM211.875 141.562H217.5ZM24.375 143.438H26.25ZM211.875 143.438H217.5ZM24.375 145.312H26.25ZM211.875 145.312H217.5ZM24.375 147.188H26.25ZM211.875 147.188H217.5ZM24.375 149.062H26.25ZM211.875 149.062H217.5ZM211.875 150.938H217.5ZM211.875 152.812H217.5ZM211.875 154.688H217.5ZM211.875 156.562H217.5ZM211.875 158.438H215.625ZM24.375 160.312H26.25ZM211.875 160.312H215.625ZM24.375 162.188H26.25ZM211.875 162.188H215.625ZM24.375 164.062H26.25ZM211.875 164.062H217.5ZM24.375 165.938H26.25ZM211.875 165.938H217.5ZM24.375 167.812H26.25ZM211.875 167.812H217.5ZM24.375 169.688H26.25ZM211.875 169.688H217.5ZM24.375 171.562H26.25ZM211.875 171.562H219.375ZM211.875 173.438H219.375ZM211.875 175.312H219.375ZM211.875 177.188H219.375ZM211.875 179.062H219.375ZM211.875 180.938H219.375ZM211.875 182.812H219.375ZM211.875 184.688H219.375ZM211.875 186.562H219.375ZM211.875 188.438H219.375ZM211.875 190.312H219.375ZM211.875 192.188H219.375ZM211.875 194.062H219.375ZM211.875 195.938H217.5ZM211.875 197.812H217.5ZM210 199.688H217.5ZM73.125 201.562H75ZM208.125 201.562H217.5ZM73.125 203.438H75ZM206.25 203.438H215.625ZM116.25 205.312H120ZM200.625 205.312H215.625ZM71.25 207.188H75ZM116.25 207.188H120ZM196.875 207.188H213.75ZM31.875 209.062H33.75ZM45 209.062H76.875ZM116.25 209.062H211.875ZM31.875 210.938H76.875ZM78.75 210.938H82.5ZM114.375 210.938H210ZM28.125 212.812H208.125ZM28.125 214.688H206.25ZM30 216.562H45ZM48.75 216.562H142.5ZM146.25 216.562H172.5ZM183.75 216.562H204.375Z" fill="black"/>
<path d="M35.625 19.6875H37.5M48.75 19.6875H50.625M35.625 21.5625H37.5M46.875 21.5625H52.5M33.75 23.4375H54.375M26.25 25.3125H60M63.75 25.3125H76.875M86.25 25.3125H95.625M135 25.3125H148.125M159.375 25.3125H172.5M200.625 25.3125H204.375M24.375 27.1875H30M33.75 27.1875H41.25M46.875 27.1875H52.5M61.875 27.1875H76.875M80.625 27.1875H93.75M114.375 27.1875H121.875M131.25 27.1875H148.125M155.625 27.1875H172.5M180 27.1875H210M22.5 29.0625H61.875M67.5 29.0625H95.625M101.25 29.0625H103.125M105 29.0625H210M22.5 30.9375H28.125M35.625 30.9375H37.5M43.125 30.9375H56.25M63.75 30.9375H93.75M99.375 30.9375H211.875M26.25 32.8125H30M41.25 32.8125H48.75M56.25 32.8125H60M202.5 32.8125H213.75M204.375 34.6875H213.75M208.125 36.5625H213.75M208.125 38.4375H215.625M210 40.3125H217.5M210 42.1875H217.5M211.875 44.0625H217.5M211.875 45.9375H219.375M211.875 47.8125H219.375M211.875 49.6875H219.375M211.875 51.5625H219.375M211.875 53.4375H219.375M211.875 55.3125H219.375M211.875 57.1875H219.375M211.875 59.0625H219.375M211.875 60.9375H219.375M211.875 62.8125H219.375M211.875 64.6875H219.375M211.875 66.5625H219.375M24.375 68.4375H26.25M211.875 68.4375H219.375M24.375 70.3125H26.25M211.875 70.3125H219.375M24.375 72.1875H26.25M211.875 72.1875H219.375M24.375 74.0625H26.25M211.875 74.0625H219.375M24.375 75.9375H26.25M211.875 75.9375H219.375M211.875 77.8125H219.375M211.875 79.6875H219.375M211.875 81.5625H217.5M211.875 83.4375H217.5M211.875 85.3125H215.625M24.375 87.1875H26.25M211.875 87.1875H213.75M24.375 89.0625H26.25M211.875 89.0625H213.75M24.375 90.9375H26.25M211.875 90.9375H213.75M24.375 92.8125H26.25M211.875 92.8125H215.625M24.375 94.6875H26.25M211.875 94.6875H215.625M24.375 96.5625H26.25M211.875 96.5625H217.5M211.875 98.4375H217.5M211.875 100.312H217.5M211.875 102.188H219.375M211.875 104.062H219.375M211.875 105.938H219.375M24.375 107.812H26.25M211.875 107.812H219.375M24.375 109.688H26.25M211.875 109.688H219.375M24.375 111.562H26.25M211.875 111.562H219.375M24.375 113.438H26.25M211.875 113.438H219.375M24.375 115.312H26.25M211.875 115.312H217.5M24.375 117.188H26.25M211.875 117.188H217.5M24.375 119.062H26.25M211.875 119.062H215.625M24.375 120.938H26.25M211.875 120.938H215.625M24.375 122.812H26.25M211.875 122.812H217.5M211.875 124.688H217.5M211.875 126.562H219.375M211.875 128.438H219.375M211.875 130.312H219.375M211.875 132.188H219.375M24.375 134.062H26.25M211.875 134.062H219.375M24.375 135.938H26.25M211.875 135.938H219.375M24.375 137.812H26.25M211.875 137.812H219.375M24.375 139.688H26.25M211.875 139.688H219.375M24.375 141.562H26.25M211.875 141.562H217.5M24.375 143.438H26.25M211.875 143.438H217.5M24.375 145.312H26.25M211.875 145.312H217.5M24.375 147.188H26.25M211.875 147.188H217.5M24.375 149.062H26.25M211.875 149.062H217.5M211.875 150.938H217.5M211.875 152.812H217.5M211.875 154.688H217.5M211.875 156.562H217.5M211.875 158.438H215.625M24.375 160.312H26.25M211.875 160.312H215.625M24.375 162.188H26.25M211.875 162.188H215.625M24.375 164.062H26.25M211.875 164.062H217.5M24.375 165.938H26.25M211.875 165.938H217.5M24.375 167.812H26.25M211.875 167.812H217.5M24.375 169.688H26.25M211.875 169.688H217.5M24.375 171.562H26.25M211.875 171.562H219.375M211.875 173.438H219.375M211.875 175.312H219.375M211.875 177.188H219.375M211.875 179.062H219.375M211.875 180.938H219.375M211.875 182.812H219.375M211.875 184.688H219.375M211.875 186.562H219.375M211.875 188.438H219.375M211.875 190.312H219.375M211.875 192.188H219.375M211.875 194.062H219.375M211.875 195.938H217.5M211.875 197.812H217.5M210 199.688H217.5M73.125 201.562H75M208.125 201.562H217.5M73.125 203.438H75M206.25 203.438H215.625M116.25 205.312H120M200.625 205.312H215.625M71.25 207.188H75M116.25 207.188H120M196.875 207.188H213.75M31.875 209.062H33.75M45 209.062H76.875M116.25 209.062H211.875M31.875 210.938H76.875M78.75 210.938H82.5M114.375 210.938H210M28.125 212.812H208.125M28.125 214.688H206.25M30 216.562H45M48.75 216.562H142.5M146.25 216.562H172.5M183.75 216.562H204.375" stroke="#EF9E3D" stroke-width="2"/>
<path d="M95.625 25.3125H97.5ZM93.75 27.1875H95.625Z" fill="black"/>
<path d="M95.625 25.3125H97.5M93.75 27.1875H95.625" stroke="#EF9D3D" stroke-width="2"/>
<path d="M97.5 25.3125H99.375Z" fill="black"/>
<path d="M97.5 25.3125H99.375" stroke="#EF9B3D" stroke-width="2"/>
<path d="M99.375 25.3125H101.25ZM95.625 27.1875H97.5Z" fill="black"/>
<path d="M99.375 25.3125H101.25M95.625 27.1875H97.5" stroke="#EF9C3E" stroke-width="2"/>
<path d="M101.25 25.3125H105Z" fill="black"/>
<path d="M101.25 25.3125H105" stroke="#EF9C3D" stroke-width="2"/>
<path d="M105 25.3125H106.875Z" fill="black"/>
<path d="M105 25.3125H106.875" stroke="#F09D3D" stroke-width="2"/>
<path d="M106.875 25.3125H108.75Z" fill="black"/>
<path d="M106.875 25.3125H108.75" stroke="#EE9C3D" stroke-width="2"/>
<path d="M108.75 25.3125H110.625Z" fill="black"/>
<path d="M108.75 25.3125H110.625" stroke="#F09C3D" stroke-opacity="0.929412" stroke-width="2"/>
<path d="M110.625 25.3125H112.5ZM120 25.3125H121.875Z" fill="black"/>
<path d="M110.625 25.3125H112.5M120 25.3125H121.875" stroke="#EF9C3C" stroke-width="2"/>
<path d="M112.5 25.3125H114.375ZM185.625 25.3125H187.5ZM101.25 27.1875H103.125ZM99.375 29.0625H101.25ZM217.5 141.562H219.375ZM217.5 150.938H219.375ZM217.5 167.812H219.375ZM217.5 169.688H219.375ZM118.125 203.438H120ZM33.75 209.062H37.5ZM41.25 209.062H43.125Z" fill="black"/>
<path d="M112.5 25.3125H114.375M185.625 25.3125H187.5M101.25 27.1875H103.125M99.375 29.0625H101.25M217.5 141.562H219.375M217.5 150.938H219.375M217.5 167.812H219.375M217.5 169.688H219.375M118.125 203.438H120M33.75 209.062H37.5M41.25 209.062H43.125" stroke="#EF9D3C" stroke-width="2"/>
<path d="M114.375 25.3125H116.25ZM97.5 27.1875H101.25Z" fill="black"/>
<path d="M114.375 25.3125H116.25M97.5 27.1875H101.25" stroke="#F09C3D" stroke-width="2"/>
<path d="M116.25 25.3125H118.125Z" fill="black"/>
<path d="M116.25 25.3125H118.125" stroke="#EE9C3E" stroke-width="2"/>
<path d="M118.125 25.3125H120Z" fill="black"/>
<path d="M118.125 25.3125H120" stroke="#F09C3E" stroke-width="2"/>
<path d="M187.5 25.3125H189.375Z" fill="black"/>
<path d="M187.5 25.3125H189.375" stroke="#EF9C3C" stroke-opacity="0.988235" stroke-width="2"/>
<path d="M189.375 25.3125H191.25ZM217.5 145.312H219.375ZM217.5 149.062H219.375ZM217.5 152.812H219.375Z" fill="black"/>
<path d="M189.375 25.3125H191.25M217.5 145.312H219.375M217.5 149.062H219.375M217.5 152.812H219.375" stroke="#EF9E3C" stroke-opacity="0.996078" stroke-width="2"/>
<path d="M191.25 25.3125H193.125Z" fill="black"/>
<path d="M191.25 25.3125H193.125" stroke="#F09D3D" stroke-opacity="0.945098" stroke-width="2"/>
<path d="M193.125 25.3125H195ZM71.25 205.312H73.125Z" fill="black"/>
<path d="M193.125 25.3125H195M71.25 205.312H73.125" stroke="#F09D3C" stroke-opacity="0.992157" stroke-width="2"/>
<path d="M195 25.3125H196.875ZM217.5 147.188H219.375ZM37.5 209.062H41.25Z" fill="black"/>
<path d="M195 25.3125H196.875M217.5 147.188H219.375M37.5 209.062H41.25" stroke="#EF9D3C" stroke-opacity="0.988235" stroke-width="2"/>
<path d="M196.875 25.3125H198.75Z" fill="black"/>
<path d="M196.875 25.3125H198.75" stroke="#EF9B3C" stroke-opacity="0.964706" stroke-width="2"/>
<path d="M198.75 25.3125H200.625Z" fill="black"/>
<path d="M198.75 25.3125H200.625" stroke="#F09C3C" stroke-opacity="0.972549" stroke-width="2"/>
<path d="M103.125 27.1875H105Z" fill="black"/>
<path d="M103.125 27.1875H105" stroke="#EF9E3C" stroke-width="2"/>
<path d="M105 27.1875H106.875ZM108.75 27.1875H114.375ZM97.5 29.0625H99.375ZM103.125 29.0625H105ZM95.625 30.9375H99.375Z" fill="black"/>
<path d="M105 27.1875H106.875M108.75 27.1875H114.375M97.5 29.0625H99.375M103.125 29.0625H105M95.625 30.9375H99.375" stroke="#F09E3C" stroke-width="2"/>
<path d="M106.875 27.1875H108.75Z" fill="black"/>
<path d="M106.875 27.1875H108.75" stroke="#F09D3C" stroke-width="2"/>
<path d="M95.625 29.0625H97.5ZM93.75 30.9375H95.625Z" fill="black"/>
<path d="M95.625 29.0625H97.5M93.75 30.9375H95.625" stroke="#F09E3D" stroke-width="2"/>
<path d="M24.375 32.8125H26.25ZM60 32.8125H202.5ZM26.25 34.6875H54.375ZM58.125 34.6875H204.375ZM54.375 36.5625H58.125ZM95.625 36.5625H99.375ZM200.625 36.5625H208.125ZM54.375 38.4375H56.25ZM95.625 38.4375H97.5ZM204.375 38.4375H208.125ZM54.375 40.3125H56.25ZM95.625 40.3125H97.5ZM206.25 40.3125H210ZM54.375 42.1875H56.25ZM95.625 42.1875H97.5ZM206.25 42.1875H210ZM208.125 44.0625H211.875ZM208.125 45.9375H211.875ZM208.125 47.8125H211.875ZM208.125 49.6875H211.875ZM208.125 51.5625H211.875ZM208.125 53.4375H211.875ZM35.625 55.3125H37.5ZM208.125 55.3125H211.875ZM35.625 57.1875H37.5ZM208.125 57.1875H211.875ZM208.125 59.0625H211.875ZM24.375 60.9375H30ZM208.125 60.9375H211.875ZM24.375 62.8125H26.25ZM208.125 62.8125H211.875ZM24.375 64.6875H26.25ZM208.125 64.6875H211.875ZM24.375 66.5625H26.25ZM208.125 66.5625H211.875ZM208.125 68.4375H211.875ZM208.125 70.3125H211.875ZM208.125 72.1875H211.875ZM208.125 74.0625H211.875ZM208.125 75.9375H211.875ZM24.375 77.8125H26.25ZM208.125 77.8125H211.875ZM24.375 79.6875H26.25ZM208.125 79.6875H211.875ZM24.375 81.5625H26.25ZM208.125 81.5625H211.875ZM24.375 83.4375H26.25ZM208.125 83.4375H211.875ZM24.375 85.3125H26.25ZM208.125 85.3125H211.875ZM208.125 87.1875H211.875ZM208.125 89.0625H211.875ZM208.125 90.9375H211.875ZM208.125 92.8125H211.875ZM208.125 94.6875H211.875ZM208.125 96.5625H211.875ZM24.375 98.4375H26.25ZM208.125 98.4375H211.875ZM24.375 100.312H26.25ZM208.125 100.312H211.875ZM24.375 102.188H26.25ZM208.125 102.188H211.875ZM24.375 104.062H26.25ZM208.125 104.062H211.875ZM24.375 105.938H26.25ZM208.125 105.938H211.875ZM208.125 107.812H211.875ZM208.125 109.688H211.875ZM208.125 111.562H211.875ZM208.125 113.438H211.875ZM208.125 115.312H211.875ZM208.125 117.188H211.875ZM208.125 119.062H211.875ZM208.125 120.938H211.875ZM208.125 122.812H211.875ZM24.375 124.688H26.25ZM208.125 124.688H211.875ZM24.375 126.562H26.25ZM208.125 126.562H211.875ZM24.375 128.438H26.25ZM208.125 128.438H211.875ZM24.375 130.312H26.25ZM208.125 130.312H211.875ZM24.375 132.188H26.25ZM208.125 132.188H211.875ZM208.125 134.062H211.875ZM208.125 135.938H211.875ZM208.125 137.812H211.875ZM208.125 139.688H211.875ZM208.125 141.562H211.875ZM208.125 143.438H211.875ZM208.125 145.312H211.875ZM208.125 147.188H211.875ZM208.125 149.062H211.875ZM24.375 150.938H26.25ZM208.125 150.938H211.875ZM24.375 152.812H26.25ZM208.125 152.812H211.875ZM24.375 154.688H26.25ZM208.125 154.688H211.875ZM24.375 156.562H26.25ZM208.125 156.562H211.875ZM24.375 158.438H26.25ZM208.125 158.438H211.875ZM208.125 160.312H211.875ZM208.125 162.188H211.875ZM208.125 164.062H211.875ZM208.125 165.938H211.875ZM208.125 167.812H211.875ZM208.125 169.688H211.875ZM208.125 171.562H211.875ZM24.375 173.438H26.25ZM208.125 173.438H211.875ZM24.375 175.312H26.25ZM208.125 175.312H211.875ZM24.375 177.188H26.25ZM208.125 177.188H211.875ZM24.375 179.062H26.25ZM208.125 179.062H211.875ZM24.375 180.938H26.25ZM208.125 180.938H211.875ZM24.375 182.812H26.25ZM208.125 182.812H211.875ZM24.375 184.688H26.25ZM208.125 184.688H211.875ZM24.375 186.562H26.25ZM208.125 186.562H211.875ZM24.375 188.438H26.25ZM208.125 188.438H211.875ZM24.375 190.312H26.25ZM208.125 190.312H211.875ZM24.375 192.188H26.25ZM208.125 192.188H211.875ZM24.375 194.062H26.25ZM208.125 194.062H211.875ZM24.375 195.938H26.25ZM208.125 195.938H211.875ZM217.5 195.938H219.375ZM24.375 197.812H26.25ZM208.125 197.812H211.875ZM217.5 197.812H219.375ZM24.375 199.688H26.25ZM206.25 199.688H210ZM217.5 199.688H219.375ZM24.375 201.562H26.25ZM204.375 201.562H208.125ZM217.5 201.562H219.375ZM24.375 203.438H26.25ZM204.375 203.438H206.25ZM215.625 203.438H219.375ZM24.375 205.312H26.25ZM215.625 205.312H217.5ZM24.375 207.188H26.25ZM213.75 207.188H217.5ZM24.375 209.062H26.25ZM211.875 209.062H215.625ZM24.375 210.938H26.25ZM210 210.938H215.625ZM24.375 212.812H28.125ZM208.125 212.812H213.75ZM24.375 214.688H28.125ZM206.25 214.688H211.875ZM28.125 216.562H30ZM204.375 216.562H210ZM28.125 218.438H41.25ZM50.625 218.438H135ZM146.25 218.438H172.5ZM181.875 218.438H206.25ZM28.125 220.312H39.375ZM46.875 220.312H127.5ZM144.375 220.312H172.5ZM181.875 220.312H202.5Z" fill="black"/>
<path d="M24.375 32.8125H26.25M60 32.8125H202.5M26.25 34.6875H54.375M58.125 34.6875H204.375M54.375 36.5625H58.125M95.625 36.5625H99.375M200.625 36.5625H208.125M54.375 38.4375H56.25M95.625 38.4375H97.5M204.375 38.4375H208.125M54.375 40.3125H56.25M95.625 40.3125H97.5M206.25 40.3125H210M54.375 42.1875H56.25M95.625 42.1875H97.5M206.25 42.1875H210M208.125 44.0625H211.875M208.125 45.9375H211.875M208.125 47.8125H211.875M208.125 49.6875H211.875M208.125 51.5625H211.875M208.125 53.4375H211.875M35.625 55.3125H37.5M208.125 55.3125H211.875M35.625 57.1875H37.5M208.125 57.1875H211.875M208.125 59.0625H211.875M24.375 60.9375H30M208.125 60.9375H211.875M24.375 62.8125H26.25M208.125 62.8125H211.875M24.375 64.6875H26.25M208.125 64.6875H211.875M24.375 66.5625H26.25M208.125 66.5625H211.875M208.125 68.4375H211.875M208.125 70.3125H211.875M208.125 72.1875H211.875M208.125 74.0625H211.875M208.125 75.9375H211.875M24.375 77.8125H26.25M208.125 77.8125H211.875M24.375 79.6875H26.25M208.125 79.6875H211.875M24.375 81.5625H26.25M208.125 81.5625H211.875M24.375 83.4375H26.25M208.125 83.4375H211.875M24.375 85.3125H26.25M208.125 85.3125H211.875M208.125 87.1875H211.875M208.125 89.0625H211.875M208.125 90.9375H211.875M208.125 92.8125H211.875M208.125 94.6875H211.875M208.125 96.5625H211.875M24.375 98.4375H26.25M208.125 98.4375H211.875M24.375 100.312H26.25M208.125 100.312H211.875M24.375 102.188H26.25M208.125 102.188H211.875M24.375 104.062H26.25M208.125 104.062H211.875M24.375 105.938H26.25M208.125 105.938H211.875M208.125 107.812H211.875M208.125 109.688H211.875M208.125 111.562H211.875M208.125 113.438H211.875M208.125 115.312H211.875M208.125 117.188H211.875M208.125 119.062H211.875M208.125 120.938H211.875M208.125 122.812H211.875M24.375 124.688H26.25M208.125 124.688H211.875M24.375 126.562H26.25M208.125 126.562H211.875M24.375 128.438H26.25M208.125 128.438H211.875M24.375 130.312H26.25M208.125 130.312H211.875M24.375 132.188H26.25M208.125 132.188H211.875M208.125 134.062H211.875M208.125 135.938H211.875M208.125 137.812H211.875M208.125 139.688H211.875M208.125 141.562H211.875M208.125 143.438H211.875M208.125 145.312H211.875M208.125 147.188H211.875M208.125 149.062H211.875M24.375 150.938H26.25M208.125 150.938H211.875M24.375 152.812H26.25M208.125 152.812H211.875M24.375 154.688H26.25M208.125 154.688H211.875M24.375 156.562H26.25M208.125 156.562H211.875M24.375 158.438H26.25M208.125 158.438H211.875M208.125 160.312H211.875M208.125 162.188H211.875M208.125 164.062H211.875M208.125 165.938H211.875M208.125 167.812H211.875M208.125 169.688H211.875M208.125 171.562H211.875M24.375 173.438H26.25M208.125 173.438H211.875M24.375 175.312H26.25M208.125 175.312H211.875M24.375 177.188H26.25M208.125 177.188H211.875M24.375 179.062H26.25M208.125 179.062H211.875M24.375 180.938H26.25M208.125 180.938H211.875M24.375 182.812H26.25M208.125 182.812H211.875M24.375 184.688H26.25M208.125 184.688H211.875M24.375 186.562H26.25M208.125 186.562H211.875M24.375 188.438H26.25M208.125 188.438H211.875M24.375 190.312H26.25M208.125 190.312H211.875M24.375 192.188H26.25M208.125 192.188H211.875M24.375 194.062H26.25M208.125 194.062H211.875M24.375 195.938H26.25M208.125 195.938H211.875M217.5 195.938H219.375M24.375 197.812H26.25M208.125 197.812H211.875M217.5 197.812H219.375M24.375 199.688H26.25M206.25 199.688H210M217.5 199.688H219.375M24.375 201.562H26.25M204.375 201.562H208.125M217.5 201.562H219.375M24.375 203.438H26.25M204.375 203.438H206.25M215.625 203.438H219.375M24.375 205.312H26.25M215.625 205.312H217.5M24.375 207.188H26.25M213.75 207.188H217.5M24.375 209.062H26.25M211.875 209.062H215.625M24.375 210.938H26.25M210 210.938H215.625M24.375 212.812H28.125M208.125 212.812H213.75M24.375 214.688H28.125M206.25 214.688H211.875M28.125 216.562H30M204.375 216.562H210M28.125 218.438H41.25M50.625 218.438H135M146.25 218.438H172.5M181.875 218.438H206.25M28.125 220.312H39.375M46.875 220.312H127.5M144.375 220.312H172.5M181.875 220.312H202.5" stroke="#C25504" stroke-width="2"/>
<path d="M217.5 81.5625H219.375ZM43.125 209.062H45Z" fill="black"/>
<path d="M217.5 81.5625H219.375M43.125 209.062H45" stroke="#F09E3C" stroke-opacity="0.996078" stroke-width="2"/>
<path d="M221.25 134.062H223.125ZM206.25 220.312H208.125Z" fill="black"/>
<path d="M221.25 134.062H223.125M206.25 220.312H208.125" stroke="#EF983E" stroke-opacity="0.243137" stroke-width="2"/>
<path d="M221.25 135.938H223.125Z" fill="black"/>
<path d="M221.25 135.938H223.125" stroke="#F09B3E" stroke-opacity="0.129412" stroke-width="2"/>
<path d="M217.5 143.438H219.375Z" fill="black"/>
<path d="M217.5 143.438H219.375" stroke="#F09D3C" stroke-opacity="0.988235" stroke-width="2"/>
<path d="M118.125 201.562H120Z" fill="black"/>
<path d="M118.125 201.562H120" stroke="#F09B3D" stroke-opacity="0.952941" stroke-width="2"/>
<path d="M73.125 205.312H75Z" fill="black"/>
<path d="M73.125 205.312H75" stroke="#EF9D3C" stroke-opacity="0.992157" stroke-width="2"/>
<path d="M41.25 218.438H50.625ZM135 218.438H146.25ZM172.5 218.438H181.875ZM39.375 220.312H46.875ZM127.5 220.312H144.375ZM172.5 220.312H181.875Z" fill="black"/>
<path d="M41.25 218.438H50.625M135 218.438H146.25M172.5 218.438H181.875M39.375 220.312H46.875M127.5 220.312H144.375M172.5 220.312H181.875" stroke="#FFC6A7" stroke-width="2"/>
<defs>
<filter id="filter0_d_2783_43889" x="36" y="33" width="174" height="186" filterUnits="userSpaceOnUse" color-interpolation-filters="sRGB">
<feFlood flood-opacity="0" result="BackgroundImageFix"/>
<feColorMatrix in="SourceAlpha" type="matrix" values="0 0 0 0 0 0 0 0 0 0 0 0 0 0 0 0 0 0 127 0" result="hardAlpha"/>
<feOffset dy="8"/>
<feComposite in2="hardAlpha" operator="out"/>
<feColorMatrix type="matrix" values="0 0 0 0 0 0 0 0 0 0 0 0 0 0 0 0 0 0 1 0"/>
<feBlend mode="normal" in2="BackgroundImageFix" result="effect1_dropShadow_2783_43889"/>
<feBlend mode="normal" in="SourceGraphic" in2="effect1_dropShadow_2783_43889" result="shape"/>
</filter>
</defs>
</svg>
