<svg width="240" height="241" viewBox="0 0 240 241" fill="none" xmlns="http://www.w3.org/2000/svg">
<g filter="url(#filter0_d_2783_43889)">
<rect width="174" height="178" transform="translate(36 33.5)" fill="#F7F6F5" fill-opacity="0.9"/>
</g>
<rect x="24" y="58.5" width="12" height="153" fill="#F7F6F5" fill-opacity="0.9"/>
<path d="M31.875 16.4375H35.625H31.875ZM50.625 16.4375H54.375H50.625ZM31.875 18.3125H37.5H31.875ZM48.75 18.3125H54.375H48.75ZM31.875 20.1875H33.75H31.875ZM37.5 20.1875H39.375H37.5ZM46.875 20.1875H48.75H46.875ZM52.5 20.1875H54.375H52.5ZM31.875 22.0625H33.75H31.875ZM37.5 22.0625H46.875H37.5ZM52.5 22.0625H56.25H52.5ZM24.375 23.9375H33.75H24.375ZM54.375 23.9375H206.25H54.375ZM15 25.8125H16.875H15ZM22.5 25.8125H26.25H22.5ZM60 25.8125H63.75H60ZM204.375 25.8125H211.875H204.375ZM15 27.6875H24.375H15ZM30 27.6875H33.75H30ZM41.25 27.6875H46.875H41.25ZM52.5 27.6875H61.875H52.5ZM210 27.6875H215.625H210ZM20.625 29.5625H22.5H20.625ZM61.875 29.5625H67.5H61.875ZM213.75 29.5625H217.5H213.75ZM15 31.4375H22.5H15ZM28.125 31.4375H31.875H28.125ZM33.75 31.4375H35.625H33.75ZM39.375 31.4375H43.125H39.375ZM56.25 31.4375H63.75H56.25ZM215.625 31.4375H219.375H215.625ZM13.125 33.3125H16.875H13.125ZM20.625 33.3125H24.375H20.625ZM30 33.3125H41.25H30ZM48.75 33.3125H56.25H48.75ZM217.5 33.3125H219.375H217.5ZM16.875 35.1875H26.25H16.875ZM54.375 35.1875H58.125H54.375ZM217.5 35.1875H221.25H217.5ZM15 37.0625H18.75H15ZM24.375 37.0625H54.375H24.375ZM58.125 37.0625H95.625H58.125ZM99.375 37.0625H200.625H99.375ZM219.375 37.0625H221.25H219.375ZM52.5 38.9375H54.375H52.5ZM56.25 38.9375H60H56.25ZM93.75 38.9375H95.625H93.75ZM97.5 38.9375H101.25H97.5ZM198.75 38.9375H204.375H198.75ZM219.375 38.9375H221.25H219.375ZM52.5 40.8125H54.375H52.5ZM56.25 40.8125H58.125H56.25ZM93.75 40.8125H95.625H93.75ZM97.5 40.8125H99.375H97.5ZM202.5 40.8125H206.25H202.5ZM219.375 40.8125H221.25H219.375ZM52.5 42.6875H54.375H52.5ZM56.25 42.6875H58.125H56.25ZM93.75 42.6875H95.625H93.75ZM97.5 42.6875H99.375H97.5ZM204.375 42.6875H206.25H204.375ZM219.375 42.6875H221.25H219.375ZM52.5 44.5625H58.125H52.5ZM93.75 44.5625H99.375H93.75ZM204.375 44.5625H208.125H204.375ZM219.375 44.5625H221.25H219.375ZM206.25 46.4375H208.125H206.25ZM219.375 46.4375H221.25H219.375ZM33.75 48.3125H39.375H33.75ZM206.25 48.3125H208.125H206.25ZM219.375 48.3125H221.25H219.375ZM33.75 50.1875H35.625H33.75ZM37.5 50.1875H39.375H37.5ZM206.25 50.1875H208.125H206.25ZM219.375 50.1875H221.25H219.375ZM33.75 52.0625H35.625H33.75ZM37.5 52.0625H39.375H37.5ZM206.25 52.0625H208.125H206.25ZM219.375 52.0625H221.25H219.375ZM33.75 53.9375H35.625H33.75ZM37.5 53.9375H39.375H37.5ZM206.25 53.9375H208.125H206.25ZM219.375 53.9375H221.25H219.375ZM33.75 55.8125H35.625H33.75ZM37.5 55.8125H39.375H37.5ZM206.25 55.8125H208.125H206.25ZM219.375 55.8125H221.25H219.375ZM33.75 57.6875H35.625H33.75ZM37.5 57.6875H39.375H37.5ZM206.25 57.6875H208.125H206.25ZM219.375 57.6875H221.25H219.375ZM22.5 59.5625H35.625H22.5ZM37.5 59.5625H39.375H37.5ZM206.25 59.5625H208.125H206.25ZM219.375 59.5625H221.25H219.375ZM22.5 61.4375H24.375H22.5ZM37.5 61.4375H39.375H37.5ZM206.25 61.4375H208.125H206.25ZM219.375 61.4375H221.25H219.375ZM22.5 63.3125H24.375H22.5ZM26.25 63.3125H39.375H26.25ZM206.25 63.3125H208.125H206.25ZM219.375 63.3125H221.25H219.375ZM22.5 65.1875H24.375H22.5ZM26.25 65.1875H28.125H26.25ZM206.25 65.1875H208.125H206.25ZM219.375 65.1875H221.25H219.375ZM22.5 67.0625H24.375H22.5ZM26.25 67.0625H28.125H26.25ZM206.25 67.0625H208.125H206.25ZM219.375 67.0625H221.25H219.375ZM22.5 68.9375H24.375H22.5ZM26.25 68.9375H28.125H26.25ZM206.25 68.9375H208.125H206.25ZM219.375 68.9375H221.25H219.375ZM22.5 70.8125H24.375H22.5ZM26.25 70.8125H28.125H26.25ZM206.25 70.8125H208.125H206.25ZM219.375 70.8125H221.25H219.375ZM22.5 72.6875H24.375H22.5ZM26.25 72.6875H28.125H26.25ZM206.25 72.6875H208.125H206.25ZM219.375 72.6875H221.25H219.375ZM22.5 74.5625H24.375H22.5ZM26.25 74.5625H28.125H26.25ZM206.25 74.5625H208.125H206.25ZM219.375 74.5625H221.25H219.375ZM22.5 76.4375H24.375H22.5ZM26.25 76.4375H28.125H26.25ZM206.25 76.4375H208.125H206.25ZM219.375 76.4375H221.25H219.375ZM22.5 78.3125H24.375H22.5ZM26.25 78.3125H28.125H26.25ZM206.25 78.3125H208.125H206.25ZM219.375 78.3125H221.25H219.375ZM22.5 80.1875H24.375H22.5ZM26.25 80.1875H28.125H26.25ZM206.25 80.1875H208.125H206.25ZM219.375 80.1875H221.25H219.375ZM22.5 82.0625H24.375H22.5ZM26.25 82.0625H28.125H26.25ZM206.25 82.0625H208.125H206.25ZM219.375 82.0625H221.25H219.375ZM22.5 83.9375H24.375H22.5ZM26.25 83.9375H28.125H26.25ZM206.25 83.9375H208.125H206.25ZM219.375 83.9375H221.25H219.375ZM22.5 85.8125H24.375H22.5ZM26.25 85.8125H28.125H26.25ZM206.25 85.8125H208.125H206.25ZM219.375 85.8125H221.25H219.375ZM22.5 87.6875H24.375H22.5ZM26.25 87.6875H28.125H26.25ZM206.25 87.6875H208.125H206.25ZM219.375 87.6875H221.25H219.375ZM22.5 89.5625H24.375H22.5ZM26.25 89.5625H28.125H26.25ZM206.25 89.5625H208.125H206.25ZM219.375 89.5625H221.25H219.375ZM22.5 91.4375H24.375H22.5ZM26.25 91.4375H28.125H26.25ZM206.25 91.4375H208.125H206.25ZM219.375 91.4375H221.25H219.375ZM22.5 93.3125H24.375H22.5ZM26.25 93.3125H28.125H26.25ZM206.25 93.3125H208.125H206.25ZM219.375 93.3125H221.25H219.375ZM22.5 95.1875H24.375H22.5ZM26.25 95.1875H28.125H26.25ZM206.25 95.1875H208.125H206.25ZM219.375 95.1875H221.25H219.375ZM22.5 97.0625H24.375H22.5ZM26.25 97.0625H28.125H26.25ZM206.25 97.0625H208.125H206.25ZM219.375 97.0625H221.25H219.375ZM22.5 98.9375H24.375H22.5ZM26.25 98.9375H28.125H26.25ZM206.25 98.9375H208.125H206.25ZM219.375 98.9375H221.25H219.375ZM22.5 100.812H24.375H22.5ZM26.25 100.812H28.125H26.25ZM206.25 100.812H208.125H206.25ZM219.375 100.812H221.25H219.375ZM22.5 102.688H24.375H22.5ZM26.25 102.688H28.125H26.25ZM206.25 102.688H208.125H206.25ZM219.375 102.688H221.25H219.375ZM22.5 104.562H24.375H22.5ZM26.25 104.562H28.125H26.25ZM206.25 104.562H208.125H206.25ZM219.375 104.562H221.25H219.375ZM22.5 106.438H24.375H22.5ZM26.25 106.438H28.125H26.25ZM206.25 106.438H208.125H206.25ZM219.375 106.438H221.25H219.375ZM22.5 108.312H24.375H22.5ZM26.25 108.312H28.125H26.25ZM206.25 108.312H208.125H206.25ZM219.375 108.312H221.25H219.375ZM22.5 110.188H24.375H22.5ZM26.25 110.188H28.125H26.25ZM206.25 110.188H208.125H206.25ZM219.375 110.188H221.25H219.375ZM22.5 112.062H24.375H22.5ZM26.25 112.062H28.125H26.25ZM206.25 112.062H208.125H206.25ZM219.375 112.062H221.25H219.375ZM22.5 113.938H24.375H22.5ZM26.25 113.938H28.125H26.25ZM206.25 113.938H208.125H206.25ZM219.375 113.938H221.25H219.375ZM22.5 115.812H24.375H22.5ZM26.25 115.812H28.125H26.25ZM206.25 115.812H208.125H206.25ZM219.375 115.812H221.25H219.375ZM22.5 117.688H24.375H22.5ZM26.25 117.688H28.125H26.25ZM206.25 117.688H208.125H206.25ZM219.375 117.688H221.25H219.375ZM22.5 119.562H24.375H22.5ZM26.25 119.562H28.125H26.25ZM206.25 119.562H208.125H206.25ZM219.375 119.562H221.25H219.375ZM22.5 121.438H24.375H22.5ZM26.25 121.438H28.125H26.25ZM206.25 121.438H208.125H206.25ZM219.375 121.438H221.25H219.375ZM22.5 123.312H24.375H22.5ZM26.25 123.312H28.125H26.25ZM206.25 123.312H208.125H206.25ZM219.375 123.312H221.25H219.375ZM22.5 125.188H24.375H22.5ZM26.25 125.188H28.125H26.25ZM206.25 125.188H208.125H206.25ZM219.375 125.188H221.25H219.375ZM22.5 127.062H24.375H22.5ZM26.25 127.062H28.125H26.25ZM206.25 127.062H208.125H206.25ZM219.375 127.062H221.25H219.375ZM22.5 128.938H24.375H22.5ZM26.25 128.938H28.125H26.25ZM206.25 128.938H208.125H206.25ZM219.375 128.938H221.25H219.375ZM22.5 130.812H24.375H22.5ZM26.25 130.812H28.125H26.25ZM206.25 130.812H208.125H206.25ZM219.375 130.812H221.25H219.375ZM22.5 132.688H24.375H22.5ZM26.25 132.688H28.125H26.25ZM206.25 132.688H208.125H206.25ZM219.375 132.688H221.25H219.375ZM22.5 134.562H24.375H22.5ZM26.25 134.562H28.125H26.25ZM206.25 134.562H208.125H206.25ZM219.375 134.562H221.25H219.375ZM22.5 136.438H24.375H22.5ZM26.25 136.438H28.125H26.25ZM206.25 136.438H208.125H206.25ZM219.375 136.438H221.25H219.375ZM22.5 138.312H24.375H22.5ZM26.25 138.312H28.125H26.25ZM206.25 138.312H208.125H206.25ZM219.375 138.312H221.25H219.375ZM22.5 140.188H24.375H22.5ZM26.25 140.188H28.125H26.25ZM206.25 140.188H208.125H206.25ZM219.375 140.188H221.25H219.375ZM22.5 142.062H24.375H22.5ZM26.25 142.062H28.125H26.25ZM206.25 142.062H208.125H206.25ZM219.375 142.062H221.25H219.375ZM22.5 143.938H24.375H22.5ZM26.25 143.938H28.125H26.25ZM206.25 143.938H208.125H206.25ZM219.375 143.938H221.25H219.375ZM22.5 145.812H24.375H22.5ZM26.25 145.812H28.125H26.25ZM206.25 145.812H208.125H206.25ZM219.375 145.812H221.25H219.375ZM22.5 147.688H24.375H22.5ZM26.25 147.688H28.125H26.25ZM206.25 147.688H208.125H206.25ZM219.375 147.688H221.25H219.375ZM22.5 149.562H24.375H22.5ZM26.25 149.562H28.125H26.25ZM206.25 149.562H208.125H206.25ZM219.375 149.562H221.25H219.375ZM22.5 151.438H24.375H22.5ZM26.25 151.438H28.125H26.25ZM206.25 151.438H208.125H206.25ZM219.375 151.438H221.25H219.375ZM22.5 153.312H24.375H22.5ZM26.25 153.312H28.125H26.25ZM206.25 153.312H208.125H206.25ZM219.375 153.312H221.25H219.375ZM22.5 155.188H24.375H22.5ZM26.25 155.188H28.125H26.25ZM206.25 155.188H208.125H206.25ZM219.375 155.188H221.25H219.375ZM22.5 157.062H24.375H22.5ZM26.25 157.062H28.125H26.25ZM206.25 157.062H208.125H206.25ZM219.375 157.062H221.25H219.375ZM22.5 158.938H24.375H22.5ZM26.25 158.938H28.125H26.25ZM206.25 158.938H208.125H206.25ZM219.375 158.938H221.25H219.375ZM22.5 160.812H24.375H22.5ZM26.25 160.812H28.125H26.25ZM206.25 160.812H208.125H206.25ZM219.375 160.812H221.25H219.375ZM22.5 162.688H24.375H22.5ZM26.25 162.688H28.125H26.25ZM206.25 162.688H208.125H206.25ZM219.375 162.688H221.25H219.375ZM22.5 164.562H24.375H22.5ZM26.25 164.562H28.125H26.25ZM206.25 164.562H208.125H206.25ZM219.375 164.562H221.25H219.375ZM22.5 166.438H24.375H22.5ZM26.25 166.438H28.125H26.25ZM206.25 166.438H208.125H206.25ZM219.375 166.438H221.25H219.375ZM22.5 168.312H24.375H22.5ZM26.25 168.312H28.125H26.25ZM206.25 168.312H208.125H206.25ZM219.375 168.312H221.25H219.375ZM22.5 170.188H24.375H22.5ZM26.25 170.188H28.125H26.25ZM206.25 170.188H208.125H206.25ZM219.375 170.188H221.25H219.375ZM22.5 172.062H24.375H22.5ZM26.25 172.062H28.125H26.25ZM206.25 172.062H208.125H206.25ZM219.375 172.062H221.25H219.375ZM22.5 173.938H24.375H22.5ZM26.25 173.938H28.125H26.25ZM206.25 173.938H208.125H206.25ZM219.375 173.938H221.25H219.375ZM22.5 175.812H24.375H22.5ZM26.25 175.812H28.125H26.25ZM206.25 175.812H208.125H206.25ZM219.375 175.812H221.25H219.375ZM22.5 177.688H24.375H22.5ZM26.25 177.688H28.125H26.25ZM206.25 177.688H208.125H206.25ZM219.375 177.688H221.25H219.375ZM22.5 179.562H24.375H22.5ZM26.25 179.562H28.125H26.25ZM206.25 179.562H208.125H206.25ZM219.375 179.562H221.25H219.375ZM22.5 181.438H24.375H22.5ZM26.25 181.438H28.125H26.25ZM206.25 181.438H208.125H206.25ZM219.375 181.438H221.25H219.375ZM22.5 183.312H24.375H22.5ZM26.25 183.312H28.125H26.25ZM206.25 183.312H208.125H206.25ZM219.375 183.312H221.25H219.375ZM22.5 185.188H24.375H22.5ZM26.25 185.188H28.125H26.25ZM206.25 185.188H208.125H206.25ZM219.375 185.188H221.25H219.375ZM22.5 187.062H24.375H22.5ZM26.25 187.062H28.125H26.25ZM206.25 187.062H208.125H206.25ZM219.375 187.062H221.25H219.375ZM22.5 188.938H24.375H22.5ZM26.25 188.938H28.125H26.25ZM206.25 188.938H208.125H206.25ZM219.375 188.938H221.25H219.375ZM22.5 190.812H24.375H22.5ZM26.25 190.812H28.125H26.25ZM206.25 190.812H208.125H206.25ZM219.375 190.812H221.25H219.375ZM22.5 192.688H24.375H22.5ZM26.25 192.688H28.125H26.25ZM206.25 192.688H208.125H206.25ZM219.375 192.688H221.25H219.375ZM22.5 194.562H24.375H22.5ZM26.25 194.562H28.125H26.25ZM206.25 194.562H208.125H206.25ZM219.375 194.562H221.25H219.375ZM22.5 196.438H24.375H22.5ZM26.25 196.438H28.125H26.25ZM206.25 196.438H208.125H206.25ZM219.375 196.438H221.25H219.375ZM22.5 198.312H24.375H22.5ZM26.25 198.312H28.125H26.25ZM204.375 198.312H208.125H204.375ZM219.375 198.312H221.25H219.375ZM22.5 200.188H24.375H22.5ZM26.25 200.188H28.125H26.25ZM71.25 200.188H76.875H71.25ZM116.25 200.188H121.875H116.25ZM202.5 200.188H206.25H202.5ZM219.375 200.188H221.25H219.375ZM22.5 202.062H24.375H22.5ZM26.25 202.062H28.125H26.25ZM71.25 202.062H73.125H71.25ZM75 202.062H76.875H75ZM116.25 202.062H118.125H116.25ZM120 202.062H121.875H120ZM202.5 202.062H204.375H202.5ZM219.375 202.062H221.25H219.375ZM22.5 203.938H24.375H22.5ZM26.25 203.938H28.125H26.25ZM69.375 203.938H73.125H69.375ZM75 203.938H76.875H75ZM114.375 203.938H118.125H114.375ZM120 203.938H121.875H120ZM198.75 203.938H204.375H198.75ZM219.375 203.938H221.25H219.375ZM22.5 205.812H24.375H22.5ZM26.25 205.812H28.125H26.25ZM69.375 205.812H71.25H69.375ZM75 205.812H76.875H75ZM114.375 205.812H116.25H114.375ZM120 205.812H121.875H120ZM195 205.812H200.625H195ZM217.5 205.812H221.25H217.5ZM22.5 207.688H24.375H22.5ZM26.25 207.688H28.125H26.25ZM30 207.688H71.25H30ZM75 207.688H116.25H75ZM120 207.688H196.875H120ZM217.5 207.688H219.375H217.5ZM22.5 209.562H24.375H22.5ZM26.25 209.562H28.125H26.25ZM30 209.562H31.875H30ZM215.625 209.562H219.375H215.625ZM22.5 211.438H24.375H22.5ZM26.25 211.438H31.875H26.25ZM215.625 211.438H217.5H215.625ZM22.5 213.312H24.375H22.5ZM213.75 213.312H215.625H213.75ZM22.5 215.188H24.375H22.5ZM211.875 215.188H215.625H211.875ZM22.5 217.062H28.125H22.5ZM210 217.062H213.75H210ZM26.25 218.938H28.125H26.25ZM206.25 218.938H210H206.25ZM26.25 220.812H28.125H26.25ZM202.5 220.812H206.25H202.5ZM26.25 222.688H204.375H26.25Z" fill="black"/>
<path d="M31.875 16.4375H35.625M50.625 16.4375H54.375M31.875 18.3125H37.5M48.75 18.3125H54.375M31.875 20.1875H33.75M37.5 20.1875H39.375M46.875 20.1875H48.75M52.5 20.1875H54.375M31.875 22.0625H33.75M37.5 22.0625H46.875M52.5 22.0625H56.25M24.375 23.9375H33.75M54.375 23.9375H206.25M15 25.8125H16.875M22.5 25.8125H26.25M60 25.8125H63.75M204.375 25.8125H211.875M15 27.6875H24.375M30 27.6875H33.75M41.25 27.6875H46.875M52.5 27.6875H61.875M210 27.6875H215.625M20.625 29.5625H22.5M61.875 29.5625H67.5M213.75 29.5625H217.5M15 31.4375H22.5M28.125 31.4375H31.875M33.75 31.4375H35.625M39.375 31.4375H43.125M56.25 31.4375H63.75M215.625 31.4375H219.375M13.125 33.3125H16.875M20.625 33.3125H24.375M30 33.3125H41.25M48.75 33.3125H56.25M217.5 33.3125H219.375M16.875 35.1875H26.25M54.375 35.1875H58.125M217.5 35.1875H221.25M15 37.0625H18.75M24.375 37.0625H54.375M58.125 37.0625H95.625M99.375 37.0625H200.625M219.375 37.0625H221.25M52.5 38.9375H54.375M56.25 38.9375H60M93.75 38.9375H95.625M97.5 38.9375H101.25M198.75 38.9375H204.375M219.375 38.9375H221.25M52.5 40.8125H54.375M56.25 40.8125H58.125M93.75 40.8125H95.625M97.5 40.8125H99.375M202.5 40.8125H206.25M219.375 40.8125H221.25M52.5 42.6875H54.375M56.25 42.6875H58.125M93.75 42.6875H95.625M97.5 42.6875H99.375M204.375 42.6875H206.25M219.375 42.6875H221.25M52.5 44.5625H58.125M93.75 44.5625H99.375M204.375 44.5625H208.125M219.375 44.5625H221.25M206.25 46.4375H208.125M219.375 46.4375H221.25M33.75 48.3125H39.375M206.25 48.3125H208.125M219.375 48.3125H221.25M33.75 50.1875H35.625M37.5 50.1875H39.375M206.25 50.1875H208.125M219.375 50.1875H221.25M33.75 52.0625H35.625M37.5 52.0625H39.375M206.25 52.0625H208.125M219.375 52.0625H221.25M33.75 53.9375H35.625M37.5 53.9375H39.375M206.25 53.9375H208.125M219.375 53.9375H221.25M33.75 55.8125H35.625M37.5 55.8125H39.375M206.25 55.8125H208.125M219.375 55.8125H221.25M33.75 57.6875H35.625M37.5 57.6875H39.375M206.25 57.6875H208.125M219.375 57.6875H221.25M22.5 59.5625H35.625M37.5 59.5625H39.375M206.25 59.5625H208.125M219.375 59.5625H221.25M22.5 61.4375H24.375M37.5 61.4375H39.375M206.25 61.4375H208.125M219.375 61.4375H221.25M22.5 63.3125H24.375M26.25 63.3125H39.375M206.25 63.3125H208.125M219.375 63.3125H221.25M22.5 65.1875H24.375M26.25 65.1875H28.125M206.25 65.1875H208.125M219.375 65.1875H221.25M22.5 67.0625H24.375M26.25 67.0625H28.125M206.25 67.0625H208.125M219.375 67.0625H221.25M22.5 68.9375H24.375M26.25 68.9375H28.125M206.25 68.9375H208.125M219.375 68.9375H221.25M22.5 70.8125H24.375M26.25 70.8125H28.125M206.25 70.8125H208.125M219.375 70.8125H221.25M22.5 72.6875H24.375M26.25 72.6875H28.125M206.25 72.6875H208.125M219.375 72.6875H221.25M22.5 74.5625H24.375M26.25 74.5625H28.125M206.25 74.5625H208.125M219.375 74.5625H221.25M22.5 76.4375H24.375M26.25 76.4375H28.125M206.25 76.4375H208.125M219.375 76.4375H221.25M22.5 78.3125H24.375M26.25 78.3125H28.125M206.25 78.3125H208.125M219.375 78.3125H221.25M22.5 80.1875H24.375M26.25 80.1875H28.125M206.25 80.1875H208.125M219.375 80.1875H221.25M22.5 82.0625H24.375M26.25 82.0625H28.125M206.25 82.0625H208.125M219.375 82.0625H221.25M22.5 83.9375H24.375M26.25 83.9375H28.125M206.25 83.9375H208.125M219.375 83.9375H221.25M22.5 85.8125H24.375M26.25 85.8125H28.125M206.25 85.8125H208.125M219.375 85.8125H221.25M22.5 87.6875H24.375M26.25 87.6875H28.125M206.25 87.6875H208.125M219.375 87.6875H221.25M22.5 89.5625H24.375M26.25 89.5625H28.125M206.25 89.5625H208.125M219.375 89.5625H221.25M22.5 91.4375H24.375M26.25 91.4375H28.125M206.25 91.4375H208.125M219.375 91.4375H221.25M22.5 93.3125H24.375M26.25 93.3125H28.125M206.25 93.3125H208.125M219.375 93.3125H221.25M22.5 95.1875H24.375M26.25 95.1875H28.125M206.25 95.1875H208.125M219.375 95.1875H221.25M22.5 97.0625H24.375M26.25 97.0625H28.125M206.25 97.0625H208.125M219.375 97.0625H221.25M22.5 98.9375H24.375M26.25 98.9375H28.125M206.25 98.9375H208.125M219.375 98.9375H221.25M22.5 100.812H24.375M26.25 100.812H28.125M206.25 100.812H208.125M219.375 100.812H221.25M22.5 102.688H24.375M26.25 102.688H28.125M206.25 102.688H208.125M219.375 102.688H221.25M22.5 104.562H24.375M26.25 104.562H28.125M206.25 104.562H208.125M219.375 104.562H221.25M22.5 106.438H24.375M26.25 106.438H28.125M206.25 106.438H208.125M219.375 106.438H221.25M22.5 108.312H24.375M26.25 108.312H28.125M206.25 108.312H208.125M219.375 108.312H221.25M22.5 110.188H24.375M26.25 110.188H28.125M206.25 110.188H208.125M219.375 110.188H221.25M22.5 112.062H24.375M26.25 112.062H28.125M206.25 112.062H208.125M219.375 112.062H221.25M22.5 113.938H24.375M26.25 113.938H28.125M206.25 113.938H208.125M219.375 113.938H221.25M22.5 115.812H24.375M26.25 115.812H28.125M206.25 115.812H208.125M219.375 115.812H221.25M22.5 117.688H24.375M26.25 117.688H28.125M206.25 117.688H208.125M219.375 117.688H221.25M22.5 119.562H24.375M26.25 119.562H28.125M206.25 119.562H208.125M219.375 119.562H221.25M22.5 121.438H24.375M26.25 121.438H28.125M206.25 121.438H208.125M219.375 121.438H221.25M22.5 123.312H24.375M26.25 123.312H28.125M206.25 123.312H208.125M219.375 123.312H221.25M22.5 125.188H24.375M26.25 125.188H28.125M206.25 125.188H208.125M219.375 125.188H221.25M22.5 127.062H24.375M26.25 127.062H28.125M206.25 127.062H208.125M219.375 127.062H221.25M22.5 128.938H24.375M26.25 128.938H28.125M206.25 128.938H208.125M219.375 128.938H221.25M22.5 130.812H24.375M26.25 130.812H28.125M206.25 130.812H208.125M219.375 130.812H221.25M22.5 132.688H24.375M26.25 132.688H28.125M206.25 132.688H208.125M219.375 132.688H221.25M22.5 134.562H24.375M26.25 134.562H28.125M206.25 134.562H208.125M219.375 134.562H221.25M22.5 136.438H24.375M26.25 136.438H28.125M206.25 136.438H208.125M219.375 136.438H221.25M22.5 138.312H24.375M26.25 138.312H28.125M206.25 138.312H208.125M219.375 138.312H221.25M22.5 140.188H24.375M26.25 140.188H28.125M206.25 140.188H208.125M219.375 140.188H221.25M22.5 142.062H24.375M26.25 142.062H28.125M206.25 142.062H208.125M219.375 142.062H221.25M22.5 143.938H24.375M26.25 143.938H28.125M206.25 143.938H208.125M219.375 143.938H221.25M22.5 145.812H24.375M26.25 145.812H28.125M206.25 145.812H208.125M219.375 145.812H221.25M22.5 147.688H24.375M26.25 147.688H28.125M206.25 147.688H208.125M219.375 147.688H221.25M22.5 149.562H24.375M26.25 149.562H28.125M206.25 149.562H208.125M219.375 149.562H221.25M22.5 151.438H24.375M26.25 151.438H28.125M206.25 151.438H208.125M219.375 151.438H221.25M22.5 153.312H24.375M26.25 153.312H28.125M206.25 153.312H208.125M219.375 153.312H221.25M22.5 155.188H24.375M26.25 155.188H28.125M206.25 155.188H208.125M219.375 155.188H221.25M22.5 157.062H24.375M26.25 157.062H28.125M206.25 157.062H208.125M219.375 157.062H221.25M22.5 158.938H24.375M26.25 158.938H28.125M206.25 158.938H208.125M219.375 158.938H221.25M22.5 160.812H24.375M26.25 160.812H28.125M206.25 160.812H208.125M219.375 160.812H221.25M22.5 162.688H24.375M26.25 162.688H28.125M206.25 162.688H208.125M219.375 162.688H221.25M22.5 164.562H24.375M26.25 164.562H28.125M206.25 164.562H208.125M219.375 164.562H221.25M22.5 166.438H24.375M26.25 166.438H28.125M206.25 166.438H208.125M219.375 166.438H221.25M22.5 168.312H24.375M26.25 168.312H28.125M206.25 168.312H208.125M219.375 168.312H221.25M22.5 170.188H24.375M26.25 170.188H28.125M206.25 170.188H208.125M219.375 170.188H221.25M22.5 172.062H24.375M26.25 172.062H28.125M206.25 172.062H208.125M219.375 172.062H221.25M22.5 173.938H24.375M26.25 173.938H28.125M206.25 173.938H208.125M219.375 173.938H221.25M22.5 175.812H24.375M26.25 175.812H28.125M206.25 175.812H208.125M219.375 175.812H221.25M22.5 177.688H24.375M26.25 177.688H28.125M206.25 177.688H208.125M219.375 177.688H221.25M22.5 179.562H24.375M26.25 179.562H28.125M206.25 179.562H208.125M219.375 179.562H221.25M22.5 181.438H24.375M26.25 181.438H28.125M206.25 181.438H208.125M219.375 181.438H221.25M22.5 183.312H24.375M26.25 183.312H28.125M206.25 183.312H208.125M219.375 183.312H221.25M22.5 185.188H24.375M26.25 185.188H28.125M206.25 185.188H208.125M219.375 185.188H221.25M22.5 187.062H24.375M26.25 187.062H28.125M206.25 187.062H208.125M219.375 187.062H221.25M22.5 188.938H24.375M26.25 188.938H28.125M206.25 188.938H208.125M219.375 188.938H221.25M22.5 190.812H24.375M26.25 190.812H28.125M206.25 190.812H208.125M219.375 190.812H221.25M22.5 192.688H24.375M26.25 192.688H28.125M206.25 192.688H208.125M219.375 192.688H221.25M22.5 194.562H24.375M26.25 194.562H28.125M206.25 194.562H208.125M219.375 194.562H221.25M22.5 196.438H24.375M26.25 196.438H28.125M206.25 196.438H208.125M219.375 196.438H221.25M22.5 198.312H24.375M26.25 198.312H28.125M204.375 198.312H208.125M219.375 198.312H221.25M22.5 200.188H24.375M26.25 200.188H28.125M71.25 200.188H76.875M116.25 200.188H121.875M202.5 200.188H206.25M219.375 200.188H221.25M22.5 202.062H24.375M26.25 202.062H28.125M71.25 202.062H73.125M75 202.062H76.875M116.25 202.062H118.125M120 202.062H121.875M202.5 202.062H204.375M219.375 202.062H221.25M22.5 203.938H24.375M26.25 203.938H28.125M69.375 203.938H73.125M75 203.938H76.875M114.375 203.938H118.125M120 203.938H121.875M198.75 203.938H204.375M219.375 203.938H221.25M22.5 205.812H24.375M26.25 205.812H28.125M69.375 205.812H71.25M75 205.812H76.875M114.375 205.812H116.25M120 205.812H121.875M195 205.812H200.625M217.5 205.812H221.25M22.5 207.688H24.375M26.25 207.688H28.125M30 207.688H71.25M75 207.688H116.25M120 207.688H196.875M217.5 207.688H219.375M22.5 209.562H24.375M26.25 209.562H28.125M30 209.562H31.875M215.625 209.562H219.375M22.5 211.438H24.375M26.25 211.438H31.875M215.625 211.438H217.5M22.5 213.312H24.375M213.75 213.312H215.625M22.5 215.188H24.375M211.875 215.188H215.625M22.5 217.062H28.125M210 217.062H213.75M26.25 218.938H28.125M206.25 218.938H210M26.25 220.812H28.125M202.5 220.812H206.25M26.25 222.688H204.375" stroke="black" stroke-width="2"/>
<path d="M33.75 20.1875H35.625H33.75ZM50.625 20.1875H52.5H50.625ZM33.75 22.0625H35.625H33.75ZM76.875 25.8125H86.25H76.875ZM121.875 25.8125H135H121.875ZM148.125 25.8125H159.375H148.125ZM172.5 25.8125H185.625H172.5ZM211.875 25.8125H213.75H211.875ZM76.875 27.6875H80.625H76.875ZM121.875 27.6875H131.25H121.875ZM148.125 27.6875H155.625H148.125ZM172.5 27.6875H180H172.5ZM210 29.5625H213.75H210ZM31.875 31.4375H33.75H31.875ZM37.5 31.4375H39.375H37.5ZM211.875 31.4375H215.625H211.875ZM213.75 33.3125H217.5H213.75ZM213.75 35.1875H217.5H213.75ZM213.75 37.0625H219.375H213.75ZM215.625 38.9375H219.375H215.625ZM217.5 40.8125H219.375H217.5ZM217.5 42.6875H219.375H217.5ZM217.5 44.5625H219.375H217.5ZM35.625 50.1875H37.5H35.625ZM35.625 52.0625H37.5H35.625ZM35.625 53.9375H37.5H35.625ZM35.625 59.5625H37.5H35.625ZM30 61.4375H37.5H30ZM217.5 83.9375H219.375H217.5ZM215.625 85.8125H219.375H215.625ZM213.75 87.6875H219.375H213.75ZM213.75 89.5625H219.375H213.75ZM213.75 91.4375H219.375H213.75ZM215.625 93.3125H219.375H215.625ZM215.625 95.1875H219.375H215.625ZM217.5 97.0625H219.375H217.5ZM217.5 98.9375H219.375H217.5ZM217.5 100.812H219.375H217.5ZM217.5 115.812H219.375H217.5ZM217.5 117.688H219.375H217.5ZM215.625 119.562H219.375H215.625ZM215.625 121.438H219.375H215.625ZM217.5 123.312H219.375H217.5ZM217.5 125.188H219.375H217.5ZM217.5 155.188H219.375H217.5ZM217.5 157.062H219.375H217.5ZM215.625 158.938H219.375H215.625ZM215.625 160.812H219.375H215.625ZM215.625 162.688H219.375H215.625ZM217.5 164.562H219.375H217.5ZM217.5 166.438H219.375H217.5ZM76.875 209.562H116.25H76.875ZM76.875 211.438H78.75H76.875ZM82.5 211.438H114.375H82.5ZM45 217.062H48.75H45ZM142.5 217.062H146.25H142.5ZM172.5 217.062H183.75H172.5Z" fill="black"/>
<path d="M33.75 20.1875H35.625M50.625 20.1875H52.5M33.75 22.0625H35.625M76.875 25.8125H86.25M121.875 25.8125H135M148.125 25.8125H159.375M172.5 25.8125H185.625M211.875 25.8125H213.75M76.875 27.6875H80.625M121.875 27.6875H131.25M148.125 27.6875H155.625M172.5 27.6875H180M210 29.5625H213.75M31.875 31.4375H33.75M37.5 31.4375H39.375M211.875 31.4375H215.625M213.75 33.3125H217.5M213.75 35.1875H217.5M213.75 37.0625H219.375M215.625 38.9375H219.375M217.5 40.8125H219.375M217.5 42.6875H219.375M217.5 44.5625H219.375M35.625 50.1875H37.5M35.625 52.0625H37.5M35.625 53.9375H37.5M35.625 59.5625H37.5M30 61.4375H37.5M217.5 83.9375H219.375M215.625 85.8125H219.375M213.75 87.6875H219.375M213.75 89.5625H219.375M213.75 91.4375H219.375M215.625 93.3125H219.375M215.625 95.1875H219.375M217.5 97.0625H219.375M217.5 98.9375H219.375M217.5 100.812H219.375M217.5 115.812H219.375M217.5 117.688H219.375M215.625 119.562H219.375M215.625 121.438H219.375M217.5 123.312H219.375M217.5 125.188H219.375M217.5 155.188H219.375M217.5 157.062H219.375M215.625 158.938H219.375M215.625 160.812H219.375M215.625 162.688H219.375M217.5 164.562H219.375M217.5 166.438H219.375M76.875 209.562H116.25M76.875 211.438H78.75M82.5 211.438H114.375M45 217.062H48.75M142.5 217.062H146.25M172.5 217.062H183.75" stroke="white" stroke-width="2"/>
<path d="M35.625 20.1875H37.5H35.625ZM48.75 20.1875H50.625H48.75ZM35.625 22.0625H37.5H35.625ZM46.875 22.0625H52.5H46.875ZM33.75 23.9375H54.375H33.75ZM26.25 25.8125H60H26.25ZM63.75 25.8125H76.875H63.75ZM86.25 25.8125H95.625H86.25ZM135 25.8125H148.125H135ZM159.375 25.8125H172.5H159.375ZM200.625 25.8125H204.375H200.625ZM24.375 27.6875H30H24.375ZM33.75 27.6875H41.25H33.75ZM46.875 27.6875H52.5H46.875ZM61.875 27.6875H76.875H61.875ZM80.625 27.6875H93.75H80.625ZM114.375 27.6875H121.875H114.375ZM131.25 27.6875H148.125H131.25ZM155.625 27.6875H172.5H155.625ZM180 27.6875H210H180ZM22.5 29.5625H61.875H22.5ZM67.5 29.5625H95.625H67.5ZM101.25 29.5625H103.125H101.25ZM105 29.5625H210H105ZM22.5 31.4375H28.125H22.5ZM35.625 31.4375H37.5H35.625ZM43.125 31.4375H56.25H43.125ZM63.75 31.4375H93.75H63.75ZM99.375 31.4375H211.875H99.375ZM26.25 33.3125H30H26.25ZM41.25 33.3125H48.75H41.25ZM56.25 33.3125H60H56.25ZM202.5 33.3125H213.75H202.5ZM204.375 35.1875H213.75H204.375ZM208.125 37.0625H213.75H208.125ZM208.125 38.9375H215.625H208.125ZM210 40.8125H217.5H210ZM210 42.6875H217.5H210ZM211.875 44.5625H217.5H211.875ZM211.875 46.4375H219.375H211.875ZM211.875 48.3125H219.375H211.875ZM211.875 50.1875H219.375H211.875ZM211.875 52.0625H219.375H211.875ZM211.875 53.9375H219.375H211.875ZM211.875 55.8125H219.375H211.875ZM211.875 57.6875H219.375H211.875ZM211.875 59.5625H219.375H211.875ZM211.875 61.4375H219.375H211.875ZM211.875 63.3125H219.375H211.875ZM211.875 65.1875H219.375H211.875ZM211.875 67.0625H219.375H211.875ZM24.375 68.9375H26.25H24.375ZM211.875 68.9375H219.375H211.875ZM24.375 70.8125H26.25H24.375ZM211.875 70.8125H219.375H211.875ZM24.375 72.6875H26.25H24.375ZM211.875 72.6875H219.375H211.875ZM24.375 74.5625H26.25H24.375ZM211.875 74.5625H219.375H211.875ZM24.375 76.4375H26.25H24.375ZM211.875 76.4375H219.375H211.875ZM211.875 78.3125H219.375H211.875ZM211.875 80.1875H219.375H211.875ZM211.875 82.0625H217.5H211.875ZM211.875 83.9375H217.5H211.875ZM211.875 85.8125H215.625H211.875ZM24.375 87.6875H26.25H24.375ZM211.875 87.6875H213.75H211.875ZM24.375 89.5625H26.25H24.375ZM211.875 89.5625H213.75H211.875ZM24.375 91.4375H26.25H24.375ZM211.875 91.4375H213.75H211.875ZM24.375 93.3125H26.25H24.375ZM211.875 93.3125H215.625H211.875ZM24.375 95.1875H26.25H24.375ZM211.875 95.1875H215.625H211.875ZM24.375 97.0625H26.25H24.375ZM211.875 97.0625H217.5H211.875ZM211.875 98.9375H217.5H211.875ZM211.875 100.812H217.5H211.875ZM211.875 102.688H219.375H211.875ZM211.875 104.562H219.375H211.875ZM211.875 106.438H219.375H211.875ZM24.375 108.312H26.25H24.375ZM211.875 108.312H219.375H211.875ZM24.375 110.188H26.25H24.375ZM211.875 110.188H219.375H211.875ZM24.375 112.062H26.25H24.375ZM211.875 112.062H219.375H211.875ZM24.375 113.938H26.25H24.375ZM211.875 113.938H219.375H211.875ZM24.375 115.812H26.25H24.375ZM211.875 115.812H217.5H211.875ZM24.375 117.688H26.25H24.375ZM211.875 117.688H217.5H211.875ZM24.375 119.562H26.25H24.375ZM211.875 119.562H215.625H211.875ZM24.375 121.438H26.25H24.375ZM211.875 121.438H215.625H211.875ZM24.375 123.312H26.25H24.375ZM211.875 123.312H217.5H211.875ZM211.875 125.188H217.5H211.875ZM211.875 127.062H219.375H211.875ZM211.875 128.938H219.375H211.875ZM211.875 130.812H219.375H211.875ZM211.875 132.688H219.375H211.875ZM24.375 134.562H26.25H24.375ZM211.875 134.562H219.375H211.875ZM24.375 136.438H26.25H24.375ZM211.875 136.438H219.375H211.875ZM24.375 138.312H26.25H24.375ZM211.875 138.312H219.375H211.875ZM24.375 140.188H26.25H24.375ZM211.875 140.188H219.375H211.875ZM24.375 142.062H26.25H24.375ZM211.875 142.062H217.5H211.875ZM24.375 143.938H26.25H24.375ZM211.875 143.938H217.5H211.875ZM24.375 145.812H26.25H24.375ZM211.875 145.812H217.5H211.875ZM24.375 147.688H26.25H24.375ZM211.875 147.688H217.5H211.875ZM24.375 149.562H26.25H24.375ZM211.875 149.562H217.5H211.875ZM211.875 151.438H217.5H211.875ZM211.875 153.312H217.5H211.875ZM211.875 155.188H217.5H211.875ZM211.875 157.062H217.5H211.875ZM211.875 158.938H215.625H211.875ZM24.375 160.812H26.25H24.375ZM211.875 160.812H215.625H211.875ZM24.375 162.688H26.25H24.375ZM211.875 162.688H215.625H211.875ZM24.375 164.562H26.25H24.375ZM211.875 164.562H217.5H211.875ZM24.375 166.438H26.25H24.375ZM211.875 166.438H217.5H211.875ZM24.375 168.312H26.25H24.375ZM211.875 168.312H217.5H211.875ZM24.375 170.188H26.25H24.375ZM211.875 170.188H217.5H211.875ZM24.375 172.062H26.25H24.375ZM211.875 172.062H219.375H211.875ZM211.875 173.938H219.375H211.875ZM211.875 175.812H219.375H211.875ZM211.875 177.688H219.375H211.875ZM211.875 179.562H219.375H211.875ZM211.875 181.438H219.375H211.875ZM211.875 183.312H219.375H211.875ZM211.875 185.188H219.375H211.875ZM211.875 187.062H219.375H211.875ZM211.875 188.938H219.375H211.875ZM211.875 190.812H219.375H211.875ZM211.875 192.688H219.375H211.875ZM211.875 194.562H219.375H211.875ZM211.875 196.438H217.5H211.875ZM211.875 198.312H217.5H211.875ZM210 200.188H217.5H210ZM73.125 202.062H75H73.125ZM208.125 202.062H217.5H208.125ZM73.125 203.938H75H73.125ZM206.25 203.938H215.625H206.25ZM116.25 205.812H120H116.25ZM200.625 205.812H215.625H200.625ZM71.25 207.688H75H71.25ZM116.25 207.688H120H116.25ZM196.875 207.688H213.75H196.875ZM31.875 209.562H33.75H31.875ZM45 209.562H76.875H45ZM116.25 209.562H211.875H116.25ZM31.875 211.438H76.875H31.875ZM78.75 211.438H82.5H78.75ZM114.375 211.438H210H114.375ZM28.125 213.312H208.125H28.125ZM28.125 215.188H206.25H28.125ZM30 217.062H45H30ZM48.75 217.062H142.5H48.75ZM146.25 217.062H172.5H146.25ZM183.75 217.062H204.375H183.75Z" fill="black"/>
<path d="M35.625 20.1875H37.5M48.75 20.1875H50.625M35.625 22.0625H37.5M46.875 22.0625H52.5M33.75 23.9375H54.375M26.25 25.8125H60M63.75 25.8125H76.875M86.25 25.8125H95.625M135 25.8125H148.125M159.375 25.8125H172.5M200.625 25.8125H204.375M24.375 27.6875H30M33.75 27.6875H41.25M46.875 27.6875H52.5M61.875 27.6875H76.875M80.625 27.6875H93.75M114.375 27.6875H121.875M131.25 27.6875H148.125M155.625 27.6875H172.5M180 27.6875H210M22.5 29.5625H61.875M67.5 29.5625H95.625M101.25 29.5625H103.125M105 29.5625H210M22.5 31.4375H28.125M35.625 31.4375H37.5M43.125 31.4375H56.25M63.75 31.4375H93.75M99.375 31.4375H211.875M26.25 33.3125H30M41.25 33.3125H48.75M56.25 33.3125H60M202.5 33.3125H213.75M204.375 35.1875H213.75M208.125 37.0625H213.75M208.125 38.9375H215.625M210 40.8125H217.5M210 42.6875H217.5M211.875 44.5625H217.5M211.875 46.4375H219.375M211.875 48.3125H219.375M211.875 50.1875H219.375M211.875 52.0625H219.375M211.875 53.9375H219.375M211.875 55.8125H219.375M211.875 57.6875H219.375M211.875 59.5625H219.375M211.875 61.4375H219.375M211.875 63.3125H219.375M211.875 65.1875H219.375M211.875 67.0625H219.375M24.375 68.9375H26.25M211.875 68.9375H219.375M24.375 70.8125H26.25M211.875 70.8125H219.375M24.375 72.6875H26.25M211.875 72.6875H219.375M24.375 74.5625H26.25M211.875 74.5625H219.375M24.375 76.4375H26.25M211.875 76.4375H219.375M211.875 78.3125H219.375M211.875 80.1875H219.375M211.875 82.0625H217.5M211.875 83.9375H217.5M211.875 85.8125H215.625M24.375 87.6875H26.25M211.875 87.6875H213.75M24.375 89.5625H26.25M211.875 89.5625H213.75M24.375 91.4375H26.25M211.875 91.4375H213.75M24.375 93.3125H26.25M211.875 93.3125H215.625M24.375 95.1875H26.25M211.875 95.1875H215.625M24.375 97.0625H26.25M211.875 97.0625H217.5M211.875 98.9375H217.5M211.875 100.812H217.5M211.875 102.688H219.375M211.875 104.562H219.375M211.875 106.438H219.375M24.375 108.312H26.25M211.875 108.312H219.375M24.375 110.188H26.25M211.875 110.188H219.375M24.375 112.062H26.25M211.875 112.062H219.375M24.375 113.938H26.25M211.875 113.938H219.375M24.375 115.812H26.25M211.875 115.812H217.5M24.375 117.688H26.25M211.875 117.688H217.5M24.375 119.562H26.25M211.875 119.562H215.625M24.375 121.438H26.25M211.875 121.438H215.625M24.375 123.312H26.25M211.875 123.312H217.5M211.875 125.188H217.5M211.875 127.062H219.375M211.875 128.938H219.375M211.875 130.812H219.375M211.875 132.688H219.375M24.375 134.562H26.25M211.875 134.562H219.375M24.375 136.438H26.25M211.875 136.438H219.375M24.375 138.312H26.25M211.875 138.312H219.375M24.375 140.188H26.25M211.875 140.188H219.375M24.375 142.062H26.25M211.875 142.062H217.5M24.375 143.938H26.25M211.875 143.938H217.5M24.375 145.812H26.25M211.875 145.812H217.5M24.375 147.688H26.25M211.875 147.688H217.5M24.375 149.562H26.25M211.875 149.562H217.5M211.875 151.438H217.5M211.875 153.312H217.5M211.875 155.188H217.5M211.875 157.062H217.5M211.875 158.938H215.625M24.375 160.812H26.25M211.875 160.812H215.625M24.375 162.688H26.25M211.875 162.688H215.625M24.375 164.562H26.25M211.875 164.562H217.5M24.375 166.438H26.25M211.875 166.438H217.5M24.375 168.312H26.25M211.875 168.312H217.5M24.375 170.188H26.25M211.875 170.188H217.5M24.375 172.062H26.25M211.875 172.062H219.375M211.875 173.938H219.375M211.875 175.812H219.375M211.875 177.688H219.375M211.875 179.562H219.375M211.875 181.438H219.375M211.875 183.312H219.375M211.875 185.188H219.375M211.875 187.062H219.375M211.875 188.938H219.375M211.875 190.812H219.375M211.875 192.688H219.375M211.875 194.562H219.375M211.875 196.438H217.5M211.875 198.312H217.5M210 200.188H217.5M73.125 202.062H75M208.125 202.062H217.5M73.125 203.938H75M206.25 203.938H215.625M116.25 205.812H120M200.625 205.812H215.625M71.25 207.688H75M116.25 207.688H120M196.875 207.688H213.75M31.875 209.562H33.75M45 209.562H76.875M116.25 209.562H211.875M31.875 211.438H76.875M78.75 211.438H82.5M114.375 211.438H210M28.125 213.312H208.125M28.125 215.188H206.25M30 217.062H45M48.75 217.062H142.5M146.25 217.062H172.5M183.75 217.062H204.375" stroke="#EF9E3D" stroke-width="2"/>
<path d="M95.625 25.8125H97.5H95.625ZM93.75 27.6875H95.625H93.75Z" fill="black"/>
<path d="M95.625 25.8125H97.5M93.75 27.6875H95.625" stroke="#EF9D3D" stroke-width="2"/>
<path d="M97.5 25.8125H99.375H97.5Z" fill="black"/>
<path d="M97.5 25.8125H99.375" stroke="#EF9B3D" stroke-width="2"/>
<path d="M99.375 25.8125H101.25H99.375ZM95.625 27.6875H97.5H95.625Z" fill="black"/>
<path d="M99.375 25.8125H101.25M95.625 27.6875H97.5" stroke="#EF9C3E" stroke-width="2"/>
<path d="M101.25 25.8125H105H101.25Z" fill="black"/>
<path d="M101.25 25.8125H105" stroke="#EF9C3D" stroke-width="2"/>
<path d="M105 25.8125H106.875H105Z" fill="black"/>
<path d="M105 25.8125H106.875" stroke="#F09D3D" stroke-width="2"/>
<path d="M106.875 25.8125H108.75H106.875Z" fill="black"/>
<path d="M106.875 25.8125H108.75" stroke="#EE9C3D" stroke-width="2"/>
<path d="M108.75 25.8125H110.625H108.75Z" fill="black"/>
<path d="M108.75 25.8125H110.625" stroke="#F09C3D" stroke-opacity="0.929412" stroke-width="2"/>
<path d="M110.625 25.8125H112.5H110.625ZM120 25.8125H121.875H120Z" fill="black"/>
<path d="M110.625 25.8125H112.5M120 25.8125H121.875" stroke="#EF9C3C" stroke-width="2"/>
<path d="M112.5 25.8125H114.375H112.5ZM185.625 25.8125H187.5H185.625ZM101.25 27.6875H103.125H101.25ZM99.375 29.5625H101.25H99.375ZM217.5 142.062H219.375H217.5ZM217.5 151.438H219.375H217.5ZM217.5 168.312H219.375H217.5ZM217.5 170.188H219.375H217.5ZM118.125 203.938H120H118.125ZM33.75 209.562H37.5H33.75ZM41.25 209.562H43.125H41.25Z" fill="black"/>
<path d="M112.5 25.8125H114.375M185.625 25.8125H187.5M101.25 27.6875H103.125M99.375 29.5625H101.25M217.5 142.062H219.375M217.5 151.438H219.375M217.5 168.312H219.375M217.5 170.188H219.375M118.125 203.938H120M33.75 209.562H37.5M41.25 209.562H43.125" stroke="#EF9D3C" stroke-width="2"/>
<path d="M114.375 25.8125H116.25H114.375ZM97.5 27.6875H101.25H97.5Z" fill="black"/>
<path d="M114.375 25.8125H116.25M97.5 27.6875H101.25" stroke="#F09C3D" stroke-width="2"/>
<path d="M116.25 25.8125H118.125H116.25Z" fill="black"/>
<path d="M116.25 25.8125H118.125" stroke="#EE9C3E" stroke-width="2"/>
<path d="M118.125 25.8125H120H118.125Z" fill="black"/>
<path d="M118.125 25.8125H120" stroke="#F09C3E" stroke-width="2"/>
<path d="M187.5 25.8125H189.375H187.5Z" fill="black"/>
<path d="M187.5 25.8125H189.375" stroke="#EF9C3C" stroke-opacity="0.988235" stroke-width="2"/>
<path d="M189.375 25.8125H191.25H189.375ZM217.5 145.812H219.375H217.5ZM217.5 149.562H219.375H217.5ZM217.5 153.312H219.375H217.5Z" fill="black"/>
<path d="M189.375 25.8125H191.25M217.5 145.812H219.375M217.5 149.562H219.375M217.5 153.312H219.375" stroke="#EF9E3C" stroke-opacity="0.996078" stroke-width="2"/>
<path d="M191.25 25.8125H193.125H191.25Z" fill="black"/>
<path d="M191.25 25.8125H193.125" stroke="#F09D3D" stroke-opacity="0.945098" stroke-width="2"/>
<path d="M193.125 25.8125H195H193.125ZM71.25 205.812H73.125H71.25Z" fill="black"/>
<path d="M193.125 25.8125H195M71.25 205.812H73.125" stroke="#F09D3C" stroke-opacity="0.992157" stroke-width="2"/>
<path d="M195 25.8125H196.875H195ZM217.5 147.688H219.375H217.5ZM37.5 209.562H41.25H37.5Z" fill="black"/>
<path d="M195 25.8125H196.875M217.5 147.688H219.375M37.5 209.562H41.25" stroke="#EF9D3C" stroke-opacity="0.988235" stroke-width="2"/>
<path d="M196.875 25.8125H198.75H196.875Z" fill="black"/>
<path d="M196.875 25.8125H198.75" stroke="#EF9B3C" stroke-opacity="0.964706" stroke-width="2"/>
<path d="M198.75 25.8125H200.625H198.75Z" fill="black"/>
<path d="M198.75 25.8125H200.625" stroke="#F09C3C" stroke-opacity="0.972549" stroke-width="2"/>
<path d="M103.125 27.6875H105H103.125Z" fill="black"/>
<path d="M103.125 27.6875H105" stroke="#EF9E3C" stroke-width="2"/>
<path d="M105 27.6875H106.875H105ZM108.75 27.6875H114.375H108.75ZM97.5 29.5625H99.375H97.5ZM103.125 29.5625H105H103.125ZM95.625 31.4375H99.375H95.625Z" fill="black"/>
<path d="M105 27.6875H106.875M108.75 27.6875H114.375M97.5 29.5625H99.375M103.125 29.5625H105M95.625 31.4375H99.375" stroke="#F09E3C" stroke-width="2"/>
<path d="M106.875 27.6875H108.75H106.875Z" fill="black"/>
<path d="M106.875 27.6875H108.75" stroke="#F09D3C" stroke-width="2"/>
<path d="M95.625 29.5625H97.5H95.625ZM93.75 31.4375H95.625H93.75Z" fill="black"/>
<path d="M95.625 29.5625H97.5M93.75 31.4375H95.625" stroke="#F09E3D" stroke-width="2"/>
<path d="M24.375 33.3125H26.25H24.375ZM60 33.3125H202.5H60ZM26.25 35.1875H54.375H26.25ZM58.125 35.1875H204.375H58.125ZM54.375 37.0625H58.125H54.375ZM95.625 37.0625H99.375H95.625ZM200.625 37.0625H208.125H200.625ZM54.375 38.9375H56.25H54.375ZM95.625 38.9375H97.5H95.625ZM204.375 38.9375H208.125H204.375ZM54.375 40.8125H56.25H54.375ZM95.625 40.8125H97.5H95.625ZM206.25 40.8125H210H206.25ZM54.375 42.6875H56.25H54.375ZM95.625 42.6875H97.5H95.625ZM206.25 42.6875H210H206.25ZM208.125 44.5625H211.875H208.125ZM208.125 46.4375H211.875H208.125ZM208.125 48.3125H211.875H208.125ZM208.125 50.1875H211.875H208.125ZM208.125 52.0625H211.875H208.125ZM208.125 53.9375H211.875H208.125ZM35.625 55.8125H37.5H35.625ZM208.125 55.8125H211.875H208.125ZM35.625 57.6875H37.5H35.625ZM208.125 57.6875H211.875H208.125ZM208.125 59.5625H211.875H208.125ZM24.375 61.4375H30H24.375ZM208.125 61.4375H211.875H208.125ZM24.375 63.3125H26.25H24.375ZM208.125 63.3125H211.875H208.125ZM24.375 65.1875H26.25H24.375ZM208.125 65.1875H211.875H208.125ZM24.375 67.0625H26.25H24.375ZM208.125 67.0625H211.875H208.125ZM208.125 68.9375H211.875H208.125ZM208.125 70.8125H211.875H208.125ZM208.125 72.6875H211.875H208.125ZM208.125 74.5625H211.875H208.125ZM208.125 76.4375H211.875H208.125ZM24.375 78.3125H26.25H24.375ZM208.125 78.3125H211.875H208.125ZM24.375 80.1875H26.25H24.375ZM208.125 80.1875H211.875H208.125ZM24.375 82.0625H26.25H24.375ZM208.125 82.0625H211.875H208.125ZM24.375 83.9375H26.25H24.375ZM208.125 83.9375H211.875H208.125ZM24.375 85.8125H26.25H24.375ZM208.125 85.8125H211.875H208.125ZM208.125 87.6875H211.875H208.125ZM208.125 89.5625H211.875H208.125ZM208.125 91.4375H211.875H208.125ZM208.125 93.3125H211.875H208.125ZM208.125 95.1875H211.875H208.125ZM208.125 97.0625H211.875H208.125ZM24.375 98.9375H26.25H24.375ZM208.125 98.9375H211.875H208.125ZM24.375 100.812H26.25H24.375ZM208.125 100.812H211.875H208.125ZM24.375 102.688H26.25H24.375ZM208.125 102.688H211.875H208.125ZM24.375 104.562H26.25H24.375ZM208.125 104.562H211.875H208.125ZM24.375 106.438H26.25H24.375ZM208.125 106.438H211.875H208.125ZM208.125 108.312H211.875H208.125ZM208.125 110.188H211.875H208.125ZM208.125 112.062H211.875H208.125ZM208.125 113.938H211.875H208.125ZM208.125 115.812H211.875H208.125ZM208.125 117.688H211.875H208.125ZM208.125 119.562H211.875H208.125ZM208.125 121.438H211.875H208.125ZM208.125 123.312H211.875H208.125ZM24.375 125.188H26.25H24.375ZM208.125 125.188H211.875H208.125ZM24.375 127.062H26.25H24.375ZM208.125 127.062H211.875H208.125ZM24.375 128.938H26.25H24.375ZM208.125 128.938H211.875H208.125ZM24.375 130.812H26.25H24.375ZM208.125 130.812H211.875H208.125ZM24.375 132.688H26.25H24.375ZM208.125 132.688H211.875H208.125ZM208.125 134.562H211.875H208.125ZM208.125 136.438H211.875H208.125ZM208.125 138.312H211.875H208.125ZM208.125 140.188H211.875H208.125ZM208.125 142.062H211.875H208.125ZM208.125 143.938H211.875H208.125ZM208.125 145.812H211.875H208.125ZM208.125 147.688H211.875H208.125ZM208.125 149.562H211.875H208.125ZM24.375 151.438H26.25H24.375ZM208.125 151.438H211.875H208.125ZM24.375 153.312H26.25H24.375ZM208.125 153.312H211.875H208.125ZM24.375 155.188H26.25H24.375ZM208.125 155.188H211.875H208.125ZM24.375 157.062H26.25H24.375ZM208.125 157.062H211.875H208.125ZM24.375 158.938H26.25H24.375ZM208.125 158.938H211.875H208.125ZM208.125 160.812H211.875H208.125ZM208.125 162.688H211.875H208.125ZM208.125 164.562H211.875H208.125ZM208.125 166.438H211.875H208.125ZM208.125 168.312H211.875H208.125ZM208.125 170.188H211.875H208.125ZM208.125 172.062H211.875H208.125ZM24.375 173.938H26.25H24.375ZM208.125 173.938H211.875H208.125ZM24.375 175.812H26.25H24.375ZM208.125 175.812H211.875H208.125ZM24.375 177.688H26.25H24.375ZM208.125 177.688H211.875H208.125ZM24.375 179.562H26.25H24.375ZM208.125 179.562H211.875H208.125ZM24.375 181.438H26.25H24.375ZM208.125 181.438H211.875H208.125ZM24.375 183.312H26.25H24.375ZM208.125 183.312H211.875H208.125ZM24.375 185.188H26.25H24.375ZM208.125 185.188H211.875H208.125ZM24.375 187.062H26.25H24.375ZM208.125 187.062H211.875H208.125ZM24.375 188.938H26.25H24.375ZM208.125 188.938H211.875H208.125ZM24.375 190.812H26.25H24.375ZM208.125 190.812H211.875H208.125ZM24.375 192.688H26.25H24.375ZM208.125 192.688H211.875H208.125ZM24.375 194.562H26.25H24.375ZM208.125 194.562H211.875H208.125ZM24.375 196.438H26.25H24.375ZM208.125 196.438H211.875H208.125ZM217.5 196.438H219.375H217.5ZM24.375 198.312H26.25H24.375ZM208.125 198.312H211.875H208.125ZM217.5 198.312H219.375H217.5ZM24.375 200.188H26.25H24.375ZM206.25 200.188H210H206.25ZM217.5 200.188H219.375H217.5ZM24.375 202.062H26.25H24.375ZM204.375 202.062H208.125H204.375ZM217.5 202.062H219.375H217.5ZM24.375 203.938H26.25H24.375ZM204.375 203.938H206.25H204.375ZM215.625 203.938H219.375H215.625ZM24.375 205.812H26.25H24.375ZM215.625 205.812H217.5H215.625ZM24.375 207.688H26.25H24.375ZM213.75 207.688H217.5H213.75ZM24.375 209.562H26.25H24.375ZM211.875 209.562H215.625H211.875ZM24.375 211.438H26.25H24.375ZM210 211.438H215.625H210ZM24.375 213.312H28.125H24.375ZM208.125 213.312H213.75H208.125ZM24.375 215.188H28.125H24.375ZM206.25 215.188H211.875H206.25ZM28.125 217.062H30H28.125ZM204.375 217.062H210H204.375ZM28.125 218.938H41.25H28.125ZM50.625 218.938H135H50.625ZM146.25 218.938H172.5H146.25ZM181.875 218.938H206.25H181.875ZM28.125 220.812H39.375H28.125ZM46.875 220.812H127.5H46.875ZM144.375 220.812H172.5H144.375ZM181.875 220.812H202.5H181.875Z" fill="black"/>
<path d="M24.375 33.3125H26.25M60 33.3125H202.5M26.25 35.1875H54.375M58.125 35.1875H204.375M54.375 37.0625H58.125M95.625 37.0625H99.375M200.625 37.0625H208.125M54.375 38.9375H56.25M95.625 38.9375H97.5M204.375 38.9375H208.125M54.375 40.8125H56.25M95.625 40.8125H97.5M206.25 40.8125H210M54.375 42.6875H56.25M95.625 42.6875H97.5M206.25 42.6875H210M208.125 44.5625H211.875M208.125 46.4375H211.875M208.125 48.3125H211.875M208.125 50.1875H211.875M208.125 52.0625H211.875M208.125 53.9375H211.875M35.625 55.8125H37.5M208.125 55.8125H211.875M35.625 57.6875H37.5M208.125 57.6875H211.875M208.125 59.5625H211.875M24.375 61.4375H30M208.125 61.4375H211.875M24.375 63.3125H26.25M208.125 63.3125H211.875M24.375 65.1875H26.25M208.125 65.1875H211.875M24.375 67.0625H26.25M208.125 67.0625H211.875M208.125 68.9375H211.875M208.125 70.8125H211.875M208.125 72.6875H211.875M208.125 74.5625H211.875M208.125 76.4375H211.875M24.375 78.3125H26.25M208.125 78.3125H211.875M24.375 80.1875H26.25M208.125 80.1875H211.875M24.375 82.0625H26.25M208.125 82.0625H211.875M24.375 83.9375H26.25M208.125 83.9375H211.875M24.375 85.8125H26.25M208.125 85.8125H211.875M208.125 87.6875H211.875M208.125 89.5625H211.875M208.125 91.4375H211.875M208.125 93.3125H211.875M208.125 95.1875H211.875M208.125 97.0625H211.875M24.375 98.9375H26.25M208.125 98.9375H211.875M24.375 100.812H26.25M208.125 100.812H211.875M24.375 102.688H26.25M208.125 102.688H211.875M24.375 104.562H26.25M208.125 104.562H211.875M24.375 106.438H26.25M208.125 106.438H211.875M208.125 108.312H211.875M208.125 110.188H211.875M208.125 112.062H211.875M208.125 113.938H211.875M208.125 115.812H211.875M208.125 117.688H211.875M208.125 119.562H211.875M208.125 121.438H211.875M208.125 123.312H211.875M24.375 125.188H26.25M208.125 125.188H211.875M24.375 127.062H26.25M208.125 127.062H211.875M24.375 128.938H26.25M208.125 128.938H211.875M24.375 130.812H26.25M208.125 130.812H211.875M24.375 132.688H26.25M208.125 132.688H211.875M208.125 134.562H211.875M208.125 136.438H211.875M208.125 138.312H211.875M208.125 140.188H211.875M208.125 142.062H211.875M208.125 143.938H211.875M208.125 145.812H211.875M208.125 147.688H211.875M208.125 149.562H211.875M24.375 151.438H26.25M208.125 151.438H211.875M24.375 153.312H26.25M208.125 153.312H211.875M24.375 155.188H26.25M208.125 155.188H211.875M24.375 157.062H26.25M208.125 157.062H211.875M24.375 158.938H26.25M208.125 158.938H211.875M208.125 160.812H211.875M208.125 162.688H211.875M208.125 164.562H211.875M208.125 166.438H211.875M208.125 168.312H211.875M208.125 170.188H211.875M208.125 172.062H211.875M24.375 173.938H26.25M208.125 173.938H211.875M24.375 175.812H26.25M208.125 175.812H211.875M24.375 177.688H26.25M208.125 177.688H211.875M24.375 179.562H26.25M208.125 179.562H211.875M24.375 181.438H26.25M208.125 181.438H211.875M24.375 183.312H26.25M208.125 183.312H211.875M24.375 185.188H26.25M208.125 185.188H211.875M24.375 187.062H26.25M208.125 187.062H211.875M24.375 188.938H26.25M208.125 188.938H211.875M24.375 190.812H26.25M208.125 190.812H211.875M24.375 192.688H26.25M208.125 192.688H211.875M24.375 194.562H26.25M208.125 194.562H211.875M24.375 196.438H26.25M208.125 196.438H211.875M217.5 196.438H219.375M24.375 198.312H26.25M208.125 198.312H211.875M217.5 198.312H219.375M24.375 200.188H26.25M206.25 200.188H210M217.5 200.188H219.375M24.375 202.062H26.25M204.375 202.062H208.125M217.5 202.062H219.375M24.375 203.938H26.25M204.375 203.938H206.25M215.625 203.938H219.375M24.375 205.812H26.25M215.625 205.812H217.5M24.375 207.688H26.25M213.75 207.688H217.5M24.375 209.562H26.25M211.875 209.562H215.625M24.375 211.438H26.25M210 211.438H215.625M24.375 213.312H28.125M208.125 213.312H213.75M24.375 215.188H28.125M206.25 215.188H211.875M28.125 217.062H30M204.375 217.062H210M28.125 218.938H41.25M50.625 218.938H135M146.25 218.938H172.5M181.875 218.938H206.25M28.125 220.812H39.375M46.875 220.812H127.5M144.375 220.812H172.5M181.875 220.812H202.5" stroke="#C25504" stroke-width="2"/>
<path d="M217.5 82.0625H219.375H217.5ZM43.125 209.562H45H43.125Z" fill="black"/>
<path d="M217.5 82.0625H219.375M43.125 209.562H45" stroke="#F09E3C" stroke-opacity="0.996078" stroke-width="2"/>
<path d="M221.25 134.562H223.125H221.25ZM206.25 220.812H208.125H206.25Z" fill="black"/>
<path d="M221.25 134.562H223.125M206.25 220.812H208.125" stroke="#EF983E" stroke-opacity="0.243137" stroke-width="2"/>
<path d="M221.25 136.438H223.125H221.25Z" fill="black"/>
<path d="M221.25 136.438H223.125" stroke="#F09B3E" stroke-opacity="0.129412" stroke-width="2"/>
<path d="M217.5 143.938H219.375H217.5Z" fill="black"/>
<path d="M217.5 143.938H219.375" stroke="#F09D3C" stroke-opacity="0.988235" stroke-width="2"/>
<path d="M118.125 202.062H120H118.125Z" fill="black"/>
<path d="M118.125 202.062H120" stroke="#F09B3D" stroke-opacity="0.952941" stroke-width="2"/>
<path d="M73.125 205.812H75H73.125Z" fill="black"/>
<path d="M73.125 205.812H75" stroke="#EF9D3C" stroke-opacity="0.992157" stroke-width="2"/>
<path d="M41.25 218.938H50.625H41.25ZM135 218.938H146.25H135ZM172.5 218.938H181.875H172.5ZM39.375 220.812H46.875H39.375ZM127.5 220.812H144.375H127.5ZM172.5 220.812H181.875H172.5Z" fill="black"/>
<path d="M41.25 218.938H50.625M135 218.938H146.25M172.5 218.938H181.875M39.375 220.812H46.875M127.5 220.812H144.375M172.5 220.812H181.875" stroke="#FFC6A7" stroke-width="2"/>
<defs>
<filter id="filter0_d_2783_43889" x="36" y="33.5" width="174" height="186" filterUnits="userSpaceOnUse" color-interpolation-filters="sRGB">
<feFlood flood-opacity="0" result="BackgroundImageFix"/>
<feColorMatrix in="SourceAlpha" type="matrix" values="0 0 0 0 0 0 0 0 0 0 0 0 0 0 0 0 0 0 127 0" result="hardAlpha"/>
<feOffset dy="8"/>
<feComposite in2="hardAlpha" operator="out"/>
<feColorMatrix type="matrix" values="0 0 0 0 0 0 0 0 0 0 0 0 0 0 0 0 0 0 1 0"/>
<feBlend mode="normal" in2="BackgroundImageFix" result="effect1_dropShadow_2783_43889"/>
<feBlend mode="normal" in="SourceGraphic" in2="effect1_dropShadow_2783_43889" result="shape"/>
</filter>
</defs>
</svg>
