<svg xmlns="http://www.w3.org/2000/svg" viewBox="0 -0.5 40 27" shape-rendering="crispEdges">
<metadata>Made with Pixels to Svg https://codepen.io/shshaw/pen/XbxvNj</metadata>
<path stroke="#000000" d="M25 6h2M21 7h5M27 7h3M15 8h3M19 8h2M22 8h1M29 8h1M14 9h2M17 9h3M30 9h1M13 10h1M30 10h1M12 11h1M30 11h1M11 12h1M30 12h1M7 13h5M30 13h2M7 14h3M31 14h2M9 15h2M31 15h1M10 16h1M30 16h2M10 17h2M22 17h2M29 17h3M11 18h5M19 18h4M24 18h5M16 19h3" />
<path stroke="#ffffff" d="M26 7h1M21 8h1M23 8h6M16 9h1M20 9h10M14 10h8M24 10h6M13 11h9M24 11h6M12 12h18M12 13h18M10 14h14M26 14h1M29 14h2M11 15h2M15 15h1M19 15h3M29 15h2M11 16h3M19 16h7M28 16h2M12 17h5M18 17h4M24 17h5M16 18h3" />
<path stroke="#83beea" d="M22 10h2M22 11h2" />
<path stroke="#64b5ef" d="M24 14h2M27 14h2M13 15h2M16 15h3M22 15h7M14 16h5M26 16h2M17 17h1" />
</svg>