<svg xmlns="http://www.w3.org/2000/svg" viewBox="0 -0.5 39 29" shape-rendering="crispEdges">
<metadata>Made with Pixels to Svg https://codepen.io/shshaw/pen/XbxvNj</metadata>
<path stroke="#000000" d="M25 8h2M21 9h5M27 9h3M15 10h3M19 10h2M22 10h1M29 10h1M14 11h2M17 11h3M30 11h1M13 12h1M30 12h1M12 13h1M30 13h1M11 14h1M30 14h1M7 15h5M30 15h2M7 16h3M31 16h2M9 17h2M31 17h1M10 18h1M30 18h2M10 19h2M22 19h2M29 19h3M11 20h5M19 20h4M24 20h5M16 21h3" />
<path stroke="#ffffff" d="M26 9h1M21 10h1M23 10h6M16 11h1M20 11h10M14 12h8M24 12h6M13 13h9M24 13h6M12 14h18M12 15h18M10 16h14M26 16h1M29 16h2M11 17h2M15 17h1M19 17h3M29 17h2M11 18h3M19 18h7M28 18h2M12 19h5M18 19h4M24 19h5M16 20h3" />
<path stroke="#83beea" d="M22 12h2M22 13h2" />
<path stroke="#64b5ef" d="M24 16h2M27 16h2M13 17h2M16 17h3M22 17h7M14 18h5M26 18h2M17 19h1" />
</svg>