<svg xmlns="http://www.w3.org/2000/svg" viewBox="0 -0.5 52 35" shape-rendering="crispEdges">
<metadata>Made with Pixels to Svg https://codepen.io/shshaw/pen/XbxvNj</metadata>
<path stroke="#000000" d="M27 10h5M26 11h2M31 11h2M17 12h6M26 12h1M32 12h4M15 13h2M23 13h1M26 13h1M33 13h1M35 13h1M14 14h2M24 14h3M35 14h1M12 15h3M25 15h2M35 15h2M38 15h2M12 16h1M36 16h4M12 17h1M40 17h1M9 18h3M40 18h2M9 19h2M42 19h1M6 20h5M42 20h1M7 21h2M42 21h1M8 22h7M42 22h1M14 23h1M34 23h3M40 23h2M15 24h2M31 24h3M36 24h5M16 25h1M21 25h11M17 26h4" />
<path stroke="#ffffff" d="M28 11h3M27 12h5M17 13h6M27 13h6M34 13h1M16 14h8M27 14h8M15 15h3M20 15h5M27 15h8M13 16h5M21 16h15M13 17h5M21 17h19M12 18h28M11 19h31M11 20h2M17 20h13M32 20h3M37 20h1M40 20h2M9 21h6M18 21h9M33 21h3M40 21h2M15 22h1M18 22h3M32 22h5M39 22h3M15 23h8M29 23h5M37 23h3M17 24h14M17 25h4" />
<path stroke="#83beea" d="M18 15h2M18 16h3M18 17h3" />
<path stroke="#64b5ef" d="M13 20h4M30 20h2M35 20h2M38 20h2M15 21h3M27 21h6M36 21h4M16 22h2M21 22h11M37 22h2M23 23h6" />
</svg>