<svg xmlns="http://www.w3.org/2000/svg" viewBox="0 -0.5 53 30" shape-rendering="crispEdges">
<metadata>Made with Pixels to Svg https://codepen.io/shshaw/pen/XbxvNj</metadata>
<path stroke="#000000" d="M28 6h5M27 7h2M32 7h2M18 8h6M27 8h1M33 8h4M16 9h2M24 9h1M27 9h1M34 9h1M36 9h1M15 10h2M25 10h3M36 10h1M13 11h3M26 11h2M36 11h2M39 11h2M13 12h1M37 12h4M13 13h1M41 13h1M10 14h3M41 14h2M10 15h2M43 15h1M7 16h5M43 16h1M8 17h2M43 17h1M9 18h7M43 18h1M15 19h1M35 19h3M41 19h2M16 20h2M32 20h3M37 20h5M17 21h1M22 21h11M18 22h4" />
<path stroke="#ffffff" d="M29 7h3M28 8h5M18 9h6M28 9h6M35 9h1M17 10h8M28 10h8M16 11h3M21 11h5M28 11h8M14 12h5M22 12h15M14 13h5M22 13h19M13 14h28M12 15h31M12 16h2M18 16h13M33 16h3M38 16h1M41 16h2M10 17h6M19 17h9M34 17h3M41 17h2M16 18h1M19 18h3M33 18h5M40 18h3M16 19h8M30 19h5M38 19h3M18 20h14M18 21h4" />
<path stroke="#83beea" d="M19 11h2M19 12h3M19 13h3" />
<path stroke="#64b5ef" d="M14 16h4M31 16h2M36 16h2M39 16h2M16 17h3M28 17h6M37 17h4M17 18h2M22 18h11M38 18h2M24 19h6" />
</svg>