<svg width="240" height="240" viewBox="0 0 240 240" fill="none" xmlns="http://www.w3.org/2000/svg">
<rect width="200" height="186" transform="translate(19 29)" fill="#83B90F" fill-opacity="0.9"/>
<path d="M114.375 19.6875H121.875H114.375ZM123.75 19.6875H127.5H123.75ZM112.5 21.5625H114.375H112.5ZM121.875 21.5625H123.75H121.875ZM127.5 21.5625H129.375H127.5ZM110.625 23.4375H112.5H110.625ZM114.375 23.4375H116.25H114.375ZM129.375 23.4375H131.25H129.375ZM37.5 25.3125H110.625H37.5ZM112.5 25.3125H116.25H112.5ZM125.625 25.3125H127.5H125.625ZM131.25 25.3125H208.125H131.25ZM16.875 27.1875H37.5H16.875ZM123.75 27.1875H125.625H123.75ZM127.5 27.1875H129.375H127.5ZM131.25 27.1875H133.125H131.25ZM206.25 27.1875H219.375H206.25ZM16.875 29.0625H31.875H16.875ZM120 29.0625H125.625H120ZM129.375 29.0625H131.25H129.375ZM217.5 29.0625H219.375H217.5ZM16.875 30.9375H121.875H16.875ZM123.75 30.9375H125.625H123.75ZM206.25 30.9375H211.875H206.25ZM217.5 30.9375H219.375H217.5ZM16.875 32.8125H22.5H16.875ZM125.625 32.8125H127.5H125.625ZM206.25 32.8125H208.125H206.25ZM211.875 32.8125H213.75H211.875ZM217.5 32.8125H219.375H217.5ZM16.875 34.6875H18.75H16.875ZM20.625 34.6875H22.5H20.625ZM127.5 34.6875H148.125H127.5ZM150 34.6875H195H150ZM198.75 34.6875H208.125H198.75ZM211.875 34.6875H213.75H211.875ZM217.5 34.6875H219.375H217.5ZM16.875 36.5625H18.75H16.875ZM20.625 36.5625H22.5H20.625ZM135 36.5625H136.875H135ZM138.75 36.5625H140.625H138.75ZM146.25 36.5625H148.125H146.25ZM150 36.5625H151.875H150ZM178.125 36.5625H180H178.125ZM183.75 36.5625H185.625H183.75ZM193.125 36.5625H195H193.125ZM198.75 36.5625H200.625H198.75ZM211.875 36.5625H213.75H211.875ZM217.5 36.5625H219.375H217.5ZM16.875 38.4375H18.75H16.875ZM20.625 38.4375H22.5H20.625ZM135 38.4375H136.875H135ZM138.75 38.4375H140.625H138.75ZM146.25 38.4375H148.125H146.25ZM150 38.4375H151.875H150ZM178.125 38.4375H181.875H178.125ZM183.75 38.4375H185.625H183.75ZM193.125 38.4375H196.875H193.125ZM198.75 38.4375H200.625H198.75ZM211.875 38.4375H213.75H211.875ZM217.5 38.4375H219.375H217.5ZM15 40.3125H16.875H15ZM20.625 40.3125H22.5H20.625ZM135 40.3125H136.875H135ZM138.75 40.3125H140.625H138.75ZM146.25 40.3125H148.125H146.25ZM150 40.3125H151.875H150ZM180 40.3125H181.875H180ZM183.75 40.3125H185.625H183.75ZM195 40.3125H196.875H195ZM198.75 40.3125H200.625H198.75ZM211.875 40.3125H215.625H211.875ZM217.5 40.3125H219.375H217.5ZM15 42.1875H16.875H15ZM20.625 42.1875H22.5H20.625ZM135 42.1875H136.875H135ZM138.75 42.1875H140.625H138.75ZM146.25 42.1875H148.125H146.25ZM150 42.1875H151.875H150ZM180 42.1875H181.875H180ZM183.75 42.1875H185.625H183.75ZM195 42.1875H196.875H195ZM198.75 42.1875H200.625H198.75ZM213.75 42.1875H215.625H213.75ZM217.5 42.1875H221.25H217.5ZM15 44.0625H16.875H15ZM20.625 44.0625H22.5H20.625ZM135 44.0625H140.625H135ZM146.25 44.0625H151.875H146.25ZM180 44.0625H185.625H180ZM195 44.0625H200.625H195ZM213.75 44.0625H215.625H213.75ZM219.375 44.0625H221.25H219.375ZM15 45.9375H16.875H15ZM20.625 45.9375H22.5H20.625ZM196.875 45.9375H204.375H196.875ZM213.75 45.9375H215.625H213.75ZM219.375 45.9375H221.25H219.375ZM15 47.8125H16.875H15ZM20.625 47.8125H22.5H20.625ZM196.875 47.8125H198.75H196.875ZM202.5 47.8125H221.25H202.5ZM15 49.6875H16.875H15ZM20.625 49.6875H22.5H20.625ZM196.875 49.6875H198.75H196.875ZM219.375 49.6875H221.25H219.375ZM15 51.5625H16.875H15ZM20.625 51.5625H22.5H20.625ZM196.875 51.5625H206.25H196.875ZM219.375 51.5625H221.25H219.375ZM15 53.4375H16.875H15ZM20.625 53.4375H22.5H20.625ZM204.375 53.4375H215.625H204.375ZM219.375 53.4375H221.25H219.375ZM15 55.3125H16.875H15ZM20.625 55.3125H22.5H20.625ZM215.625 55.3125H217.5H215.625ZM219.375 55.3125H221.25H219.375ZM15 57.1875H16.875H15ZM20.625 57.1875H22.5H20.625ZM211.875 57.1875H217.5H211.875ZM219.375 57.1875H223.125H219.375ZM15 59.0625H16.875H15ZM20.625 59.0625H22.5H20.625ZM211.875 59.0625H213.75H211.875ZM221.25 59.0625H223.125H221.25ZM15 60.9375H16.875H15ZM20.625 60.9375H22.5H20.625ZM211.875 60.9375H213.75H211.875ZM221.25 60.9375H223.125H221.25ZM15 62.8125H16.875H15ZM20.625 62.8125H22.5H20.625ZM211.875 62.8125H213.75H211.875ZM221.25 62.8125H223.125H221.25ZM15 64.6875H16.875H15ZM20.625 64.6875H22.5H20.625ZM200.625 64.6875H213.75H200.625ZM221.25 64.6875H223.125H221.25ZM15 66.5625H16.875H15ZM20.625 66.5625H22.5H20.625ZM200.625 66.5625H202.5H200.625ZM221.25 66.5625H223.125H221.25ZM15 68.4375H16.875H15ZM20.625 68.4375H22.5H20.625ZM200.625 68.4375H208.125H200.625ZM221.25 68.4375H223.125H221.25ZM15 70.3125H16.875H15ZM20.625 70.3125H22.5H20.625ZM206.25 70.3125H213.75H206.25ZM221.25 70.3125H223.125H221.25ZM15 72.1875H16.875H15ZM20.625 72.1875H22.5H20.625ZM211.875 72.1875H213.75H211.875ZM221.25 72.1875H223.125H221.25ZM15 74.0625H16.875H15ZM20.625 74.0625H22.5H20.625ZM211.875 74.0625H213.75H211.875ZM221.25 74.0625H223.125H221.25ZM15 75.9375H16.875H15ZM20.625 75.9375H22.5H20.625ZM211.875 75.9375H213.75H211.875ZM221.25 75.9375H223.125H221.25ZM15 77.8125H16.875H15ZM20.625 77.8125H22.5H20.625ZM200.625 77.8125H213.75H200.625ZM221.25 77.8125H223.125H221.25ZM15 79.6875H16.875H15ZM20.625 79.6875H22.5H20.625ZM200.625 79.6875H202.5H200.625ZM211.875 79.6875H213.75H211.875ZM221.25 79.6875H223.125H221.25ZM15 81.5625H16.875H15ZM20.625 81.5625H22.5H20.625ZM200.625 81.5625H208.125H200.625ZM211.875 81.5625H213.75H211.875ZM221.25 81.5625H223.125H221.25ZM15 83.4375H16.875H15ZM20.625 83.4375H22.5H20.625ZM206.25 83.4375H213.75H206.25ZM221.25 83.4375H223.125H221.25ZM15 85.3125H16.875H15ZM20.625 85.3125H22.5H20.625ZM211.875 85.3125H213.75H211.875ZM221.25 85.3125H223.125H221.25ZM15 87.1875H16.875H15ZM20.625 87.1875H22.5H20.625ZM211.875 87.1875H213.75H211.875ZM221.25 87.1875H223.125H221.25ZM15 89.0625H16.875H15ZM20.625 89.0625H22.5H20.625ZM211.875 89.0625H213.75H211.875ZM221.25 89.0625H223.125H221.25ZM15 90.9375H16.875H15ZM20.625 90.9375H22.5H20.625ZM211.875 90.9375H213.75H211.875ZM221.25 90.9375H223.125H221.25ZM15 92.8125H16.875H15ZM20.625 92.8125H22.5H20.625ZM211.875 92.8125H213.75H211.875ZM221.25 92.8125H223.125H221.25ZM15 94.6875H16.875H15ZM20.625 94.6875H22.5H20.625ZM211.875 94.6875H213.75H211.875ZM221.25 94.6875H223.125H221.25ZM15 96.5625H16.875H15ZM20.625 96.5625H22.5H20.625ZM211.875 96.5625H213.75H211.875ZM221.25 96.5625H223.125H221.25ZM15 98.4375H16.875H15ZM20.625 98.4375H22.5H20.625ZM211.875 98.4375H213.75H211.875ZM221.25 98.4375H223.125H221.25ZM13.125 100.312H15H13.125ZM20.625 100.312H22.5H20.625ZM211.875 100.312H213.75H211.875ZM221.25 100.312H223.125H221.25ZM11.25 102.188H13.125H11.25ZM15 102.188H16.875H15ZM20.625 102.188H22.5H20.625ZM211.875 102.188H213.75H211.875ZM221.25 102.188H223.125H221.25ZM9.375 104.062H11.25H9.375ZM13.125 104.062H16.875H13.125ZM20.625 104.062H22.5H20.625ZM211.875 104.062H213.75H211.875ZM221.25 104.062H223.125H221.25ZM9.375 105.938H11.25H9.375ZM20.625 105.938H22.5H20.625ZM211.875 105.938H213.75H211.875ZM221.25 105.938H223.125H221.25ZM9.375 107.812H11.25H9.375ZM18.75 107.812H22.5H18.75ZM200.625 107.812H213.75H200.625ZM221.25 107.812H223.125H221.25ZM11.25 109.688H13.125H11.25ZM18.75 109.688H20.625H18.75ZM200.625 109.688H202.5H200.625ZM221.25 109.688H223.125H221.25ZM9.375 111.562H11.25H9.375ZM16.875 111.562H22.5H16.875ZM200.625 111.562H213.75H200.625ZM221.25 111.562H223.125H221.25ZM9.375 113.438H11.25H9.375ZM15 113.438H16.875H15ZM22.5 113.438H26.25H22.5ZM211.875 113.438H213.75H211.875ZM221.25 113.438H223.125H221.25ZM11.25 115.312H13.125H11.25ZM16.875 115.312H18.75H16.875ZM26.25 115.312H28.125H26.25ZM211.875 115.312H213.75H211.875ZM221.25 115.312H223.125H221.25ZM13.125 117.188H15H13.125ZM18.75 117.188H20.625H18.75ZM26.25 117.188H28.125H26.25ZM211.875 117.188H213.75H211.875ZM221.25 117.188H223.125H221.25ZM15 119.062H18.75H15ZM26.25 119.062H28.125H26.25ZM200.625 119.062H213.75H200.625ZM221.25 119.062H223.125H221.25ZM15 120.938H16.875H15ZM26.25 120.938H37.5H26.25ZM200.625 120.938H202.5H200.625ZM211.875 120.938H213.75H211.875ZM221.25 120.938H223.125H221.25ZM15 122.812H16.875H15ZM26.25 122.812H28.125H26.25ZM35.625 122.812H37.5H35.625ZM200.625 122.812H213.75H200.625ZM221.25 122.812H223.125H221.25ZM15 124.688H16.875H15ZM26.25 124.688H37.5H26.25ZM211.875 124.688H213.75H211.875ZM219.375 124.688H223.125H219.375ZM15 126.562H16.875H15ZM26.25 126.562H28.125H26.25ZM211.875 126.562H213.75H211.875ZM217.5 126.562H219.375H217.5ZM223.125 126.562H225H223.125ZM15 128.438H16.875H15ZM26.25 128.438H28.125H26.25ZM211.875 128.438H213.75H211.875ZM219.375 128.438H221.25H219.375ZM225 128.438H226.875H225ZM15 130.312H16.875H15ZM26.25 130.312H28.125H26.25ZM213.75 130.312H215.625H213.75ZM221.25 130.312H223.125H221.25ZM226.875 130.312H228.75H226.875ZM15 132.188H16.875H15ZM26.25 132.188H37.5H26.25ZM215.625 132.188H221.25H215.625ZM226.875 132.188H228.75H226.875ZM15 134.062H16.875H15ZM35.625 134.062H37.5H35.625ZM217.5 134.062H219.375H217.5ZM225 134.062H226.875H225ZM15 135.938H16.875H15ZM26.25 135.938H37.5H26.25ZM215.625 135.938H219.375H215.625ZM226.875 135.938H228.75H226.875ZM15 137.812H16.875H15ZM26.25 137.812H28.125H26.25ZM215.625 137.812H217.5H215.625ZM226.875 137.812H228.75H226.875ZM15 139.688H16.875H15ZM26.25 139.688H28.125H26.25ZM215.625 139.688H217.5H215.625ZM221.25 139.688H225H221.25ZM226.875 139.688H228.75H226.875ZM15 141.562H16.875H15ZM26.25 141.562H28.125H26.25ZM215.625 141.562H217.5H215.625ZM221.25 141.562H223.125H221.25ZM225 141.562H226.875H225ZM15 143.438H16.875H15ZM26.25 143.438H28.125H26.25ZM215.625 143.438H217.5H215.625ZM223.125 143.438H225H223.125ZM15 145.312H16.875H15ZM26.25 145.312H28.125H26.25ZM215.625 145.312H217.5H215.625ZM221.25 145.312H223.125H221.25ZM15 147.188H16.875H15ZM26.25 147.188H28.125H26.25ZM215.625 147.188H217.5H215.625ZM221.25 147.188H223.125H221.25ZM15 149.062H16.875H15ZM26.25 149.062H28.125H26.25ZM215.625 149.062H217.5H215.625ZM221.25 149.062H223.125H221.25ZM15 150.938H16.875H15ZM26.25 150.938H28.125H26.25ZM215.625 150.938H217.5H215.625ZM221.25 150.938H223.125H221.25ZM15 152.812H16.875H15ZM26.25 152.812H28.125H26.25ZM215.625 152.812H217.5H215.625ZM221.25 152.812H223.125H221.25ZM15 154.688H16.875H15ZM26.25 154.688H28.125H26.25ZM215.625 154.688H217.5H215.625ZM221.25 154.688H223.125H221.25ZM15 156.562H16.875H15ZM26.25 156.562H28.125H26.25ZM215.625 156.562H217.5H215.625ZM221.25 156.562H223.125H221.25ZM15 158.438H16.875H15ZM26.25 158.438H28.125H26.25ZM215.625 158.438H217.5H215.625ZM221.25 158.438H223.125H221.25ZM15 160.312H16.875H15ZM26.25 160.312H31.875H26.25ZM215.625 160.312H217.5H215.625ZM221.25 160.312H223.125H221.25ZM15 162.188H16.875H15ZM26.25 162.188H28.125H26.25ZM30 162.188H37.5H30ZM215.625 162.188H217.5H215.625ZM221.25 162.188H223.125H221.25ZM15 164.062H16.875H15ZM26.25 164.062H28.125H26.25ZM35.625 164.062H37.5H35.625ZM215.625 164.062H217.5H215.625ZM221.25 164.062H223.125H221.25ZM15 165.938H16.875H15ZM26.25 165.938H37.5H26.25ZM215.625 165.938H217.5H215.625ZM221.25 165.938H223.125H221.25ZM15 167.812H16.875H15ZM26.25 167.812H28.125H26.25ZM215.625 167.812H217.5H215.625ZM221.25 167.812H223.125H221.25ZM15 169.688H16.875H15ZM26.25 169.688H28.125H26.25ZM215.625 169.688H217.5H215.625ZM221.25 169.688H223.125H221.25ZM15 171.562H16.875H15ZM26.25 171.562H28.125H26.25ZM215.625 171.562H217.5H215.625ZM221.25 171.562H223.125H221.25ZM15 173.438H16.875H15ZM26.25 173.438H31.875H26.25ZM215.625 173.438H217.5H215.625ZM221.25 173.438H223.125H221.25ZM15 175.312H16.875H15ZM30 175.312H37.5H30ZM215.625 175.312H217.5H215.625ZM221.25 175.312H223.125H221.25ZM15 177.188H16.875H15ZM35.625 177.188H37.5H35.625ZM215.625 177.188H217.5H215.625ZM221.25 177.188H223.125H221.25ZM15 179.062H16.875H15ZM26.25 179.062H37.5H26.25ZM215.625 179.062H217.5H215.625ZM221.25 179.062H223.125H221.25ZM15 180.938H16.875H15ZM26.25 180.938H28.125H26.25ZM215.625 180.938H217.5H215.625ZM221.25 180.938H223.125H221.25ZM15 182.812H16.875H15ZM26.25 182.812H28.125H26.25ZM215.625 182.812H217.5H215.625ZM221.25 182.812H223.125H221.25ZM15 184.688H16.875H15ZM26.25 184.688H28.125H26.25ZM215.625 184.688H217.5H215.625ZM221.25 184.688H223.125H221.25ZM15 186.562H18.75H15ZM20.625 186.562H28.125H20.625ZM215.625 186.562H217.5H215.625ZM221.25 186.562H223.125H221.25ZM16.875 188.438H18.75H16.875ZM20.625 188.438H22.5H20.625ZM215.625 188.438H217.5H215.625ZM221.25 188.438H223.125H221.25ZM16.875 190.312H18.75H16.875ZM22.5 190.312H33.75H22.5ZM215.625 190.312H217.5H215.625ZM221.25 190.312H223.125H221.25ZM16.875 192.188H18.75H16.875ZM31.875 192.188H41.25H31.875ZM215.625 192.188H217.5H215.625ZM221.25 192.188H223.125H221.25ZM16.875 194.062H18.75H16.875ZM39.375 194.062H41.25H39.375ZM215.625 194.062H217.5H215.625ZM221.25 194.062H223.125H221.25ZM16.875 195.938H35.625H16.875ZM39.375 195.938H41.25H39.375ZM215.625 195.938H217.5H215.625ZM221.25 195.938H223.125H221.25ZM16.875 197.812H18.75H16.875ZM22.5 197.812H24.375H22.5ZM33.75 197.812H41.25H33.75ZM215.625 197.812H217.5H215.625ZM221.25 197.812H223.125H221.25ZM16.875 199.688H18.75H16.875ZM22.5 199.688H24.375H22.5ZM37.5 199.688H45H37.5ZM52.5 199.688H58.125H52.5ZM91.875 199.688H97.5H91.875ZM105 199.688H110.625H105ZM215.625 199.688H217.5H215.625ZM221.25 199.688H223.125H221.25ZM16.875 201.562H20.625H16.875ZM22.5 201.562H24.375H22.5ZM37.5 201.562H39.375H37.5ZM41.25 201.562H45H41.25ZM52.5 201.562H54.375H52.5ZM56.25 201.562H58.125H56.25ZM91.875 201.562H93.75H91.875ZM95.625 201.562H97.5H95.625ZM105 201.562H106.875H105ZM108.75 201.562H110.625H108.75ZM215.625 201.562H217.5H215.625ZM221.25 201.562H223.125H221.25ZM18.75 203.438H20.625H18.75ZM22.5 203.438H28.125H22.5ZM37.5 203.438H39.375H37.5ZM41.25 203.438H45H41.25ZM52.5 203.438H54.375H52.5ZM56.25 203.438H58.125H56.25ZM91.875 203.438H93.75H91.875ZM95.625 203.438H97.5H95.625ZM105 203.438H106.875H105ZM108.75 203.438H110.625H108.75ZM215.625 203.438H217.5H215.625ZM221.25 203.438H223.125H221.25ZM18.75 205.312H20.625H18.75ZM26.25 205.312H28.125H26.25ZM37.5 205.312H39.375H37.5ZM41.25 205.312H46.875H41.25ZM52.5 205.312H54.375H52.5ZM56.25 205.312H60H56.25ZM91.875 205.312H93.75H91.875ZM95.625 205.312H97.5H95.625ZM105 205.312H106.875H105ZM108.75 205.312H110.625H108.75ZM215.625 205.312H217.5H215.625ZM219.375 205.312H221.25H219.375ZM18.75 207.188H20.625H18.75ZM26.25 207.188H28.125H26.25ZM37.5 207.188H39.375H37.5ZM45 207.188H46.875H45ZM52.5 207.188H54.375H52.5ZM58.125 207.188H60H58.125ZM91.875 207.188H93.75H91.875ZM95.625 207.188H97.5H95.625ZM105 207.188H106.875H105ZM108.75 207.188H110.625H108.75ZM215.625 207.188H217.5H215.625ZM219.375 207.188H221.25H219.375ZM18.75 209.062H20.625H18.75ZM26.25 209.062H28.125H26.25ZM30 209.062H39.375H30ZM45 209.062H93.75H45ZM95.625 209.062H116.25H95.625ZM215.625 209.062H217.5H215.625ZM219.375 209.062H221.25H219.375ZM18.75 210.938H20.625H18.75ZM26.25 210.938H28.125H26.25ZM30 210.938H31.875H30ZM116.25 210.938H120H116.25ZM215.625 210.938H221.25H215.625ZM18.75 212.812H20.625H18.75ZM28.125 212.812H31.875H28.125ZM120 212.812H121.875H120ZM123.75 212.812H221.25H123.75ZM18.75 214.688H20.625H18.75ZM112.5 214.688H114.375H112.5ZM120 214.688H125.625H120ZM206.25 214.688H221.25H206.25ZM18.75 216.562H31.875H18.75ZM110.625 216.562H112.5H110.625ZM114.375 216.562H116.25H114.375ZM120 216.562H121.875H120ZM200.625 216.562H221.25H200.625ZM30 218.438H112.5H30ZM116.25 218.438H120H116.25ZM127.5 218.438H131.25H127.5ZM133.125 218.438H200.625H133.125ZM112.5 220.312H114.375H112.5ZM127.5 220.312H129.375H127.5ZM131.25 220.312H133.125H131.25ZM114.375 222.188H116.25H114.375ZM121.875 222.188H123.75H121.875ZM129.375 222.188H131.25H129.375ZM116.25 224.062H121.875H116.25ZM123.75 224.062H129.375H123.75Z" fill="black"/>
<path d="M114.375 19.6875H121.875M123.75 19.6875H127.5M112.5 21.5625H114.375M121.875 21.5625H123.75M127.5 21.5625H129.375M110.625 23.4375H112.5M114.375 23.4375H116.25M129.375 23.4375H131.25M37.5 25.3125H110.625M112.5 25.3125H116.25M125.625 25.3125H127.5M131.25 25.3125H208.125M16.875 27.1875H37.5M123.75 27.1875H125.625M127.5 27.1875H129.375M131.25 27.1875H133.125M206.25 27.1875H219.375M16.875 29.0625H31.875M120 29.0625H125.625M129.375 29.0625H131.25M217.5 29.0625H219.375M16.875 30.9375H121.875M123.75 30.9375H125.625M206.25 30.9375H211.875M217.5 30.9375H219.375M16.875 32.8125H22.5M125.625 32.8125H127.5M206.25 32.8125H208.125M211.875 32.8125H213.75M217.5 32.8125H219.375M16.875 34.6875H18.75M20.625 34.6875H22.5M127.5 34.6875H148.125M150 34.6875H195M198.75 34.6875H208.125M211.875 34.6875H213.75M217.5 34.6875H219.375M16.875 36.5625H18.75M20.625 36.5625H22.5M135 36.5625H136.875M138.75 36.5625H140.625M146.25 36.5625H148.125M150 36.5625H151.875M178.125 36.5625H180M183.75 36.5625H185.625M193.125 36.5625H195M198.75 36.5625H200.625M211.875 36.5625H213.75M217.5 36.5625H219.375M16.875 38.4375H18.75M20.625 38.4375H22.5M135 38.4375H136.875M138.75 38.4375H140.625M146.25 38.4375H148.125M150 38.4375H151.875M178.125 38.4375H181.875M183.75 38.4375H185.625M193.125 38.4375H196.875M198.75 38.4375H200.625M211.875 38.4375H213.75M217.5 38.4375H219.375M15 40.3125H16.875M20.625 40.3125H22.5M135 40.3125H136.875M138.75 40.3125H140.625M146.25 40.3125H148.125M150 40.3125H151.875M180 40.3125H181.875M183.75 40.3125H185.625M195 40.3125H196.875M198.75 40.3125H200.625M211.875 40.3125H215.625M217.5 40.3125H219.375M15 42.1875H16.875M20.625 42.1875H22.5M135 42.1875H136.875M138.75 42.1875H140.625M146.25 42.1875H148.125M150 42.1875H151.875M180 42.1875H181.875M183.75 42.1875H185.625M195 42.1875H196.875M198.75 42.1875H200.625M213.75 42.1875H215.625M217.5 42.1875H221.25M15 44.0625H16.875M20.625 44.0625H22.5M135 44.0625H140.625M146.25 44.0625H151.875M180 44.0625H185.625M195 44.0625H200.625M213.75 44.0625H215.625M219.375 44.0625H221.25M15 45.9375H16.875M20.625 45.9375H22.5M196.875 45.9375H204.375M213.75 45.9375H215.625M219.375 45.9375H221.25M15 47.8125H16.875M20.625 47.8125H22.5M196.875 47.8125H198.75M202.5 47.8125H221.25M15 49.6875H16.875M20.625 49.6875H22.5M196.875 49.6875H198.75M219.375 49.6875H221.25M15 51.5625H16.875M20.625 51.5625H22.5M196.875 51.5625H206.25M219.375 51.5625H221.25M15 53.4375H16.875M20.625 53.4375H22.5M204.375 53.4375H215.625M219.375 53.4375H221.25M15 55.3125H16.875M20.625 55.3125H22.5M215.625 55.3125H217.5M219.375 55.3125H221.25M15 57.1875H16.875M20.625 57.1875H22.5M211.875 57.1875H217.5M219.375 57.1875H223.125M15 59.0625H16.875M20.625 59.0625H22.5M211.875 59.0625H213.75M221.25 59.0625H223.125M15 60.9375H16.875M20.625 60.9375H22.5M211.875 60.9375H213.75M221.25 60.9375H223.125M15 62.8125H16.875M20.625 62.8125H22.5M211.875 62.8125H213.75M221.25 62.8125H223.125M15 64.6875H16.875M20.625 64.6875H22.5M200.625 64.6875H213.75M221.25 64.6875H223.125M15 66.5625H16.875M20.625 66.5625H22.5M200.625 66.5625H202.5M221.25 66.5625H223.125M15 68.4375H16.875M20.625 68.4375H22.5M200.625 68.4375H208.125M221.25 68.4375H223.125M15 70.3125H16.875M20.625 70.3125H22.5M206.25 70.3125H213.75M221.25 70.3125H223.125M15 72.1875H16.875M20.625 72.1875H22.5M211.875 72.1875H213.75M221.25 72.1875H223.125M15 74.0625H16.875M20.625 74.0625H22.5M211.875 74.0625H213.75M221.25 74.0625H223.125M15 75.9375H16.875M20.625 75.9375H22.5M211.875 75.9375H213.75M221.25 75.9375H223.125M15 77.8125H16.875M20.625 77.8125H22.5M200.625 77.8125H213.75M221.25 77.8125H223.125M15 79.6875H16.875M20.625 79.6875H22.5M200.625 79.6875H202.5M211.875 79.6875H213.75M221.25 79.6875H223.125M15 81.5625H16.875M20.625 81.5625H22.5M200.625 81.5625H208.125M211.875 81.5625H213.75M221.25 81.5625H223.125M15 83.4375H16.875M20.625 83.4375H22.5M206.25 83.4375H213.75M221.25 83.4375H223.125M15 85.3125H16.875M20.625 85.3125H22.5M211.875 85.3125H213.75M221.25 85.3125H223.125M15 87.1875H16.875M20.625 87.1875H22.5M211.875 87.1875H213.75M221.25 87.1875H223.125M15 89.0625H16.875M20.625 89.0625H22.5M211.875 89.0625H213.75M221.25 89.0625H223.125M15 90.9375H16.875M20.625 90.9375H22.5M211.875 90.9375H213.75M221.25 90.9375H223.125M15 92.8125H16.875M20.625 92.8125H22.5M211.875 92.8125H213.75M221.25 92.8125H223.125M15 94.6875H16.875M20.625 94.6875H22.5M211.875 94.6875H213.75M221.25 94.6875H223.125M15 96.5625H16.875M20.625 96.5625H22.5M211.875 96.5625H213.75M221.25 96.5625H223.125M15 98.4375H16.875M20.625 98.4375H22.5M211.875 98.4375H213.75M221.25 98.4375H223.125M13.125 100.312H15M20.625 100.312H22.5M211.875 100.312H213.75M221.25 100.312H223.125M11.25 102.188H13.125M15 102.188H16.875M20.625 102.188H22.5M211.875 102.188H213.75M221.25 102.188H223.125M9.375 104.062H11.25M13.125 104.062H16.875M20.625 104.062H22.5M211.875 104.062H213.75M221.25 104.062H223.125M9.375 105.938H11.25M20.625 105.938H22.5M211.875 105.938H213.75M221.25 105.938H223.125M9.375 107.812H11.25M18.75 107.812H22.5M200.625 107.812H213.75M221.25 107.812H223.125M11.25 109.688H13.125M18.75 109.688H20.625M200.625 109.688H202.5M221.25 109.688H223.125M9.375 111.562H11.25M16.875 111.562H22.5M200.625 111.562H213.75M221.25 111.562H223.125M9.375 113.438H11.25M15 113.438H16.875M22.5 113.438H26.25M211.875 113.438H213.75M221.25 113.438H223.125M11.25 115.312H13.125M16.875 115.312H18.75M26.25 115.312H28.125M211.875 115.312H213.75M221.25 115.312H223.125M13.125 117.188H15M18.75 117.188H20.625M26.25 117.188H28.125M211.875 117.188H213.75M221.25 117.188H223.125M15 119.062H18.75M26.25 119.062H28.125M200.625 119.062H213.75M221.25 119.062H223.125M15 120.938H16.875M26.25 120.938H37.5M200.625 120.938H202.5M211.875 120.938H213.75M221.25 120.938H223.125M15 122.812H16.875M26.25 122.812H28.125M35.625 122.812H37.5M200.625 122.812H213.75M221.25 122.812H223.125M15 124.688H16.875M26.25 124.688H37.5M211.875 124.688H213.75M219.375 124.688H223.125M15 126.562H16.875M26.25 126.562H28.125M211.875 126.562H213.75M217.5 126.562H219.375M223.125 126.562H225M15 128.438H16.875M26.25 128.438H28.125M211.875 128.438H213.75M219.375 128.438H221.25M225 128.438H226.875M15 130.312H16.875M26.25 130.312H28.125M213.75 130.312H215.625M221.25 130.312H223.125M226.875 130.312H228.75M15 132.188H16.875M26.25 132.188H37.5M215.625 132.188H221.25M226.875 132.188H228.75M15 134.062H16.875M35.625 134.062H37.5M217.5 134.062H219.375M225 134.062H226.875M15 135.938H16.875M26.25 135.938H37.5M215.625 135.938H219.375M226.875 135.938H228.75M15 137.812H16.875M26.25 137.812H28.125M215.625 137.812H217.5M226.875 137.812H228.75M15 139.688H16.875M26.25 139.688H28.125M215.625 139.688H217.5M221.25 139.688H225M226.875 139.688H228.75M15 141.562H16.875M26.25 141.562H28.125M215.625 141.562H217.5M221.25 141.562H223.125M225 141.562H226.875M15 143.438H16.875M26.25 143.438H28.125M215.625 143.438H217.5M223.125 143.438H225M15 145.312H16.875M26.25 145.312H28.125M215.625 145.312H217.5M221.25 145.312H223.125M15 147.188H16.875M26.25 147.188H28.125M215.625 147.188H217.5M221.25 147.188H223.125M15 149.062H16.875M26.25 149.062H28.125M215.625 149.062H217.5M221.25 149.062H223.125M15 150.938H16.875M26.25 150.938H28.125M215.625 150.938H217.5M221.25 150.938H223.125M15 152.812H16.875M26.25 152.812H28.125M215.625 152.812H217.5M221.25 152.812H223.125M15 154.688H16.875M26.25 154.688H28.125M215.625 154.688H217.5M221.25 154.688H223.125M15 156.562H16.875M26.25 156.562H28.125M215.625 156.562H217.5M221.25 156.562H223.125M15 158.438H16.875M26.25 158.438H28.125M215.625 158.438H217.5M221.25 158.438H223.125M15 160.312H16.875M26.25 160.312H31.875M215.625 160.312H217.5M221.25 160.312H223.125M15 162.188H16.875M26.25 162.188H28.125M30 162.188H37.5M215.625 162.188H217.5M221.25 162.188H223.125M15 164.062H16.875M26.25 164.062H28.125M35.625 164.062H37.5M215.625 164.062H217.5M221.25 164.062H223.125M15 165.938H16.875M26.25 165.938H37.5M215.625 165.938H217.5M221.25 165.938H223.125M15 167.812H16.875M26.25 167.812H28.125M215.625 167.812H217.5M221.25 167.812H223.125M15 169.688H16.875M26.25 169.688H28.125M215.625 169.688H217.5M221.25 169.688H223.125M15 171.562H16.875M26.25 171.562H28.125M215.625 171.562H217.5M221.25 171.562H223.125M15 173.438H16.875M26.25 173.438H31.875M215.625 173.438H217.5M221.25 173.438H223.125M15 175.312H16.875M30 175.312H37.5M215.625 175.312H217.5M221.25 175.312H223.125M15 177.188H16.875M35.625 177.188H37.5M215.625 177.188H217.5M221.25 177.188H223.125M15 179.062H16.875M26.25 179.062H37.5M215.625 179.062H217.5M221.25 179.062H223.125M15 180.938H16.875M26.25 180.938H28.125M215.625 180.938H217.5M221.25 180.938H223.125M15 182.812H16.875M26.25 182.812H28.125M215.625 182.812H217.5M221.25 182.812H223.125M15 184.688H16.875M26.25 184.688H28.125M215.625 184.688H217.5M221.25 184.688H223.125M15 186.562H18.75M20.625 186.562H28.125M215.625 186.562H217.5M221.25 186.562H223.125M16.875 188.438H18.75M20.625 188.438H22.5M215.625 188.438H217.5M221.25 188.438H223.125M16.875 190.312H18.75M22.5 190.312H33.75M215.625 190.312H217.5M221.25 190.312H223.125M16.875 192.188H18.75M31.875 192.188H41.25M215.625 192.188H217.5M221.25 192.188H223.125M16.875 194.062H18.75M39.375 194.062H41.25M215.625 194.062H217.5M221.25 194.062H223.125M16.875 195.938H35.625M39.375 195.938H41.25M215.625 195.938H217.5M221.25 195.938H223.125M16.875 197.812H18.75M22.5 197.812H24.375M33.75 197.812H41.25M215.625 197.812H217.5M221.25 197.812H223.125M16.875 199.688H18.75M22.5 199.688H24.375M37.5 199.688H45M52.5 199.688H58.125M91.875 199.688H97.5M105 199.688H110.625M215.625 199.688H217.5M221.25 199.688H223.125M16.875 201.562H20.625M22.5 201.562H24.375M37.5 201.562H39.375M41.25 201.562H45M52.5 201.562H54.375M56.25 201.562H58.125M91.875 201.562H93.75M95.625 201.562H97.5M105 201.562H106.875M108.75 201.562H110.625M215.625 201.562H217.5M221.25 201.562H223.125M18.75 203.438H20.625M22.5 203.438H28.125M37.5 203.438H39.375M41.25 203.438H45M52.5 203.438H54.375M56.25 203.438H58.125M91.875 203.438H93.75M95.625 203.438H97.5M105 203.438H106.875M108.75 203.438H110.625M215.625 203.438H217.5M221.25 203.438H223.125M18.75 205.312H20.625M26.25 205.312H28.125M37.5 205.312H39.375M41.25 205.312H46.875M52.5 205.312H54.375M56.25 205.312H60M91.875 205.312H93.75M95.625 205.312H97.5M105 205.312H106.875M108.75 205.312H110.625M215.625 205.312H217.5M219.375 205.312H221.25M18.75 207.188H20.625M26.25 207.188H28.125M37.5 207.188H39.375M45 207.188H46.875M52.5 207.188H54.375M58.125 207.188H60M91.875 207.188H93.75M95.625 207.188H97.5M105 207.188H106.875M108.75 207.188H110.625M215.625 207.188H217.5M219.375 207.188H221.25M18.75 209.062H20.625M26.25 209.062H28.125M30 209.062H39.375M45 209.062H93.75M95.625 209.062H116.25M215.625 209.062H217.5M219.375 209.062H221.25M18.75 210.938H20.625M26.25 210.938H28.125M30 210.938H31.875M116.25 210.938H120M215.625 210.938H221.25M18.75 212.812H20.625M28.125 212.812H31.875M120 212.812H121.875M123.75 212.812H221.25M18.75 214.688H20.625M112.5 214.688H114.375M120 214.688H125.625M206.25 214.688H221.25M18.75 216.562H31.875M110.625 216.562H112.5M114.375 216.562H116.25M120 216.562H121.875M200.625 216.562H221.25M30 218.438H112.5M116.25 218.438H120M127.5 218.438H131.25M133.125 218.438H200.625M112.5 220.312H114.375M127.5 220.312H129.375M131.25 220.312H133.125M114.375 222.188H116.25M121.875 222.188H123.75M129.375 222.188H131.25M116.25 224.062H121.875M123.75 224.062H129.375" stroke="black" stroke-width="2"/>
<path d="M114.375 21.5625H121.875H114.375ZM123.75 21.5625H127.5H123.75ZM120 23.4375H125.625H120ZM127.5 23.4375H129.375H127.5ZM110.625 25.3125H112.5H110.625ZM37.5 27.1875H110.625H37.5ZM133.125 27.1875H206.25H133.125ZM204.375 29.0625H217.5H204.375ZM211.875 30.9375H215.625H211.875ZM213.75 32.8125H215.625H213.75ZM213.75 34.6875H215.625H213.75ZM136.875 36.5625H138.75H136.875ZM180 36.5625H183.75H180ZM213.75 36.5625H215.625H213.75ZM136.875 38.4375H138.75H136.875ZM181.875 38.4375H183.75H181.875ZM213.75 38.4375H215.625H213.75ZM16.875 40.3125H18.75H16.875ZM136.875 40.3125H138.75H136.875ZM181.875 40.3125H183.75H181.875ZM16.875 42.1875H18.75H16.875ZM136.875 42.1875H138.75H136.875ZM181.875 42.1875H183.75H181.875ZM16.875 44.0625H18.75H16.875ZM16.875 45.9375H18.75H16.875ZM16.875 47.8125H18.75H16.875ZM198.75 47.8125H202.5H198.75ZM16.875 49.6875H18.75H16.875ZM198.75 49.6875H208.125H198.75ZM16.875 51.5625H18.75H16.875ZM206.25 51.5625H217.5H206.25ZM16.875 53.4375H18.75H16.875ZM215.625 53.4375H217.5H215.625ZM16.875 55.3125H18.75H16.875ZM16.875 57.1875H18.75H16.875ZM16.875 59.0625H18.75H16.875ZM213.75 59.0625H217.5H213.75ZM16.875 60.9375H18.75H16.875ZM213.75 60.9375H217.5H213.75ZM16.875 62.8125H18.75H16.875ZM213.75 62.8125H215.625H213.75ZM16.875 64.6875H18.75H16.875ZM213.75 64.6875H215.625H213.75ZM16.875 66.5625H18.75H16.875ZM16.875 68.4375H18.75H16.875ZM16.875 70.3125H18.75H16.875ZM213.75 70.3125H215.625H213.75ZM16.875 72.1875H18.75H16.875ZM213.75 72.1875H215.625H213.75ZM16.875 74.0625H18.75H16.875ZM213.75 74.0625H215.625H213.75ZM16.875 75.9375H18.75H16.875ZM213.75 75.9375H215.625H213.75ZM16.875 77.8125H18.75H16.875ZM213.75 77.8125H215.625H213.75ZM16.875 79.6875H18.75H16.875ZM202.5 79.6875H211.875H202.5ZM213.75 79.6875H215.625H213.75ZM16.875 81.5625H18.75H16.875ZM208.125 81.5625H211.875H208.125ZM213.75 81.5625H215.625H213.75ZM16.875 83.4375H18.75H16.875ZM213.75 83.4375H215.625H213.75ZM16.875 85.3125H18.75H16.875ZM213.75 85.3125H215.625H213.75ZM16.875 87.1875H18.75H16.875ZM213.75 87.1875H215.625H213.75ZM16.875 89.0625H18.75H16.875ZM213.75 89.0625H215.625H213.75ZM16.875 90.9375H18.75H16.875ZM213.75 90.9375H215.625H213.75ZM16.875 92.8125H18.75H16.875ZM213.75 92.8125H215.625H213.75ZM16.875 94.6875H18.75H16.875ZM213.75 94.6875H215.625H213.75ZM16.875 96.5625H18.75H16.875ZM213.75 96.5625H215.625H213.75ZM16.875 98.4375H18.75H16.875ZM213.75 98.4375H215.625H213.75ZM15 100.312H16.875H15ZM213.75 100.312H215.625H213.75ZM213.75 102.188H215.625H213.75ZM11.25 104.062H13.125H11.25ZM213.75 104.062H215.625H213.75ZM11.25 105.938H13.125H11.25ZM213.75 105.938H215.625H213.75ZM11.25 107.812H15H11.25ZM213.75 107.812H215.625H213.75ZM13.125 109.688H15H13.125ZM11.25 111.562H15H11.25ZM11.25 113.438H15H11.25ZM16.875 113.438H18.75H16.875ZM13.125 115.312H16.875H13.125ZM15 117.188H16.875H15ZM16.875 120.938H18.75H16.875ZM202.5 120.938H211.875H202.5ZM16.875 122.812H18.75H16.875ZM28.125 122.812H35.625H28.125ZM16.875 124.688H18.75H16.875ZM16.875 126.562H18.75H16.875ZM219.375 126.562H221.25H219.375ZM16.875 128.438H18.75H16.875ZM221.25 128.438H223.125H221.25ZM16.875 130.312H18.75H16.875ZM16.875 132.188H18.75H16.875ZM221.25 132.188H223.125H221.25ZM16.875 134.062H18.75H16.875ZM219.375 134.062H223.125H219.375ZM16.875 135.938H18.75H16.875ZM219.375 135.938H221.25H219.375ZM16.875 137.812H18.75H16.875ZM217.5 137.812H221.25H217.5ZM16.875 139.688H18.75H16.875ZM217.5 139.688H219.375H217.5ZM16.875 141.562H18.75H16.875ZM217.5 141.562H219.375H217.5ZM16.875 143.438H18.75H16.875ZM217.5 143.438H219.375H217.5ZM16.875 145.312H18.75H16.875ZM217.5 145.312H219.375H217.5ZM16.875 147.188H18.75H16.875ZM217.5 147.188H219.375H217.5ZM16.875 149.062H18.75H16.875ZM217.5 149.062H219.375H217.5ZM16.875 150.938H18.75H16.875ZM217.5 150.938H219.375H217.5ZM16.875 152.812H18.75H16.875ZM217.5 152.812H219.375H217.5ZM16.875 154.688H18.75H16.875ZM217.5 154.688H219.375H217.5ZM16.875 156.562H18.75H16.875ZM217.5 156.562H219.375H217.5ZM16.875 158.438H18.75H16.875ZM217.5 158.438H219.375H217.5ZM16.875 160.312H18.75H16.875ZM217.5 160.312H219.375H217.5ZM16.875 162.188H18.75H16.875ZM28.125 162.188H30H28.125ZM217.5 162.188H219.375H217.5ZM16.875 164.062H18.75H16.875ZM28.125 164.062H35.625H28.125ZM217.5 164.062H219.375H217.5ZM16.875 165.938H18.75H16.875ZM217.5 165.938H219.375H217.5ZM16.875 167.812H18.75H16.875ZM217.5 167.812H219.375H217.5ZM16.875 169.688H18.75H16.875ZM217.5 169.688H219.375H217.5ZM16.875 171.562H18.75H16.875ZM217.5 171.562H219.375H217.5ZM16.875 173.438H18.75H16.875ZM217.5 173.438H219.375H217.5ZM16.875 175.312H18.75H16.875ZM217.5 175.312H219.375H217.5ZM16.875 177.188H18.75H16.875ZM217.5 177.188H219.375H217.5ZM16.875 179.062H18.75H16.875ZM217.5 179.062H219.375H217.5ZM16.875 180.938H18.75H16.875ZM217.5 180.938H219.375H217.5ZM16.875 182.812H18.75H16.875ZM217.5 182.812H219.375H217.5ZM16.875 184.688H18.75H16.875ZM217.5 184.688H219.375H217.5ZM18.75 186.562H20.625H18.75ZM217.5 186.562H219.375H217.5ZM18.75 188.438H20.625H18.75ZM217.5 188.438H219.375H217.5ZM18.75 190.312H22.5H18.75ZM217.5 190.312H219.375H217.5ZM18.75 192.188H31.875H18.75ZM217.5 192.188H219.375H217.5ZM18.75 194.062H22.5H18.75ZM217.5 194.062H219.375H217.5ZM217.5 195.938H219.375H217.5ZM18.75 197.812H22.5H18.75ZM217.5 197.812H219.375H217.5ZM18.75 199.688H22.5H18.75ZM217.5 199.688H219.375H217.5ZM20.625 201.562H22.5H20.625ZM54.375 201.562H56.25H54.375ZM106.875 201.562H108.75H106.875ZM217.5 201.562H219.375H217.5ZM20.625 203.438H22.5H20.625ZM54.375 203.438H56.25H54.375ZM106.875 203.438H108.75H106.875ZM217.5 203.438H219.375H217.5ZM20.625 205.312H26.25H20.625ZM54.375 205.312H56.25H54.375ZM106.875 205.312H108.75H106.875ZM217.5 205.312H219.375H217.5ZM22.5 207.188H26.25H22.5ZM54.375 207.188H58.125H54.375ZM106.875 207.188H108.75H106.875ZM217.5 207.188H219.375H217.5ZM22.5 209.062H26.25H22.5ZM217.5 209.062H219.375H217.5ZM22.5 210.938H26.25H22.5ZM31.875 210.938H39.375H31.875ZM45 210.938H93.75H45ZM22.5 212.812H28.125H22.5ZM31.875 212.812H35.625H31.875ZM125.625 214.688H206.25H125.625ZM112.5 216.562H114.375H112.5ZM121.875 216.562H127.5H121.875ZM114.375 218.438H116.25H114.375ZM120 218.438H123.75H120Z" fill="black"/>
<path d="M114.375 21.5625H121.875M123.75 21.5625H127.5M120 23.4375H125.625M127.5 23.4375H129.375M110.625 25.3125H112.5M37.5 27.1875H110.625M133.125 27.1875H206.25M204.375 29.0625H217.5M211.875 30.9375H215.625M213.75 32.8125H215.625M213.75 34.6875H215.625M136.875 36.5625H138.75M180 36.5625H183.75M213.75 36.5625H215.625M136.875 38.4375H138.75M181.875 38.4375H183.75M213.75 38.4375H215.625M16.875 40.3125H18.75M136.875 40.3125H138.75M181.875 40.3125H183.75M16.875 42.1875H18.75M136.875 42.1875H138.75M181.875 42.1875H183.75M16.875 44.0625H18.75M16.875 45.9375H18.75M16.875 47.8125H18.75M198.75 47.8125H202.5M16.875 49.6875H18.75M198.75 49.6875H208.125M16.875 51.5625H18.75M206.25 51.5625H217.5M16.875 53.4375H18.75M215.625 53.4375H217.5M16.875 55.3125H18.75M16.875 57.1875H18.75M16.875 59.0625H18.75M213.75 59.0625H217.5M16.875 60.9375H18.75M213.75 60.9375H217.5M16.875 62.8125H18.75M213.75 62.8125H215.625M16.875 64.6875H18.75M213.75 64.6875H215.625M16.875 66.5625H18.75M16.875 68.4375H18.75M16.875 70.3125H18.75M213.75 70.3125H215.625M16.875 72.1875H18.75M213.75 72.1875H215.625M16.875 74.0625H18.75M213.75 74.0625H215.625M16.875 75.9375H18.75M213.75 75.9375H215.625M16.875 77.8125H18.75M213.75 77.8125H215.625M16.875 79.6875H18.75M202.5 79.6875H211.875M213.75 79.6875H215.625M16.875 81.5625H18.75M208.125 81.5625H211.875M213.75 81.5625H215.625M16.875 83.4375H18.75M213.75 83.4375H215.625M16.875 85.3125H18.75M213.75 85.3125H215.625M16.875 87.1875H18.75M213.75 87.1875H215.625M16.875 89.0625H18.75M213.75 89.0625H215.625M16.875 90.9375H18.75M213.75 90.9375H215.625M16.875 92.8125H18.75M213.75 92.8125H215.625M16.875 94.6875H18.75M213.75 94.6875H215.625M16.875 96.5625H18.75M213.75 96.5625H215.625M16.875 98.4375H18.75M213.75 98.4375H215.625M15 100.312H16.875M213.75 100.312H215.625M213.75 102.188H215.625M11.25 104.062H13.125M213.75 104.062H215.625M11.25 105.938H13.125M213.75 105.938H215.625M11.25 107.812H15M213.75 107.812H215.625M13.125 109.688H15M11.25 111.562H15M11.25 113.438H15M16.875 113.438H18.75M13.125 115.312H16.875M15 117.188H16.875M16.875 120.938H18.75M202.5 120.938H211.875M16.875 122.812H18.75M28.125 122.812H35.625M16.875 124.688H18.75M16.875 126.562H18.75M219.375 126.562H221.25M16.875 128.438H18.75M221.25 128.438H223.125M16.875 130.312H18.75M16.875 132.188H18.75M221.25 132.188H223.125M16.875 134.062H18.75M219.375 134.062H223.125M16.875 135.938H18.75M219.375 135.938H221.25M16.875 137.812H18.75M217.5 137.812H221.25M16.875 139.688H18.75M217.5 139.688H219.375M16.875 141.562H18.75M217.5 141.562H219.375M16.875 143.438H18.75M217.5 143.438H219.375M16.875 145.312H18.75M217.5 145.312H219.375M16.875 147.188H18.75M217.5 147.188H219.375M16.875 149.062H18.75M217.5 149.062H219.375M16.875 150.938H18.75M217.5 150.938H219.375M16.875 152.812H18.75M217.5 152.812H219.375M16.875 154.688H18.75M217.5 154.688H219.375M16.875 156.562H18.75M217.5 156.562H219.375M16.875 158.438H18.75M217.5 158.438H219.375M16.875 160.312H18.75M217.5 160.312H219.375M16.875 162.188H18.75M28.125 162.188H30M217.5 162.188H219.375M16.875 164.062H18.75M28.125 164.062H35.625M217.5 164.062H219.375M16.875 165.938H18.75M217.5 165.938H219.375M16.875 167.812H18.75M217.5 167.812H219.375M16.875 169.688H18.75M217.5 169.688H219.375M16.875 171.562H18.75M217.5 171.562H219.375M16.875 173.438H18.75M217.5 173.438H219.375M16.875 175.312H18.75M217.5 175.312H219.375M16.875 177.188H18.75M217.5 177.188H219.375M16.875 179.062H18.75M217.5 179.062H219.375M16.875 180.938H18.75M217.5 180.938H219.375M16.875 182.812H18.75M217.5 182.812H219.375M16.875 184.688H18.75M217.5 184.688H219.375M18.75 186.562H20.625M217.5 186.562H219.375M18.75 188.438H20.625M217.5 188.438H219.375M18.75 190.312H22.5M217.5 190.312H219.375M18.75 192.188H31.875M217.5 192.188H219.375M18.75 194.062H22.5M217.5 194.062H219.375M217.5 195.938H219.375M18.75 197.812H22.5M217.5 197.812H219.375M18.75 199.688H22.5M217.5 199.688H219.375M20.625 201.562H22.5M54.375 201.562H56.25M106.875 201.562H108.75M217.5 201.562H219.375M20.625 203.438H22.5M54.375 203.438H56.25M106.875 203.438H108.75M217.5 203.438H219.375M20.625 205.312H26.25M54.375 205.312H56.25M106.875 205.312H108.75M217.5 205.312H219.375M22.5 207.188H26.25M54.375 207.188H58.125M106.875 207.188H108.75M217.5 207.188H219.375M22.5 209.062H26.25M217.5 209.062H219.375M22.5 210.938H26.25M31.875 210.938H39.375M45 210.938H93.75M22.5 212.812H28.125M31.875 212.812H35.625M125.625 214.688H206.25M112.5 216.562H114.375M121.875 216.562H127.5M114.375 218.438H116.25M120 218.438H123.75" stroke="#CECEB2" stroke-width="2"/>
<path d="M112.5 23.4375H114.375H112.5ZM116.25 23.4375H120H116.25ZM125.625 23.4375H127.5H125.625ZM116.25 25.3125H125.625H116.25ZM127.5 25.3125H131.25H127.5ZM110.625 27.1875H123.75H110.625ZM125.625 27.1875H127.5H125.625ZM129.375 27.1875H131.25H129.375ZM31.875 29.0625H120H31.875ZM125.625 29.0625H129.375H125.625ZM131.25 29.0625H204.375H131.25ZM125.625 30.9375H206.25H125.625ZM215.625 30.9375H217.5H215.625ZM127.5 32.8125H206.25H127.5ZM215.625 32.8125H217.5H215.625ZM18.75 34.6875H20.625H18.75ZM148.125 34.6875H150H148.125ZM195 34.6875H198.75H195ZM215.625 34.6875H217.5H215.625ZM18.75 36.5625H20.625H18.75ZM148.125 36.5625H150H148.125ZM195 36.5625H198.75H195ZM215.625 36.5625H217.5H215.625ZM18.75 38.4375H20.625H18.75ZM148.125 38.4375H150H148.125ZM196.875 38.4375H198.75H196.875ZM215.625 38.4375H217.5H215.625ZM18.75 40.3125H20.625H18.75ZM148.125 40.3125H150H148.125ZM196.875 40.3125H198.75H196.875ZM215.625 40.3125H217.5H215.625ZM18.75 42.1875H20.625H18.75ZM148.125 42.1875H150H148.125ZM196.875 42.1875H198.75H196.875ZM215.625 42.1875H217.5H215.625ZM18.75 44.0625H20.625H18.75ZM215.625 44.0625H219.375H215.625ZM18.75 45.9375H20.625H18.75ZM215.625 45.9375H219.375H215.625ZM18.75 47.8125H20.625H18.75ZM18.75 49.6875H20.625H18.75ZM208.125 49.6875H219.375H208.125ZM18.75 51.5625H20.625H18.75ZM217.5 51.5625H219.375H217.5ZM18.75 53.4375H20.625H18.75ZM217.5 53.4375H219.375H217.5ZM18.75 55.3125H20.625H18.75ZM217.5 55.3125H219.375H217.5ZM18.75 57.1875H20.625H18.75ZM217.5 57.1875H219.375H217.5ZM18.75 59.0625H20.625H18.75ZM217.5 59.0625H221.25H217.5ZM18.75 60.9375H20.625H18.75ZM217.5 60.9375H221.25H217.5ZM18.75 62.8125H20.625H18.75ZM215.625 62.8125H221.25H215.625ZM18.75 64.6875H20.625H18.75ZM215.625 64.6875H221.25H215.625ZM18.75 66.5625H20.625H18.75ZM202.5 66.5625H221.25H202.5ZM18.75 68.4375H20.625H18.75ZM208.125 68.4375H221.25H208.125ZM18.75 70.3125H20.625H18.75ZM215.625 70.3125H221.25H215.625ZM18.75 72.1875H20.625H18.75ZM215.625 72.1875H221.25H215.625ZM18.75 74.0625H20.625H18.75ZM215.625 74.0625H221.25H215.625ZM18.75 75.9375H20.625H18.75ZM215.625 75.9375H221.25H215.625ZM18.75 77.8125H20.625H18.75ZM215.625 77.8125H221.25H215.625ZM18.75 79.6875H20.625H18.75ZM215.625 79.6875H221.25H215.625ZM18.75 81.5625H20.625H18.75ZM215.625 81.5625H221.25H215.625ZM18.75 83.4375H20.625H18.75ZM215.625 83.4375H221.25H215.625ZM18.75 85.3125H20.625H18.75ZM215.625 85.3125H221.25H215.625ZM18.75 87.1875H20.625H18.75ZM215.625 87.1875H221.25H215.625ZM18.75 89.0625H20.625H18.75ZM215.625 89.0625H221.25H215.625ZM18.75 90.9375H20.625H18.75ZM215.625 90.9375H221.25H215.625ZM18.75 92.8125H20.625H18.75ZM215.625 92.8125H221.25H215.625ZM18.75 94.6875H20.625H18.75ZM215.625 94.6875H221.25H215.625ZM18.75 96.5625H20.625H18.75ZM215.625 96.5625H221.25H215.625ZM18.75 98.4375H20.625H18.75ZM215.625 98.4375H221.25H215.625ZM16.875 100.312H20.625H16.875ZM215.625 100.312H221.25H215.625ZM13.125 102.188H15H13.125ZM16.875 102.188H20.625H16.875ZM215.625 102.188H221.25H215.625ZM16.875 104.062H20.625H16.875ZM215.625 104.062H221.25H215.625ZM13.125 105.938H20.625H13.125ZM215.625 105.938H221.25H215.625ZM15 107.812H18.75H15ZM215.625 107.812H221.25H215.625ZM15 109.688H18.75H15ZM202.5 109.688H221.25H202.5ZM15 111.562H16.875H15ZM213.75 111.562H221.25H213.75ZM18.75 113.438H22.5H18.75ZM213.75 113.438H221.25H213.75ZM18.75 115.312H26.25H18.75ZM213.75 115.312H221.25H213.75ZM16.875 117.188H18.75H16.875ZM20.625 117.188H26.25H20.625ZM213.75 117.188H221.25H213.75ZM18.75 119.062H26.25H18.75ZM213.75 119.062H221.25H213.75ZM18.75 120.938H26.25H18.75ZM213.75 120.938H221.25H213.75ZM18.75 122.812H26.25H18.75ZM213.75 122.812H221.25H213.75ZM18.75 124.688H26.25H18.75ZM213.75 124.688H219.375H213.75ZM18.75 126.562H26.25H18.75ZM213.75 126.562H217.5H213.75ZM221.25 126.562H223.125H221.25ZM18.75 128.438H26.25H18.75ZM213.75 128.438H219.375H213.75ZM223.125 128.438H225H223.125ZM18.75 130.312H26.25H18.75ZM215.625 130.312H221.25H215.625ZM223.125 130.312H226.875H223.125ZM18.75 132.188H26.25H18.75ZM223.125 132.188H226.875H223.125ZM18.75 134.062H35.625H18.75ZM223.125 134.062H225H223.125ZM18.75 135.938H26.25H18.75ZM221.25 135.938H226.875H221.25ZM18.75 137.812H26.25H18.75ZM221.25 137.812H226.875H221.25ZM18.75 139.688H26.25H18.75ZM219.375 139.688H221.25H219.375ZM225 139.688H226.875H225ZM18.75 141.562H26.25H18.75ZM219.375 141.562H221.25H219.375ZM223.125 141.562H225H223.125ZM18.75 143.438H26.25H18.75ZM219.375 143.438H223.125H219.375ZM18.75 145.312H26.25H18.75ZM219.375 145.312H221.25H219.375ZM18.75 147.188H26.25H18.75ZM219.375 147.188H221.25H219.375ZM18.75 149.062H26.25H18.75ZM219.375 149.062H221.25H219.375ZM18.75 150.938H26.25H18.75ZM219.375 150.938H221.25H219.375ZM18.75 152.812H26.25H18.75ZM219.375 152.812H221.25H219.375ZM18.75 154.688H26.25H18.75ZM219.375 154.688H221.25H219.375ZM18.75 156.562H26.25H18.75ZM219.375 156.562H221.25H219.375ZM18.75 158.438H26.25H18.75ZM219.375 158.438H221.25H219.375ZM18.75 160.312H26.25H18.75ZM219.375 160.312H221.25H219.375ZM18.75 162.188H26.25H18.75ZM219.375 162.188H221.25H219.375ZM18.75 164.062H26.25H18.75ZM219.375 164.062H221.25H219.375ZM18.75 165.938H26.25H18.75ZM219.375 165.938H221.25H219.375ZM18.75 167.812H26.25H18.75ZM219.375 167.812H221.25H219.375ZM18.75 169.688H26.25H18.75ZM219.375 169.688H221.25H219.375ZM18.75 171.562H26.25H18.75ZM219.375 171.562H221.25H219.375ZM18.75 173.438H26.25H18.75ZM219.375 173.438H221.25H219.375ZM18.75 175.312H30H18.75ZM219.375 175.312H221.25H219.375ZM18.75 177.188H35.625H18.75ZM219.375 177.188H221.25H219.375ZM18.75 179.062H26.25H18.75ZM219.375 179.062H221.25H219.375ZM18.75 180.938H26.25H18.75ZM219.375 180.938H221.25H219.375ZM18.75 182.812H26.25H18.75ZM219.375 182.812H221.25H219.375ZM18.75 184.688H26.25H18.75ZM219.375 184.688H221.25H219.375ZM219.375 186.562H221.25H219.375ZM219.375 188.438H221.25H219.375ZM219.375 190.312H221.25H219.375ZM219.375 192.188H221.25H219.375ZM22.5 194.062H39.375H22.5ZM219.375 194.062H221.25H219.375ZM35.625 195.938H39.375H35.625ZM219.375 195.938H221.25H219.375ZM219.375 197.812H221.25H219.375ZM219.375 199.688H221.25H219.375ZM39.375 201.562H41.25H39.375ZM93.75 201.562H95.625H93.75ZM219.375 201.562H221.25H219.375ZM39.375 203.438H41.25H39.375ZM93.75 203.438H95.625H93.75ZM219.375 203.438H221.25H219.375ZM39.375 205.312H41.25H39.375ZM93.75 205.312H95.625H93.75ZM20.625 207.188H22.5H20.625ZM39.375 207.188H45H39.375ZM93.75 207.188H95.625H93.75ZM20.625 209.062H22.5H20.625ZM39.375 209.062H45H39.375ZM93.75 209.062H95.625H93.75ZM20.625 210.938H22.5H20.625ZM39.375 210.938H45H39.375ZM93.75 210.938H116.25H93.75ZM20.625 212.812H22.5H20.625ZM35.625 212.812H120H35.625ZM20.625 214.688H112.5H20.625ZM114.375 214.688H120H114.375ZM31.875 216.562H110.625H31.875ZM116.25 216.562H120H116.25ZM127.5 216.562H200.625H127.5ZM112.5 218.438H114.375H112.5ZM123.75 218.438H127.5H123.75ZM131.25 218.438H133.125H131.25ZM114.375 220.312H127.5H114.375ZM129.375 220.312H131.25H129.375ZM116.25 222.188H121.875H116.25ZM123.75 222.188H129.375H123.75Z" fill="black"/>
<path d="M112.5 23.4375H114.375M116.25 23.4375H120M125.625 23.4375H127.5M116.25 25.3125H125.625M127.5 25.3125H131.25M110.625 27.1875H123.75M125.625 27.1875H127.5M129.375 27.1875H131.25M31.875 29.0625H120M125.625 29.0625H129.375M131.25 29.0625H204.375M125.625 30.9375H206.25M215.625 30.9375H217.5M127.5 32.8125H206.25M215.625 32.8125H217.5M18.75 34.6875H20.625M148.125 34.6875H150M195 34.6875H198.75M215.625 34.6875H217.5M18.75 36.5625H20.625M148.125 36.5625H150M195 36.5625H198.75M215.625 36.5625H217.5M18.75 38.4375H20.625M148.125 38.4375H150M196.875 38.4375H198.75M215.625 38.4375H217.5M18.75 40.3125H20.625M148.125 40.3125H150M196.875 40.3125H198.75M215.625 40.3125H217.5M18.75 42.1875H20.625M148.125 42.1875H150M196.875 42.1875H198.75M215.625 42.1875H217.5M18.75 44.0625H20.625M215.625 44.0625H219.375M18.75 45.9375H20.625M215.625 45.9375H219.375M18.75 47.8125H20.625M18.75 49.6875H20.625M208.125 49.6875H219.375M18.75 51.5625H20.625M217.5 51.5625H219.375M18.75 53.4375H20.625M217.5 53.4375H219.375M18.75 55.3125H20.625M217.5 55.3125H219.375M18.75 57.1875H20.625M217.5 57.1875H219.375M18.75 59.0625H20.625M217.5 59.0625H221.25M18.75 60.9375H20.625M217.5 60.9375H221.25M18.75 62.8125H20.625M215.625 62.8125H221.25M18.75 64.6875H20.625M215.625 64.6875H221.25M18.75 66.5625H20.625M202.5 66.5625H221.25M18.75 68.4375H20.625M208.125 68.4375H221.25M18.75 70.3125H20.625M215.625 70.3125H221.25M18.75 72.1875H20.625M215.625 72.1875H221.25M18.75 74.0625H20.625M215.625 74.0625H221.25M18.75 75.9375H20.625M215.625 75.9375H221.25M18.75 77.8125H20.625M215.625 77.8125H221.25M18.75 79.6875H20.625M215.625 79.6875H221.25M18.75 81.5625H20.625M215.625 81.5625H221.25M18.75 83.4375H20.625M215.625 83.4375H221.25M18.75 85.3125H20.625M215.625 85.3125H221.25M18.75 87.1875H20.625M215.625 87.1875H221.25M18.75 89.0625H20.625M215.625 89.0625H221.25M18.75 90.9375H20.625M215.625 90.9375H221.25M18.75 92.8125H20.625M215.625 92.8125H221.25M18.75 94.6875H20.625M215.625 94.6875H221.25M18.75 96.5625H20.625M215.625 96.5625H221.25M18.75 98.4375H20.625M215.625 98.4375H221.25M16.875 100.312H20.625M215.625 100.312H221.25M13.125 102.188H15M16.875 102.188H20.625M215.625 102.188H221.25M16.875 104.062H20.625M215.625 104.062H221.25M13.125 105.938H20.625M215.625 105.938H221.25M15 107.812H18.75M215.625 107.812H221.25M15 109.688H18.75M202.5 109.688H221.25M15 111.562H16.875M213.75 111.562H221.25M18.75 113.438H22.5M213.75 113.438H221.25M18.75 115.312H26.25M213.75 115.312H221.25M16.875 117.188H18.75M20.625 117.188H26.25M213.75 117.188H221.25M18.75 119.062H26.25M213.75 119.062H221.25M18.75 120.938H26.25M213.75 120.938H221.25M18.75 122.812H26.25M213.75 122.812H221.25M18.75 124.688H26.25M213.75 124.688H219.375M18.75 126.562H26.25M213.75 126.562H217.5M221.25 126.562H223.125M18.75 128.438H26.25M213.75 128.438H219.375M223.125 128.438H225M18.75 130.312H26.25M215.625 130.312H221.25M223.125 130.312H226.875M18.75 132.188H26.25M223.125 132.188H226.875M18.75 134.062H35.625M223.125 134.062H225M18.75 135.938H26.25M221.25 135.938H226.875M18.75 137.812H26.25M221.25 137.812H226.875M18.75 139.688H26.25M219.375 139.688H221.25M225 139.688H226.875M18.75 141.562H26.25M219.375 141.562H221.25M223.125 141.562H225M18.75 143.438H26.25M219.375 143.438H223.125M18.75 145.312H26.25M219.375 145.312H221.25M18.75 147.188H26.25M219.375 147.188H221.25M18.75 149.062H26.25M219.375 149.062H221.25M18.75 150.938H26.25M219.375 150.938H221.25M18.75 152.812H26.25M219.375 152.812H221.25M18.75 154.688H26.25M219.375 154.688H221.25M18.75 156.562H26.25M219.375 156.562H221.25M18.75 158.438H26.25M219.375 158.438H221.25M18.75 160.312H26.25M219.375 160.312H221.25M18.75 162.188H26.25M219.375 162.188H221.25M18.75 164.062H26.25M219.375 164.062H221.25M18.75 165.938H26.25M219.375 165.938H221.25M18.75 167.812H26.25M219.375 167.812H221.25M18.75 169.688H26.25M219.375 169.688H221.25M18.75 171.562H26.25M219.375 171.562H221.25M18.75 173.438H26.25M219.375 173.438H221.25M18.75 175.312H30M219.375 175.312H221.25M18.75 177.188H35.625M219.375 177.188H221.25M18.75 179.062H26.25M219.375 179.062H221.25M18.75 180.938H26.25M219.375 180.938H221.25M18.75 182.812H26.25M219.375 182.812H221.25M18.75 184.688H26.25M219.375 184.688H221.25M219.375 186.562H221.25M219.375 188.438H221.25M219.375 190.312H221.25M219.375 192.188H221.25M22.5 194.062H39.375M219.375 194.062H221.25M35.625 195.938H39.375M219.375 195.938H221.25M219.375 197.812H221.25M219.375 199.688H221.25M39.375 201.562H41.25M93.75 201.562H95.625M219.375 201.562H221.25M39.375 203.438H41.25M93.75 203.438H95.625M219.375 203.438H221.25M39.375 205.312H41.25M93.75 205.312H95.625M20.625 207.188H22.5M39.375 207.188H45M93.75 207.188H95.625M20.625 209.062H22.5M39.375 209.062H45M93.75 209.062H95.625M20.625 210.938H22.5M39.375 210.938H45M93.75 210.938H116.25M20.625 212.812H22.5M35.625 212.812H120M20.625 214.688H112.5M114.375 214.688H120M31.875 216.562H110.625M116.25 216.562H120M127.5 216.562H200.625M112.5 218.438H114.375M123.75 218.438H127.5M131.25 218.438H133.125M114.375 220.312H127.5M129.375 220.312H131.25M116.25 222.188H121.875M123.75 222.188H129.375" stroke="white" stroke-width="2"/>
</svg>
