<svg width="34" height="32" viewBox="0 0 34 32" fill="none" xmlns="http://www.w3.org/2000/svg">
<path d="M33.6668 27.0081C33.6668 27.3397 33.5351 27.6576 33.3007 27.892C33.0663 28.1264 32.7483 28.2581 32.4168 28.2581H23.9168C23.6384 29.2963 23.0253 30.2135 22.1725 30.8678C21.3198 31.522 20.275 31.8766 19.2002 31.8766C18.1254 31.8766 17.0806 31.522 16.2278 30.8678C15.375 30.2135 14.7619 29.2963 14.4835 28.2581H1.5835C1.25198 28.2581 0.934033 28.1264 0.699612 27.892C0.465192 27.6576 0.333496 27.3397 0.333496 27.0081C0.333496 26.6766 0.465192 26.3587 0.699612 26.1243C0.934033 25.8898 1.25198 25.7581 1.5835 25.7581H14.4835C14.7619 24.72 15.375 23.8027 16.2278 23.1485C17.0806 22.4943 18.1254 22.1397 19.2002 22.1397C20.275 22.1397 21.3198 22.4943 22.1725 23.1485C23.0253 23.8027 23.6384 24.72 23.9168 25.7581H32.4168C32.7483 25.7581 33.0663 25.8898 33.3007 26.1243C33.5351 26.3587 33.6668 26.6766 33.6668 27.0081ZM33.6668 4.99147C33.6668 5.32299 33.5351 5.64093 33.3007 5.87535C33.0663 6.10977 32.7483 6.24147 32.4168 6.24147H28.3335C28.0551 7.2796 27.442 8.19687 26.5892 8.85108C25.7364 9.5053 24.6916 9.85989 23.6168 9.85989C22.542 9.85989 21.4972 9.5053 20.6445 8.85108C19.7917 8.19687 19.1786 7.2796 18.9002 6.24147H1.5835C1.41934 6.24147 1.2568 6.20914 1.10514 6.14632C0.953485 6.0835 0.815686 5.99143 0.699612 5.87535C0.583539 5.75928 0.491465 5.62148 0.428647 5.46982C0.365828 5.31817 0.333496 5.15562 0.333496 4.99147C0.333496 4.82732 0.365828 4.66477 0.428647 4.51311C0.491465 4.36146 0.583539 4.22366 0.699612 4.10759C0.815686 3.99151 0.953485 3.89944 1.10514 3.83662C1.2568 3.7738 1.41934 3.74147 1.5835 3.74147H18.9002C19.1786 2.70334 19.7917 1.78606 20.6445 1.13185C21.4972 0.477642 22.542 0.123047 23.6168 0.123047C24.6916 0.123047 25.7364 0.477642 26.5892 1.13185C27.442 1.78606 28.0551 2.70334 28.3335 3.74147H32.4168C32.5816 3.73923 32.7452 3.77003 32.8978 3.83205C33.0505 3.89408 33.1892 3.98607 33.3057 4.10259C33.4222 4.21911 33.5142 4.3578 33.5762 4.51047C33.6383 4.66314 33.6691 4.8267 33.6668 4.99147ZM33.6668 15.9915C33.6691 16.1562 33.6383 16.3198 33.5762 16.4725C33.5142 16.6251 33.4222 16.7638 33.3057 16.8803C33.1892 16.9969 33.0505 17.0889 32.8978 17.1509C32.7452 17.2129 32.5816 17.2437 32.4168 17.2415H12.9168C12.6384 18.2796 12.0253 19.1969 11.1725 19.8511C10.3198 20.5053 9.27497 20.8599 8.20016 20.8599C7.12535 20.8599 6.08057 20.5053 5.22779 19.8511C4.37502 19.1969 3.7619 18.2796 3.4835 17.2415H1.5835C1.25198 17.2415 0.934033 17.1098 0.699612 16.8754C0.465192 16.6409 0.333496 16.323 0.333496 15.9915C0.333496 15.6599 0.465192 15.342 0.699612 15.1076C0.934033 14.8732 1.25198 14.7415 1.5835 14.7415H3.4835C3.7619 13.7033 4.37502 12.7861 5.22779 12.1319C6.08057 11.4776 7.12535 11.123 8.20016 11.123C9.27497 11.123 10.3198 11.4776 11.1725 12.1319C12.0253 12.7861 12.6384 13.7033 12.9168 14.7415H32.4168C32.7483 14.7415 33.0663 14.8732 33.3007 15.1076C33.5351 15.342 33.6668 15.6599 33.6668 15.9915Z" fill="black"/>
</svg>
