<svg width="32" height="32" viewBox="0 0 32 32" fill="none" xmlns="http://www.w3.org/2000/svg">
<path d="M17.0936 7.43998L16.0002 8.53598L14.9016 7.43731C13.5575 6.09337 11.7345 5.33842 9.83377 5.33855C7.93303 5.33867 6.11018 6.09386 4.76624 7.43798C3.4223 8.7821 2.66736 10.605 2.66748 12.5058C2.66761 14.4065 3.42279 16.2294 4.76691 17.5733L15.2936 28.1C15.4811 28.2872 15.7352 28.3924 16.0002 28.3924C16.2652 28.3924 16.5194 28.2872 16.7069 28.1L27.2429 17.5706C28.5854 16.2264 29.3394 14.4042 29.3392 12.5044C29.3389 10.6045 28.5845 8.78252 27.2416 7.43865C26.5754 6.77204 25.7844 6.24322 24.9138 5.88243C24.0432 5.52164 23.11 5.33594 22.1676 5.33594C21.2252 5.33594 20.292 5.52164 19.4214 5.88243C18.5507 6.24322 17.7597 6.77337 17.0936 7.43998ZM25.8242 16.1586L16.0002 25.98L6.18024 16.16C5.69628 15.6811 5.31173 15.1114 5.04869 14.4834C4.78565 13.8555 4.6493 13.1818 4.64749 12.501C4.64568 11.8201 4.77844 11.1457 5.03814 10.5164C5.29783 9.88703 5.67935 9.31523 6.16076 8.83382C6.64216 8.35242 7.21396 7.9709 7.84329 7.71121C8.47262 7.45151 9.14708 7.31875 9.82788 7.32056C10.5087 7.32237 11.1824 7.45872 11.8104 7.72176C12.4383 7.9848 13.0081 8.36935 13.4869 8.85331L15.2976 10.6626C15.3918 10.757 15.5039 10.8315 15.6273 10.8818C15.7507 10.9322 15.883 10.9574 16.0163 10.9559C16.1496 10.9544 16.2812 10.9263 16.4035 10.8732C16.5258 10.8201 16.6362 10.743 16.7282 10.6466L18.5069 8.85331C19.4873 7.94075 20.7835 7.44399 22.1227 7.46756C23.4618 7.49112 24.7397 8.03316 25.6874 8.97966C26.6351 9.92615 27.1788 11.2033 27.204 12.5425C27.2293 13.8816 26.7342 15.1784 25.8229 16.16" fill="black"/>
</svg>
