<svg width="32" height="32" viewBox="0 0 32 32" fill="none" xmlns="http://www.w3.org/2000/svg">
<path d="M17.4385 7.74183L17.4381 7.74223L16.7479 8.51937L16.0002 9.3611L15.2526 8.51937L14.5623 7.74223L14.562 7.7419C11.9872 4.84059 7.4535 4.85072 4.89294 7.76243L17.4385 7.74183ZM17.4385 7.74183C18.0105 7.09713 18.706 6.57361 19.4837 6.20219M17.4385 7.74183L19.4837 6.20219M19.4837 6.20219C20.2615 5.83078 21.1058 5.619 21.9668 5.57936M19.4837 6.20219L21.9668 5.57936M21.9668 5.57936C22.8277 5.53973 23.6879 5.67305 24.4965 5.97145M21.9668 5.57936L24.4965 5.97145M24.4965 5.97145C25.3051 6.26984 26.0457 6.72726 26.6745 7.31669M24.4965 5.97145L26.6745 7.31669M26.6745 7.31669C27.3034 7.90611 27.8077 8.61558 28.1577 9.40319M26.6745 7.31669L28.1577 9.40319M28.1577 9.40319C28.5078 10.1908 28.6964 11.0406 28.7125 11.9023M28.1577 9.40319L28.7125 11.9023M28.7125 11.9023C28.7286 12.7641 28.5719 13.6203 28.2515 14.4204M28.7125 11.9023L28.2515 14.4204M28.2515 14.4204C27.9311 15.2206 27.4536 15.9484 26.8473 16.5609M28.2515 14.4204L26.8473 16.5609M26.8473 16.5609L16.0002 27.5121L5.15317 16.5609C4.00381 15.3998 3.33774 13.846 3.28944 12.2129C3.24115 10.58 3.81418 8.98945 4.89287 7.7625L26.8473 16.5609Z" fill="#FF0505" stroke="black" stroke-width="2"/>
</svg>
