<svg width="32" height="32" viewBox="0 0 32 32" fill="none" xmlns="http://www.w3.org/2000/svg">
<path fill-rule="evenodd" clip-rule="evenodd" d="M16.0159 7.42895L14.5666 5.97962C13.8873 5.29117 13.0785 4.74388 12.1869 4.36928C11.2952 3.99468 10.3382 3.80016 9.37108 3.79692C8.40393 3.79368 7.44568 3.98178 6.55152 4.3504C5.65737 4.71902 4.84495 5.26087 4.16107 5.94476C3.47718 6.62865 2.93533 7.44106 2.56671 8.33522C2.19809 9.22938 2.00998 10.1876 2.01322 11.1548C2.01646 12.1219 2.21099 13.0789 2.58559 13.9706C2.96019 14.8622 3.50747 15.671 4.19593 16.3503L15.9813 28.1356L15.9839 28.133L16.0186 28.1676L27.8039 16.3823C28.4924 15.703 29.0397 14.8942 29.4143 14.0026C29.7889 13.1109 29.9834 12.1539 29.9866 11.1868C29.9899 10.2196 29.8018 9.26138 29.4331 8.36722C29.0645 7.47306 28.5227 6.66064 27.8388 5.97676C27.1549 5.29287 26.3425 4.75102 25.4483 4.3824C24.5542 4.01378 23.5959 3.82568 22.6288 3.82892C21.6616 3.83216 20.7047 4.02668 19.813 4.40128C18.9213 4.77588 18.1125 5.32316 17.4333 6.01162L16.0159 7.42895ZM15.9839 24.3623L22.5653 17.7796L24.4986 15.913H24.5013L25.9186 14.497C26.7938 13.6217 27.2855 12.4347 27.2855 11.197C27.2855 9.95921 26.7938 8.77217 25.9186 7.89695C25.0434 7.02174 23.8563 6.53005 22.6186 6.53005C21.3809 6.53005 20.1938 7.02174 19.3186 7.89695L16.0173 11.1996L16.0079 11.1903L12.6813 7.86629C11.806 6.99107 10.619 6.49938 9.38126 6.49938C8.14352 6.49938 6.95647 6.99107 6.08126 7.86629C5.20605 8.7415 4.71436 9.92855 4.71436 11.1663C4.71436 12.404 5.20605 13.5911 6.08126 14.4663L9.46793 17.853L9.46926 17.849L15.9839 24.3623Z" fill="black"/>
<path d="M15.9839 24.3623L22.5653 17.7796L24.4986 15.913H24.5013L25.9186 14.497C26.7938 13.6217 27.2855 12.4347 27.2855 11.197C27.2855 9.95921 26.7938 8.77217 25.9186 7.89695C25.0434 7.02174 23.8563 6.53005 22.6186 6.53005C21.3809 6.53005 20.1938 7.02174 19.3186 7.89695L16.0173 11.1996L16.0079 11.1903L12.6813 7.86629C11.806 6.99107 10.619 6.49938 9.38126 6.49938C8.14352 6.49938 6.95647 6.99107 6.08126 7.86629C5.20605 8.7415 4.71436 9.92855 4.71436 11.1663C4.71436 12.404 5.20605 13.5911 6.08126 14.4663L9.46793 17.853L9.46926 17.849L15.9839 24.3623Z" fill="#FF0000"/>
</svg>
