<svg xmlns="http://www.w3.org/2000/svg" viewBox="0 -0.5 32 32" shape-rendering="crispEdges">
<metadata>Made with Pixels to Svg https://codepen.io/shshaw/pen/XbxvNj</metadata>
<path stroke="#000000" d="M10 3h5M8 4h2M15 4h2M6 5h2M17 5h2M5 6h1M19 6h1M5 7h1M19 7h1M4 8h1M20 8h1M4 9h1M20 9h1M3 10h1M21 10h1M3 11h1M21 11h1M3 12h1M21 12h1M3 13h1M21 13h1M3 14h1M21 14h1M4 15h1M20 15h1M4 16h1M20 16h1M5 17h1M19 17h1M5 18h1M19 18h1M6 19h2M17 19h2M20 19h1M22 19h1M8 20h2M15 20h2M19 20h1M21 20h1M23 20h1M10 21h5M20 21h1M24 21h1M19 22h1M25 22h1M20 23h1M26 23h1M21 24h1M27 24h1M22 25h1M28 25h1M23 26h1M27 26h1M24 27h1M26 27h1M25 28h1" />
<path stroke="#f5c1cd" d="M10 4h5M8 5h2M15 5h2M6 6h2M17 6h2M18 7h1M19 8h1M19 9h1M20 10h1M20 11h1M20 12h1M20 13h1M20 14h1M19 15h1M19 16h1" />
<path stroke="#7770a3" d="M10 5h5M8 6h2M15 6h2M7 7h1M17 7h1M6 8h1M18 8h1M6 9h1M18 9h1M5 10h1M19 10h1M5 11h1M19 11h1M5 12h1M19 12h1M5 13h1M19 13h1M5 14h1M19 14h1M6 15h1M18 15h1M6 16h1M18 16h1M7 17h1M17 17h1M8 18h2M15 18h2M10 19h5" />
<path stroke="#73c2d6" d="M10 6h1M13 6h2M8 7h3M13 7h4M7 8h1M16 8h2M17 9h1M17 10h2M18 11h1M18 12h1M18 13h1M18 14h1M17 15h1M17 16h1" />
<path stroke="#d2f8ff" d="M11 6h2" />
<path stroke="#ccadcd" d="M6 7h1M5 8h1M5 9h1M4 10h1M4 11h1M4 12h1M4 13h1M4 14h1M5 15h1M5 16h1M6 17h1M18 17h1M6 18h2M17 18h2M8 19h2M15 19h2M10 20h5M20 20h1" />
<path stroke="#ffffff" d="M11 7h2M10 8h3M10 9h2M9 10h2M8 11h3M8 12h2M13 12h2M7 13h3M13 13h2M6 14h3M12 14h2M7 15h2M12 15h2M7 16h1M11 16h2M10 17h2M10 18h2" />
<path stroke="#9feeff" d="M8 8h2M13 8h3M7 9h3M12 9h5M6 10h3M11 10h6M6 11h2M11 11h7M6 12h2M10 12h3M15 12h3M6 13h1M10 13h3M15 13h3M9 14h3M14 14h4M9 15h3M14 15h3M8 16h3M13 16h4M8 17h2M12 17h5M12 18h3" />
<path stroke="#ead4eb" d="M19 19h1" />
<path stroke="#d08c3a" d="M22 20h1M23 21h1M24 22h1M25 23h1" />
<path stroke="#67380c" d="M21 21h2M22 22h2M23 23h2M24 24h3M25 25h2" />
<path stroke="#421b08" d="M20 22h2M21 23h2M22 24h2M23 25h2M27 25h1M24 26h3M25 27h1" />
</svg>