<svg xmlns="http://www.w3.org/2000/svg" viewBox="0 -0.5 48 48" shape-rendering="crispEdges">
<metadata>Made with Pixels to Svg https://codepen.io/shshaw/pen/XbxvNj</metadata>
<path stroke="#000000" d="M5 7h4M39 7h4M4 8h6M38 8h6M4 9h2M8 9h4M36 9h4M42 9h2M3 10h3M9 10h4M35 10h4M42 10h3M2 11h3M11 11h3M34 11h3M43 11h3M2 12h3M12 12h4M32 12h4M43 12h3M2 13h3M13 13h6M29 13h6M43 13h3M2 14h4M14 14h20M42 14h4M3 15h4M18 15h12M41 15h4M3 16h4M41 16h4M4 17h5M39 17h5M4 18h6M38 18h6M5 19h7M36 19h7M6 20h7M35 20h7M8 21h9M31 21h9M9 22h10M29 22h10M11 23h26M14 24h20M17 25h14M18 26h12M20 29h8M19 30h10M18 31h4M26 31h4M17 32h4M27 32h4M16 33h4M28 33h4M16 34h3M29 34h3M15 35h3M30 35h3M15 36h3M30 36h3M15 37h4M29 37h4M15 38h6M27 38h6M16 39h16M17 40h14M18 41h12" />
<path stroke="#ff0000" d="M6 9h2M40 9h2M6 10h3M39 10h3M5 11h6M37 11h6M5 12h7M36 12h7M5 13h8M35 13h8M6 14h8M34 14h8M7 15h11M30 15h11M7 16h34M9 17h30M10 18h28M12 19h24M13 20h22M17 21h14M19 22h10M22 31h4M21 32h6M20 33h8M19 34h10M18 35h12M18 36h12M19 37h10M21 38h6" />
</svg>