<svg xmlns="http://www.w3.org/2000/svg" viewBox="0 -0.5 32 32" shape-rendering="crispEdges">
<metadata>Made with Pixels to Svg https://codepen.io/shshaw/pen/XbxvNj</metadata>
<path stroke="#000000" d="M9 5h14M8 6h1M23 6h1M7 7h1M24 7h1M6 8h1M14 8h4M25 8h1M5 9h1M13 9h1M18 9h1M26 9h1M5 10h1M13 10h1M18 10h1M26 10h1M5 11h1M13 11h1M18 11h1M26 11h1M5 12h1M13 12h1M18 12h1M26 12h1M5 13h1M9 13h5M18 13h5M26 13h1M5 14h1M8 14h1M23 14h1M26 14h1M5 15h1M8 15h1M23 15h1M26 15h1M5 16h1M8 16h1M23 16h1M26 16h1M5 17h1M8 17h1M23 17h1M26 17h1M5 18h1M9 18h5M18 18h5M26 18h1M5 19h1M13 19h1M18 19h1M26 19h1M5 20h1M13 20h1M18 20h1M26 20h1M5 21h1M13 21h1M18 21h1M26 21h1M5 22h1M13 22h1M18 22h1M26 22h1M6 23h1M14 23h4M25 23h1M7 24h1M24 24h1M8 25h1M23 25h1M9 26h14" />
<path stroke="#6937d8" d="M9 6h1M8 7h2M8 8h2M8 9h2M8 10h3M8 11h5M10 12h3M19 19h3M19 20h3M19 21h4M20 22h5M21 23h4M22 24h2" />
<path stroke="#6e42cf" d="M10 6h3M10 7h4M10 8h4M18 8h3M10 9h3M19 9h3M11 10h2M19 10h4M19 11h3M19 12h5M23 13h2M24 14h1M24 15h1M24 16h1M24 17h1M23 18h3M22 19h4M22 20h4M23 21h3M25 22h1" />
<path stroke="#784ade" d="M13 6h3M14 7h2M18 7h1M22 11h2M25 15h1M25 16h1M25 17h1" />
<path stroke="#8149cf" d="M16 6h7M16 7h2M19 7h5M21 8h4M22 9h4M23 10h3M24 11h2M24 12h2M25 13h1M25 14h1" />
<path stroke="#573e9c" d="M7 8h1M7 9h1M7 10h1M7 11h1M7 12h3M8 13h1M11 19h2M12 20h1M19 22h1M19 23h2M20 24h2M21 25h2" />
<path stroke="#322791" d="M6 9h1M6 10h1M6 11h1M6 12h1M6 13h2M6 14h2M6 15h2M7 16h1M7 17h1M7 19h4M8 20h4M8 21h5M10 22h3M11 23h3M18 23h1M14 24h6M16 25h5" />
<path stroke="#c0c0c0" d="M14 9h1M14 10h1M14 11h1M14 12h1M14 13h1M18 17h5M15 22h3" />
<path stroke="#ffffff" d="M15 9h3M15 10h3M15 11h3M15 12h3M15 13h3M10 14h13M10 15h13M10 16h13M15 17h3M15 18h3M15 19h3M15 20h3M15 21h3" />
<path stroke="#9a9a9a" d="M9 14h1M9 15h1M9 16h1M9 17h6M14 18h1M14 19h1M14 20h1M14 21h1M14 22h1" />
<path stroke="#372b9b" d="M6 16h1M6 17h1M6 18h2M6 19h1M6 20h2M6 21h2M6 22h4M7 23h4M8 24h6M9 25h7" />
<path stroke="#2b2087" d="M8 18h1" />
</svg>