<svg xmlns="http://www.w3.org/2000/svg" viewBox="0 -0.5 32 32" shape-rendering="crispEdges">
<metadata>Made with Pixels to Svg https://codepen.io/shshaw/pen/XbxvNj</metadata>
<path stroke="#000000" d="M13 2h7M10 3h3M14 3h2M20 3h3M9 4h1M14 4h1M20 4h1M23 4h1M8 5h1M14 5h1M20 5h1M24 5h1M7 6h1M14 6h1M20 6h1M25 6h1M6 7h1M15 7h1M20 7h1M26 7h1M5 8h1M15 8h1M20 8h1M27 8h1M4 9h1M15 9h1M20 9h1M28 9h1M4 10h1M15 10h2M21 10h1M28 10h1M4 11h1M16 11h1M21 11h8M3 12h1M17 12h1M22 12h2M27 12h3M3 13h1M17 13h2M21 13h2M28 13h2M3 14h1M17 14h4M29 14h1M3 15h1M16 15h2M20 15h4M29 15h1M3 16h1M16 16h1M20 16h2M24 16h1M29 16h1M3 17h1M15 17h1M20 17h1M25 17h1M29 17h1M3 18h1M14 18h1M20 18h1M26 18h1M29 18h1M4 19h1M12 19h2M20 19h1M26 19h3M4 20h1M11 20h2M19 20h2M27 20h2M4 21h8M19 21h1M27 21h2M5 22h1M18 22h2M27 22h1M6 23h1M18 23h1M26 23h1M7 24h1M17 24h2M25 24h1M8 25h1M16 25h2M24 25h1M9 26h1M14 26h2M23 26h1M10 27h5M20 27h3M13 28h7" />
<path stroke="#ffd728" d="M13 3h1M10 4h4M21 4h2M9 5h2M21 5h3M8 6h1M23 6h2M7 7h1M24 7h2M6 8h2M25 8h2M5 9h2M26 9h2M5 10h2M27 10h1M5 11h1M4 12h2M4 13h2M4 14h2M4 15h2M4 16h2M4 17h2M4 18h2M5 19h1M5 20h2M26 21h1M26 22h1M24 23h2M23 24h2M18 25h1M21 25h3M20 26h3M15 27h5" />
<path stroke="#1d1dc7" d="M16 3h2M26 13h1M28 14h1M27 15h2M27 16h2M26 17h3M27 18h2M6 22h2M7 23h2M8 24h3M9 25h3M10 26h4" />
<path stroke="#1d1da6" d="M18 3h2M27 13h1M8 22h1" />
<path stroke="#1d1d98" d="M15 4h1M26 12h1" />
<path stroke="#1d1d8c" d="M16 4h1" />
<path stroke="#1d1d7a" d="M17 4h2" />
<path stroke="#1d1db5" d="M19 4h1M27 14h1" />
<path stroke="#f5ca28" d="M11 5h1M9 6h1M8 7h1M26 10h1M6 12h1" />
<path stroke="#e3b228" d="M12 5h1" />
<path stroke="#e7b728" d="M13 5h1" />
<path stroke="#1d1d60" d="M15 5h1" />
<path stroke="#1d1d58" d="M16 5h1" />
<path stroke="#1d1d4f" d="M17 5h1" />
<path stroke="#1d1d43" d="M18 5h1" />
<path stroke="#1d1d45" d="M19 5h1" />
<path stroke="#ebbc28" d="M10 6h1" />
<path stroke="#e0ad28" d="M11 6h2M7 10h1" />
<path stroke="#e1ae28" d="M13 6h1M9 7h1" />
<path stroke="#1d1d3d" d="M15 6h1M9 22h1M13 24h1" />
<path stroke="#1d1d3c" d="M16 6h3M16 7h4M16 8h4M16 9h4M17 10h4M17 11h4M18 12h4M24 12h1M19 13h2M23 13h3M21 14h4M18 15h2M24 15h2M17 16h3M25 16h1M16 17h4M15 18h5M14 19h6M13 20h6M12 21h7M10 22h8M11 23h7M11 24h2M14 24h3M13 25h3" />
<path stroke="#1d1d47" d="M19 6h1" />
<path stroke="#dda528" d="M21 6h1M25 10h1M24 19h1" />
<path stroke="#f1c528" d="M22 6h1" />
<path stroke="#dca928" d="M10 7h1" />
<path stroke="#daa328" d="M11 7h1" />
<path stroke="#dba228" d="M12 7h3M10 8h4M22 8h2M9 9h2M23 9h1M8 10h2M24 10h1M8 11h1M7 12h2M7 13h1M7 14h1M6 15h1M6 16h1M6 17h1M7 18h1M7 19h2M7 20h2M23 20h1M23 21h1M21 22h3M21 23h3M19 24h4" />
<path stroke="#dca228" d="M21 7h2M14 8h1M21 8h1M11 9h4M21 9h2M24 9h1M10 10h5M22 10h2M9 11h7M9 12h8M8 13h9M8 14h9M7 15h9M7 16h9M22 16h2M7 17h8M21 17h4M8 18h6M21 18h4M9 19h3M21 19h3M9 20h2M21 20h2M20 21h3M20 22h1M19 23h2" />
<path stroke="#e9ba28" d="M23 7h1M24 8h1" />
<path stroke="#e5b428" d="M8 8h1" />
<path stroke="#daa428" d="M9 8h1" />
<path stroke="#eec028" d="M7 9h1M25 9h1M6 11h1" />
<path stroke="#d8a228" d="M8 9h1" />
<path stroke="#dca328" d="M7 11h1" />
<path stroke="#1d1d3e" d="M25 12h1M25 14h1M9 23h1" />
<path stroke="#dba328" d="M6 13h1M25 18h1M24 20h1" />
<path stroke="#e0a928" d="M6 14h1M6 19h1M25 19h1M24 21h2M25 22h1M19 25h2M19 26h1" />
<path stroke="#1d1d4e" d="M26 14h1M10 23h1" />
<path stroke="#1d1d41" d="M26 15h1" />
<path stroke="#1d1d62" d="M26 16h1" />
<path stroke="#dea728" d="M6 18h1M16 26h1" />
<path stroke="#e8b528" d="M25 20h2" />
<path stroke="#dda428" d="M24 22h1" />
<path stroke="#1d1d4a" d="M12 25h1" />
<path stroke="#dca428" d="M17 26h2" />
</svg>