<svg width="36" height="36" viewBox="0 0 36 36" fill="none" xmlns="http://www.w3.org/2000/svg">
<path fill-rule="evenodd" clip-rule="evenodd" d="M10.4727 5.60442C6.292 8.1486 3.5 12.7482 3.5 18C3.5 20.5503 4.15841 22.9469 5.31453 25.0289C5.62963 25.0484 5.95963 25.0756 6.30063 25.1036C10.2381 25.4278 15.6415 25.8725 16.5 15.9999C13.8252 14.6624 10.7528 8.95266 10.4727 5.60442ZM15.3898 32.2657C16.2365 32.4196 17.1089 32.5 18 32.5C22.419 32.5 26.3763 30.5232 29.0359 27.4057C28.9175 22.6865 26.8498 15.6432 19 15.9999C20.6697 19.3394 21.247 27.0487 15.3898 32.2657ZM31.9907 14.177C30.6627 9.30547 26.8582 5.45529 22.0137 4.06268C17.9402 8.8803 18.5486 10.9952 20 12.9998C22.1281 11.3017 27.6906 10.1225 31.9907 14.177ZM18 0.5C8.33502 0.5 0.5 8.33502 0.5 18C0.5 27.665 8.33502 35.5 18 35.5C27.665 35.5 35.5 27.665 35.5 18C35.5 8.33502 27.665 0.5 18 0.5Z" fill="black"/>
</svg>
